<svg width="202" height="93" viewBox="0 0 202 93" fill="none" xmlns="http://www.w3.org/2000/svg">
<path fill-rule="evenodd" clip-rule="evenodd" d="M134.426 23.3643C123.307 29.4782 118.03 42.4702 120.704 54.6193C122.177 54.74 123.658 54.74 125.131 54.6193C126.949 54.5151 128.75 54.2098 130.501 53.709C128.296 45.6133 131.513 36.8508 138.763 32.5388C136.861 30.3323 134.921 26.2227 134.426 23.3643Z" fill="#F1DD38"/>
<path fill-rule="evenodd" clip-rule="evenodd" d="M121.607 57.8524C122.93 61.8152 125.068 65.4566 127.885 68.5417C130.701 71.6267 134.132 74.0868 137.958 75.7633C140.218 73.2137 142.092 70.3459 143.519 67.2518C140.898 66.4297 138.479 65.0635 136.421 63.2424C134.363 61.4214 132.712 59.1864 131.576 56.6836C128.816 57.6838 124.539 57.9835 121.607 57.8524V57.8524Z" fill="#BC4077"/>
<path fill-rule="evenodd" clip-rule="evenodd" d="M134.288 57.6163C135.619 59.8855 137.452 61.8192 139.647 63.2688C141.842 64.7183 144.341 65.6451 146.95 65.978C144.995 65.3473 143.237 64.2228 141.844 62.7134C140.451 61.204 139.471 59.3606 138.999 57.3616C137.436 57.5532 135.862 57.6345 134.288 57.6051V57.6163Z" fill="#61993B"/>
<path fill-rule="evenodd" clip-rule="evenodd" d="M136.804 36.5173C132.104 41.0428 130.554 48.0895 132.778 54.3945C134.729 54.5169 136.687 54.4617 138.628 54.2296C138.587 51.1266 139.631 48.1065 141.579 45.6919C139.535 43.4442 137.64 39.4394 136.823 36.5173H136.804Z" fill="#BC4077"/>
<path fill-rule="evenodd" clip-rule="evenodd" d="M159.6 33.4529C153.312 30.6133 145.496 30.7069 139.549 34.3558C140.051 37.2254 141.998 41.3463 143.897 43.5566C145.405 42.5556 147.115 41.8994 148.906 41.6345C150.696 41.3697 152.523 41.5028 154.256 42.0244C155.155 39.0761 157.451 35.6557 159.611 33.4529H159.6Z" fill="#0089B6"/>
<path fill-rule="evenodd" clip-rule="evenodd" d="M173.311 51.8921C172.835 48.472 171.627 45.1951 169.768 42.2855C167.909 39.3759 165.443 36.9023 162.54 35.0339C160.466 36.8808 157.848 40.6346 157.189 43.3057C158.704 44.208 160.027 45.4004 161.082 46.8146C162.136 48.2288 162.902 49.8371 163.334 51.5474C166.353 50.8956 170.293 51.1728 173.311 51.8809V51.8921Z" fill="#F1DD38"/>
<path fill-rule="evenodd" clip-rule="evenodd" d="M164.51 73.3581C167.323 71.2496 169.603 68.5128 171.17 65.3659C172.737 62.219 173.548 58.7493 173.536 55.2337C170.847 54.4057 166.443 54.0349 163.743 54.7242C163.762 56.4932 163.418 58.2474 162.73 59.8774C162.043 61.5074 161.027 62.9783 159.747 64.1985C161.81 66.626 163.585 70.2899 164.51 73.3581V73.3581Z" fill="#61993B"/>
<path fill-rule="evenodd" clip-rule="evenodd" d="M145.789 7.25537C147.732 10.2942 149.003 13.7137 149.516 17.2844C150.029 20.855 149.772 24.494 148.763 27.9572C147.804 27.972 146.848 28.0433 145.898 28.1707C144.391 24.8934 143.602 21.3319 143.584 17.7248C143.565 14.1177 144.317 10.5482 145.789 7.25537V7.25537Z" fill="#DE5307"/>
<path fill-rule="evenodd" clip-rule="evenodd" d="M174.393 13.729C174.16 17.3286 173.161 20.8369 171.461 24.0184C169.762 27.1999 167.402 29.9811 164.54 32.1756C163.758 31.6201 162.944 31.111 162.102 30.6509C162.826 27.1166 164.297 23.7781 166.417 20.8595C168.537 17.9409 171.257 15.5097 174.393 13.729V13.729Z" fill="#DE5307"/>
<path fill-rule="evenodd" clip-rule="evenodd" d="M193.826 36.3301C191.498 39.0844 188.607 41.3083 185.348 42.8526C182.09 44.3969 178.538 45.2258 174.933 45.2837C174.632 44.3725 174.282 43.4783 173.884 42.6051C176.57 40.1986 179.738 38.3938 183.177 37.3116C186.617 36.2294 190.247 35.8948 193.826 36.3301V36.3301Z" fill="#DE5307"/>
<path fill-rule="evenodd" clip-rule="evenodd" d="M195.703 66.5287C192.2 67.3857 188.554 67.4831 185.011 66.8144C181.467 66.1456 178.107 64.7262 175.157 62.6514C175.452 61.7393 175.695 60.8112 175.884 59.8716C179.471 59.5019 183.096 59.9047 186.514 61.0529C189.933 62.2012 193.066 64.0683 195.703 66.5287V66.5287Z" fill="#DE5307"/>
<path fill-rule="evenodd" clip-rule="evenodd" d="M141.864 58.6278C142.987 62.2242 147.747 64.3109 150.822 64.3146C163.795 64.3483 160.477 52.8023 155.058 55.6083C152.387 56.9944 152.11 60.0064 148.316 60.5908C146.148 60.928 143.822 60.1113 141.853 58.6278H141.864Z" fill="#0089B6"/>
<path fill-rule="evenodd" clip-rule="evenodd" d="M148.365 58.0359C150.672 58.2382 152.968 56.0054 153.683 54.2596C156.717 46.8795 149.377 46.0853 149.714 49.824C149.882 51.6672 151.53 52.5251 150.987 54.8141C150.676 56.1253 149.669 57.2641 148.365 58.0359Z" fill="#0089B6"/>
<path fill-rule="evenodd" clip-rule="evenodd" d="M141.145 76.936C147.841 78.9439 155.455 78.382 161.698 75.1153C161.02 72.2569 159.117 68.2221 157.159 66.0605C153.916 67.7416 150.239 68.395 146.616 67.9337C146.156 70.084 142.796 74.9542 141.145 76.9472V76.936Z" fill="#F1DD38"/>
<path fill-rule="evenodd" clip-rule="evenodd" d="M149.084 55.6121C149.991 54.2747 149.407 52.1206 148.586 51.0904C145.118 46.7372 142.149 50.9405 144.538 52.0045C145.718 52.5289 146.785 51.8134 148.01 52.9223C148.358 53.2768 148.633 53.6973 148.817 54.1591C149.002 54.6209 149.093 55.1148 149.084 55.6121V55.6121Z" fill="#0089B6"/>
<path d="M11.1261 59.9777C10.9562 59.9819 10.7872 59.9508 10.6299 59.8863C10.4726 59.8218 10.3304 59.7254 10.2123 59.6031C10.0912 59.4818 9.99558 59.3374 9.93125 59.1784C9.86692 59.0195 9.83514 58.8492 9.8378 58.6778V44.442C9.83514 44.2705 9.86692 44.1003 9.93125 43.9413C9.99558 43.7824 10.0912 43.638 10.2123 43.5167C10.3304 43.3944 10.4726 43.2979 10.6299 43.2334C10.7872 43.169 10.9562 43.1378 11.1261 43.142H11.7478C11.9193 43.1383 12.0898 43.1696 12.2489 43.234C12.4079 43.2984 12.5522 43.3946 12.6728 43.5167C12.7982 43.6357 12.8978 43.7793 12.9655 43.9385C13.0331 44.0977 13.0674 44.269 13.066 44.442V49.6418C13.066 49.7804 13.126 49.8516 13.2495 49.8516H19.0282C19.1518 49.8516 19.2117 49.7804 19.2117 49.6418V44.4195C19.2184 44.0719 19.3594 43.7404 19.6052 43.4945C19.851 43.2486 20.1824 43.1076 20.5299 43.1008H21.1516C21.3216 43.0966 21.4905 43.1278 21.6478 43.1922C21.8051 43.2567 21.9473 43.3532 22.0654 43.4755C22.1866 43.5968 22.2821 43.7412 22.3465 43.9001C22.4108 44.0591 22.4426 44.2293 22.4399 44.4008V58.6366C22.4426 58.808 22.4108 58.9783 22.3465 59.1372C22.2821 59.2962 22.1866 59.4406 22.0654 59.5619C21.9473 59.6842 21.8051 59.7806 21.6478 59.8451C21.4905 59.9096 21.3216 59.9407 21.1516 59.9365H20.5299C20.1824 59.9298 19.851 59.7887 19.6052 59.5429C19.3594 59.297 19.2184 58.9655 19.2117 58.6178V52.5339C19.2117 52.3953 19.1518 52.3241 19.0282 52.3241H13.2495C13.126 52.3241 13.066 52.3953 13.066 52.5339V58.659C13.0674 58.832 13.0331 59.0034 12.9655 59.1626C12.8978 59.3217 12.7982 59.4653 12.6728 59.5844C12.5522 59.7064 12.4079 59.8026 12.2489 59.867C12.0898 59.9314 11.9193 59.9627 11.7478 59.959L11.1261 59.9777ZM31.5292 54.1973C29.3271 54.1973 28.226 54.8753 28.226 56.2315C28.2065 56.6726 28.3597 57.104 28.653 57.434C28.7921 57.5851 28.9621 57.7045 29.1514 57.784C29.3408 57.8635 29.545 57.9013 29.7503 57.8948C30.1421 57.9114 30.5332 57.8471 30.8992 57.706C31.2652 57.5648 31.5982 57.3498 31.8775 57.0744C32.1559 56.773 32.371 56.4187 32.5099 56.0326C32.6489 55.6465 32.7089 55.2364 32.6864 54.8266V54.4108C32.6901 54.3824 32.6872 54.3535 32.6779 54.3263C32.6687 54.2992 32.6534 54.2746 32.6331 54.2543C32.6128 54.234 32.5882 54.2187 32.5611 54.2095C32.534 54.2002 32.5051 54.1973 32.4767 54.201L31.5292 54.1973ZM28.9076 60.1913C28.4284 60.2086 27.9506 60.1279 27.5037 59.954C27.0568 59.78 26.6501 59.5166 26.3086 59.1798C25.9411 58.7758 25.6613 58.3002 25.4867 57.7827C25.312 57.2653 25.2464 56.7173 25.2939 56.1732C25.3414 55.6291 25.501 55.1008 25.7626 54.6215C26.0243 54.1421 26.3823 53.7222 26.8141 53.3881C27.8403 52.6388 29.4082 52.2642 31.5179 52.2642H32.4654C32.4938 52.2679 32.5227 52.265 32.5498 52.2557C32.577 52.2465 32.6016 52.2311 32.6219 52.2109C32.6421 52.1906 32.6575 52.166 32.6667 52.1388C32.6759 52.1117 32.6788 52.0828 32.6752 52.0544V51.8708C32.6752 51.1628 32.5029 50.6645 32.1658 50.3723C31.8288 50.0801 31.2258 49.9452 30.3607 49.9452C29.2519 49.9759 28.1506 50.1382 27.08 50.4285C26.9525 50.4672 26.8174 50.4737 26.6867 50.4476C26.5561 50.4215 26.4339 50.3634 26.331 50.2787C26.2202 50.1984 26.1305 50.0923 26.0698 49.9696C26.0091 49.8469 25.9793 49.7112 25.9827 49.5744C25.9854 49.2325 26.0999 48.901 26.3086 48.6303C26.5096 48.3557 26.8087 48.1692 27.1437 48.1096C28.2276 47.8636 29.3354 47.738 30.4469 47.735C32.4217 47.735 33.7949 48.0896 34.5664 48.7989C35.3379 49.5082 35.7311 50.7494 35.7461 52.5227V58.6703C35.7488 58.8417 35.717 59.012 35.6527 59.1709C35.5883 59.3299 35.4927 59.4743 35.3716 59.5956C35.2541 59.7176 35.1125 59.8139 34.9558 59.8784C34.7992 59.9429 34.6309 59.9741 34.4615 59.9702H34.2106C34.0357 59.9744 33.8617 59.9434 33.6989 59.8791C33.5361 59.8147 33.3879 59.7183 33.2631 59.5956C33.1355 59.4746 33.0331 59.3296 32.9618 59.1689C32.8904 59.0081 32.8516 58.8349 32.8474 58.659V58.3369C32.8474 58.3369 32.8474 58.3106 32.825 58.3106C32.8025 58.3106 32.7763 58.3106 32.7763 58.3369C32.3358 58.9412 31.7537 59.428 31.0811 59.7546C30.4085 60.0813 29.666 60.2376 28.9189 60.21L28.9076 60.1913ZM48.8014 52.4702V57.3404C48.8002 57.3985 48.8213 57.4549 48.8602 57.498C48.8992 57.5412 48.9532 57.5679 49.0111 57.5726C49.5159 57.6462 50.0252 57.685 50.5353 57.6888C51.8161 57.6888 52.7524 57.454 53.3441 56.9845C53.9358 56.5149 54.2317 55.7944 54.2317 54.8229C54.2549 54.441 54.1711 54.0603 53.9898 53.7234C53.8086 53.3866 53.537 53.107 53.2056 52.916C52.5202 52.5077 51.3817 52.3016 49.7976 52.3016H48.9886C48.9635 52.298 48.9379 52.3002 48.9138 52.3081C48.8897 52.3159 48.8677 52.3293 48.8495 52.347C48.8314 52.3648 48.8176 52.3865 48.8093 52.4105C48.8009 52.4344 48.7982 52.46 48.8014 52.4852V52.4702ZM48.8014 45.727V49.6793C48.8014 49.8179 48.865 49.8853 48.9886 49.8853H49.659C51.0896 49.8853 52.1257 49.6893 52.7674 49.2971C53.0711 49.1212 53.321 48.8656 53.4899 48.5579C53.6589 48.2502 53.7406 47.9022 53.7261 47.5514C53.7478 47.2332 53.6868 46.9149 53.5489 46.6273C53.4111 46.3398 53.2012 46.0928 52.9397 45.9105C52.4154 45.5534 51.5602 45.3761 50.3743 45.3786C49.9106 45.3726 49.4473 45.404 48.9886 45.4722C48.931 45.4832 48.8797 45.5155 48.845 45.5628C48.8102 45.61 48.7947 45.6687 48.8014 45.727ZM46.9064 60.0227C46.7285 60.0104 46.555 59.9619 46.3966 59.8801C46.2381 59.7983 46.0981 59.6849 45.9851 59.5469C45.7408 59.2699 45.6074 58.9123 45.6106 58.5429V44.5357C45.6065 44.165 45.7399 43.8059 45.9851 43.5279C46.1026 43.3889 46.2472 43.2753 46.4102 43.1941C46.5731 43.1129 46.7509 43.0659 46.9326 43.0559C48.0295 42.9352 49.1322 42.8739 50.2357 42.8723C54.55 42.8723 56.7072 44.2822 56.7072 47.1018C56.7183 48.0101 56.379 48.8876 55.7597 49.5519C55.0975 50.2533 54.2243 50.719 53.273 50.8781C53.2699 50.8773 53.2666 50.8774 53.2636 50.8783C53.2605 50.8792 53.2578 50.8808 53.2555 50.8831C53.2533 50.8853 53.2516 50.8881 53.2507 50.8912C53.2499 50.8942 53.2498 50.8974 53.2505 50.9005C53.2505 50.9305 53.258 50.9455 53.273 50.9455C54.3923 51.0623 55.4391 51.5548 56.2428 52.3429C56.5965 52.7092 56.8736 53.1424 57.0582 53.6171C57.2427 54.0918 57.3309 54.5985 57.3176 55.1076C57.3176 56.8009 56.7634 58.0721 55.6548 58.9213C54.5463 59.7704 52.8211 60.1938 50.4792 60.1913C49.2896 60.191 48.1009 60.1297 46.9176 60.0077L46.9064 60.0227ZM66.7552 50.9268C66.5057 50.6265 66.1931 50.3848 65.8397 50.219C65.4863 50.0532 65.1007 49.9672 64.7104 49.9672C64.32 49.9672 63.9345 50.0532 63.5811 50.219C63.2277 50.3848 62.9151 50.6265 62.6656 50.9268C62.2087 51.5674 61.984 52.5789 61.984 53.965C61.984 55.3511 62.2087 56.3663 62.6656 57.0069C62.9151 57.3072 63.2277 57.5489 63.5811 57.7147C63.9345 57.8806 64.32 57.9665 64.7104 57.9665C65.1007 57.9665 65.4863 57.8806 65.8397 57.7147C66.1931 57.5489 66.5057 57.3072 66.7552 57.0069C67.2083 56.3663 67.4368 55.3548 67.4368 53.965C67.4368 52.5751 67.2083 51.5674 66.7552 50.9268ZM69.0209 58.5766C67.9948 59.663 66.5579 60.2062 64.7104 60.2062C62.8628 60.2062 61.426 59.663 60.3998 58.5766C59.3936 57.4902 58.8906 55.953 58.8906 53.965C58.8906 51.977 59.4024 50.4398 60.426 49.3533C61.4522 48.2669 62.889 47.7237 64.7366 47.7237C66.5842 47.7237 68.021 48.2669 69.0472 49.3533C70.0683 50.4398 70.5801 51.977 70.5826 53.965C70.5851 55.953 70.0733 57.4902 69.0472 58.5766H69.0209ZM72.9121 60.1163C72.7668 60.133 72.6197 60.1167 72.4816 60.0687C72.3435 60.0207 72.218 59.9423 72.1144 59.8391C72.0075 59.7381 71.9226 59.6161 71.8653 59.4807C71.8079 59.3453 71.7792 59.1995 71.781 59.0524C71.7824 58.7429 71.9016 58.4455 72.1144 58.2207C72.3325 57.9777 72.6202 57.8077 72.9383 57.7337C73.237 57.6726 73.5158 57.5377 73.7493 57.3415C73.9828 57.1452 74.1636 56.8937 74.2753 56.6098C74.5074 56.0404 74.6235 55.0589 74.6235 53.6728V49.2747C74.6303 48.927 74.7713 48.5955 75.0171 48.3497C75.2629 48.1038 75.5943 47.9627 75.9418 47.956H83.1024C83.4499 47.9627 83.7813 48.1038 84.0271 48.3497C84.2729 48.5955 84.4139 48.927 84.4206 49.2747V58.659C84.4139 59.0067 84.2729 59.3382 84.0271 59.5841C83.7813 59.8299 83.4499 59.971 83.1024 59.9777H82.6866C82.3398 59.9701 82.0093 59.8285 81.7643 59.5828C81.5193 59.337 81.3788 59.006 81.3721 58.659V50.4772C81.3758 50.4488 81.3729 50.4199 81.3637 50.3928C81.3544 50.3657 81.3391 50.341 81.3188 50.3207C81.2986 50.3005 81.2739 50.2851 81.2468 50.2759C81.2197 50.2666 81.1908 50.2637 81.1624 50.2674H77.7919C77.6683 50.2674 77.6084 50.3386 77.6084 50.4772V54.1298C77.6084 56.1603 77.2738 57.6126 76.6047 58.4867C75.9356 59.3608 74.7059 59.9041 72.9158 60.1163H72.9121ZM88.9034 59.9777C88.7341 59.9819 88.5657 59.9507 88.409 59.8862C88.2523 59.8217 88.1108 59.7253 87.9934 59.6031C87.8723 59.4818 87.7767 59.3374 87.7123 59.1784C87.648 59.0195 87.6162 58.8492 87.6189 58.6778V49.2747C87.6162 49.1032 87.648 48.933 87.7123 48.774C87.7767 48.6151 87.8723 48.4707 87.9934 48.3493C88.1092 48.2238 88.25 48.1239 88.4067 48.0561C88.5635 47.9883 88.7327 47.9542 88.9034 47.956H89.4128C89.7603 47.9627 90.0917 48.1038 90.3375 48.3497C90.5833 48.5955 90.7243 48.927 90.731 49.2747V52.3766C90.7265 52.4047 90.7287 52.4334 90.7375 52.4605C90.7463 52.4875 90.7613 52.5121 90.7814 52.5322C90.8015 52.5523 90.8261 52.5674 90.8531 52.5761C90.8802 52.5849 90.9089 52.5871 90.937 52.5826H94.8431C94.8712 52.5871 94.8999 52.5849 94.927 52.5761C94.954 52.5674 94.9786 52.5523 94.9987 52.5322C95.0188 52.5121 95.0339 52.4875 95.0426 52.4605C95.0514 52.4334 95.0536 52.4047 95.0491 52.3766V49.2784C95.0558 48.9308 95.1968 48.5993 95.4426 48.3534C95.6884 48.1075 96.0198 47.9664 96.3674 47.9597H96.8767C97.048 47.9582 97.2177 47.9923 97.375 48.0601C97.5324 48.1278 97.6738 48.2276 97.7905 48.3531C97.9111 48.4748 98.0063 48.6193 98.0706 48.7781C98.1349 48.937 98.167 49.107 98.165 49.2784V58.6628C98.167 58.8342 98.1349 59.0042 98.0706 59.1631C98.0063 59.3219 97.9111 59.4664 97.7905 59.5881C97.6722 59.7102 97.53 59.8065 97.3727 59.871C97.2155 59.9355 97.0466 59.9667 96.8767 59.9627H96.3674C96.0198 59.956 95.6884 59.8149 95.4426 59.5691C95.1968 59.3232 95.0558 58.9917 95.0491 58.6441V54.9615C95.0534 54.9333 95.0511 54.9044 95.0424 54.8773C95.0336 54.8501 95.0186 54.8253 94.9986 54.805C94.9786 54.7846 94.9542 54.7692 94.9272 54.7599C94.9002 54.7507 94.8714 54.7479 94.8431 54.7517H90.9632C90.9349 54.7479 90.9062 54.7507 90.8792 54.7599C90.8522 54.7692 90.8277 54.7846 90.8077 54.805C90.7877 54.8253 90.7727 54.8501 90.764 54.8773C90.7552 54.9044 90.7529 54.9333 90.7572 54.9615V58.659C90.7505 59.0067 90.6095 59.3382 90.3637 59.5841C90.1179 59.8299 89.7865 59.971 89.439 59.9777H88.9034ZM106.236 49.8628C105.904 49.8414 105.572 49.8889 105.26 50.0024C104.948 50.1159 104.663 50.2929 104.423 50.5222C104.001 50.9592 103.735 51.6648 103.625 52.6388C103.621 52.6638 103.624 52.6893 103.631 52.7133C103.639 52.7373 103.653 52.7592 103.671 52.777C103.688 52.7949 103.71 52.8083 103.734 52.8162C103.758 52.8241 103.784 52.8262 103.809 52.8224H108.34C108.365 52.8262 108.391 52.8241 108.415 52.8162C108.439 52.8083 108.461 52.7949 108.478 52.777C108.496 52.7592 108.51 52.7373 108.518 52.7133C108.526 52.6893 108.528 52.6638 108.524 52.6388C108.461 50.7882 107.699 49.8628 106.236 49.8628ZM106.827 60.2062C104.81 60.2062 103.258 59.6793 102.172 58.6253C101.086 57.5714 100.543 56.0179 100.543 53.965C100.543 51.9295 101.029 50.3811 102 49.3196C102.971 48.2582 104.373 47.7262 106.206 47.7237C109.624 47.7237 111.38 49.6655 111.475 53.5492C111.486 53.7233 111.456 53.8976 111.388 54.0583C111.319 54.2189 111.215 54.3614 111.082 54.4745C110.816 54.7185 110.468 54.8524 110.108 54.8491H103.831C103.693 54.8491 103.64 54.9165 103.67 55.0551C103.779 56.0891 104.12 56.8384 104.696 57.3029C105.273 57.7674 106.101 57.996 107.202 57.996C107.984 57.9825 108.761 57.8666 109.512 57.6513C109.643 57.6111 109.782 57.6027 109.917 57.6268C110.052 57.6509 110.179 57.7068 110.288 57.7899C110.401 57.8656 110.493 57.969 110.555 58.0903C110.618 58.2116 110.648 58.3467 110.644 58.483C110.649 58.8213 110.539 59.1514 110.333 59.4195C110.134 59.6848 109.84 59.8622 109.512 59.914C108.631 60.1021 107.732 60.1951 106.831 60.1913L106.827 60.2062Z" fill="#0089B6"/>
<path d="M15.809 70.826C15.803 70.8377 15.7999 70.8506 15.7999 70.8637C15.7999 70.8768 15.803 70.8897 15.809 70.9014C15.8157 70.912 15.8249 70.9209 15.8358 70.9275C15.8467 70.934 15.859 70.938 15.8718 70.939H17.9796C17.9932 70.9387 18.0065 70.9351 18.0183 70.9285C18.0301 70.922 18.04 70.9126 18.0472 70.9014C18.0532 70.8897 18.0563 70.8768 18.0563 70.8637C18.0563 70.8506 18.0532 70.8377 18.0472 70.826L16.9305 66.9459L15.8138 70.826H15.809ZM13.6384 74.4377C13.556 74.441 13.474 74.4237 13.4004 74.3874C13.3268 74.3512 13.2639 74.2972 13.2178 74.2305C13.1654 74.1645 13.132 74.0861 13.121 74.0034C13.1099 73.9206 13.1217 73.8365 13.155 73.7597L15.78 66.0701C15.8572 65.8814 15.988 65.7181 16.157 65.5992C16.3237 65.4796 16.5253 65.4152 16.7323 65.4156H17.1916C17.4035 65.4122 17.6107 65.4767 17.7814 65.5992C17.9489 65.7162 18.0755 65.8806 18.1439 66.0701L20.7738 73.7597C20.8064 73.8369 20.8173 73.9213 20.8054 74.004C20.7935 74.0868 20.7592 74.165 20.7061 74.2305C20.6604 74.2965 20.5983 74.35 20.5256 74.3863C20.4529 74.4225 20.372 74.4402 20.2903 74.4377H19.8069C19.6021 74.4381 19.403 74.3718 19.2413 74.2494C19.0773 74.132 18.9555 73.9672 18.8932 73.7785L18.4872 72.3658C18.4872 72.2999 18.434 72.2669 18.347 72.2669H15.5044C15.4725 72.2628 15.4401 72.2707 15.4141 72.2891C15.388 72.3075 15.3701 72.335 15.3642 72.3658L14.9581 73.7785C14.9019 73.9676 14.7829 74.1332 14.6197 74.2494C14.4547 74.3725 14.2523 74.4388 14.0445 74.4377H13.6384ZM27.0535 74.4377C26.9628 74.4363 26.8733 74.4172 26.7903 74.3816C26.7073 74.346 26.6324 74.2947 26.5701 74.2305C26.5026 74.166 26.4491 74.0891 26.4126 74.0042C26.376 73.9193 26.3573 73.8282 26.3573 73.7361V66.1172C26.362 65.9391 26.4384 65.77 26.5701 65.6463C26.6315 65.5807 26.7061 65.528 26.7892 65.4916C26.8724 65.4551 26.9623 65.4357 27.0535 65.4344H27.3967C27.5875 65.4392 27.7691 65.5151 27.9041 65.6466C28.039 65.778 28.117 65.9549 28.1219 66.1407V69.3428L30.6744 66.0042C30.7981 65.8124 30.9712 65.6555 31.1764 65.5489C31.3816 65.4424 31.6118 65.3899 31.8442 65.3967H32.4775C32.5443 65.3947 32.6102 65.4125 32.6664 65.4478C32.7225 65.4832 32.7662 65.5343 32.7918 65.5945C32.8256 65.65 32.8405 65.7145 32.8344 65.7788C32.8284 65.8431 32.8016 65.9038 32.7579 65.9524L29.8574 69.6347C29.8365 69.6592 29.8251 69.69 29.8251 69.7218C29.8251 69.7536 29.8365 69.7844 29.8574 69.8089L32.8933 73.8727C32.9389 73.9229 32.9672 73.9858 32.9742 74.0526C32.9811 74.1193 32.9663 74.1865 32.932 74.2447C32.9044 74.3064 32.8582 74.3584 32.7994 74.3937C32.7407 74.4291 32.6722 74.4461 32.6032 74.4424H31.9699C31.7446 74.4529 31.5203 74.4058 31.3194 74.3058C31.1184 74.2059 30.9477 74.0566 30.8242 73.8727L28.1315 70.1668V73.7408C28.1278 73.9266 28.05 74.1036 27.9147 74.2345C27.7794 74.3655 27.5971 74.44 27.4064 74.4424L27.0535 74.4377ZM40.4106 70.4305V73.0298C40.4099 73.0452 40.4124 73.0607 40.4179 73.0752C40.4234 73.0897 40.4318 73.1031 40.4425 73.1144C40.4533 73.1258 40.4663 73.135 40.4807 73.1415C40.4951 73.148 40.5107 73.1516 40.5266 73.1522C40.8035 73.1924 41.083 73.2129 41.3629 73.2134C41.9056 73.2575 42.448 73.125 42.9051 72.8367C43.0735 72.6953 43.2052 72.517 43.2892 72.3165C43.3732 72.116 43.4073 71.8989 43.3885 71.6831C43.4017 71.4782 43.3558 71.2739 43.2558 71.0933C43.1558 70.9127 43.0058 70.763 42.8229 70.6612C42.2378 70.3993 41.5942 70.2859 40.952 70.3316H40.4928C40.4791 70.3301 40.4652 70.3316 40.4522 70.3361C40.4391 70.3405 40.4273 70.3478 40.4176 70.3572C40.4078 70.3667 40.4004 70.3783 40.3958 70.3909C40.3913 70.4036 40.3897 70.4171 40.3912 70.4305H40.4106ZM40.4106 66.8188V68.9378C40.4106 69.0084 40.4444 69.0461 40.5121 69.0461H40.8795C41.4668 69.0873 42.055 68.9786 42.586 68.7306C42.7548 68.6366 42.8935 68.4988 42.9865 68.3325C43.0796 68.1662 43.1233 67.9779 43.1129 67.7888C43.1255 67.6183 43.0924 67.4476 43.017 67.2933C42.9416 67.139 42.8264 67.0063 42.6827 66.9083C42.2503 66.6873 41.7628 66.5894 41.2759 66.6257C41.0203 66.6235 40.7649 66.6408 40.5121 66.6775C40.4814 66.6833 40.4539 66.6999 40.4352 66.7243C40.4164 66.7487 40.4076 66.779 40.4106 66.8094V66.8188ZM39.3712 74.4613C39.2736 74.4554 39.1783 74.4302 39.0911 74.3873C39.0038 74.3444 38.9264 74.2847 38.8636 74.2117C38.73 74.0616 38.6578 73.8688 38.6606 73.6702V66.1784C38.6567 65.981 38.7291 65.7893 38.8636 65.6416C38.9279 65.5684 39.0071 65.5088 39.0961 65.4667C39.1851 65.4246 39.282 65.4008 39.3809 65.3967C39.9845 65.3321 40.5913 65.2991 41.1986 65.2979C43.5674 65.2979 44.7518 66.0513 44.7518 67.5581C44.76 68.0447 44.5747 68.5155 44.2345 68.8719C43.8704 69.2514 43.3877 69.5031 42.8616 69.5876C43.4761 69.6498 44.0506 69.9139 44.4907 70.3363C44.6861 70.5317 44.8394 70.7631 44.9415 71.017C45.0436 71.271 45.0925 71.5423 45.0853 71.8149C45.1122 72.2017 45.0427 72.5891 44.8828 72.9441C44.7228 73.2991 44.4772 73.6112 44.1668 73.8538C43.5577 74.3059 42.6102 74.5319 41.3243 74.5319C40.6784 74.5308 40.033 74.4978 39.3905 74.433L39.3712 74.4613ZM52.9072 70.826C52.9036 70.8385 52.9028 70.8515 52.9049 70.8642C52.907 70.877 52.9118 70.8891 52.9192 70.8999C52.9265 70.9106 52.9362 70.9197 52.9474 70.9264C52.9587 70.9332 52.9714 70.9375 52.9845 70.939H55.0923C55.105 70.938 55.1174 70.934 55.1283 70.9275C55.1392 70.9209 55.1484 70.912 55.1551 70.9014C55.1648 70.8772 55.1648 70.8503 55.1551 70.826L54.0287 66.9459L52.912 70.826H52.9072ZM50.7366 74.4377C50.6542 74.441 50.5722 74.4237 50.4986 74.3874C50.425 74.3512 50.3621 74.2972 50.316 74.2305C50.2636 74.1645 50.2302 74.0861 50.2192 74.0034C50.2081 73.9206 50.2199 73.8365 50.2532 73.7597L52.883 66.0701C52.9584 65.8818 53.0876 65.7184 53.2552 65.5992C53.4232 65.4786 53.6267 65.4142 53.8354 65.4156H54.2898C54.5017 65.4122 54.7089 65.4767 54.8796 65.5992C55.0471 65.7162 55.1737 65.8806 55.2421 66.0701L57.872 73.7597C57.9053 73.8365 57.917 73.9206 57.9059 74.0034C57.8949 74.0861 57.8615 74.1645 57.8091 74.2305C57.763 74.2972 57.7001 74.3512 57.6265 74.3874C57.5529 74.4237 57.471 74.441 57.3885 74.4377H56.9293C56.7245 74.4381 56.5254 74.3718 56.3637 74.2494C56.1997 74.132 56.0779 73.9672 56.0156 73.7785L55.6047 72.3658C55.6047 72.2999 55.5515 72.2669 55.4693 72.2669H52.5784C52.5467 72.2639 52.5149 72.2723 52.4891 72.2905C52.4633 72.3087 52.4452 72.3355 52.4382 72.3658L52.0322 73.7785C51.9779 73.9672 51.8605 74.1329 51.6986 74.2494C51.5312 74.3716 51.3277 74.4377 51.1185 74.4377H50.7366ZM64.1565 74.4377C64.0658 74.4363 63.9764 74.4172 63.8934 74.3816C63.8104 74.346 63.7355 74.2947 63.6731 74.2305C63.6063 74.1658 63.5535 74.0887 63.5178 74.0038C63.4821 73.9189 63.4642 73.8279 63.4652 73.7361V66.1172C63.4681 65.9397 63.5428 65.7704 63.6731 65.6463C63.7347 65.5809 63.8093 65.5284 63.8925 65.492C63.9756 65.4555 64.0654 65.4359 64.1565 65.4344H69.6676C69.7588 65.4357 69.8487 65.4551 69.9318 65.4916C70.015 65.528 70.0896 65.5807 70.151 65.6463C70.2827 65.77 70.3591 65.9391 70.3637 66.1172V73.7361C70.3638 73.8282 70.345 73.9193 70.3085 74.0042C70.272 74.0891 70.2184 74.166 70.151 74.2305C70.0886 74.2947 70.0138 74.346 69.9307 74.3816C69.8477 74.4172 69.7583 74.4363 69.6676 74.4377H69.3244C69.1336 74.4353 68.9514 74.3608 68.816 74.2298C68.6807 74.0989 68.603 73.9219 68.5992 73.7361V66.9177C68.5992 66.8471 68.5654 66.8094 68.4977 66.8094H65.3216C65.2539 66.8094 65.2201 66.8471 65.2201 66.9177V73.7361C65.2188 73.9218 65.1425 74.0995 65.0077 74.2309C64.8729 74.3622 64.6904 74.4365 64.4998 74.4377H64.1565ZM78.7657 70.826C78.756 70.8503 78.756 70.8772 78.7657 70.9014C78.7724 70.912 78.7816 70.9209 78.7925 70.9275C78.8034 70.934 78.8158 70.938 78.8285 70.939H80.9363C80.9494 70.9375 80.9621 70.9332 80.9734 70.9264C80.9846 70.9197 80.9943 70.9106 81.0016 70.8999C81.009 70.8891 81.0138 70.877 81.0159 70.8642C81.018 70.8515 81.0172 70.8385 81.0136 70.826L79.8969 66.9459H79.8679L78.7512 70.826H78.7657ZM76.5951 74.4377C76.5123 74.4391 76.4305 74.4206 76.3567 74.3841C76.2829 74.3476 76.2193 74.294 76.1717 74.228C76.124 74.1621 76.0936 74.0858 76.0832 74.0058C76.0727 73.9258 76.0825 73.8445 76.1117 73.7691L78.7367 66.0795C78.8139 65.8909 78.9447 65.7275 79.1138 65.6086C79.2804 65.489 79.482 65.4246 79.689 65.425H80.1338C80.3457 65.4216 80.553 65.4861 80.7236 65.6086C80.8911 65.7257 81.0177 65.8901 81.0861 66.0795L83.7111 73.7691C83.7403 73.8445 83.7501 73.9258 83.7397 74.0058C83.7292 74.0858 83.6988 74.1621 83.6512 74.228C83.6035 74.294 83.54 74.3476 83.4662 74.3841C83.3924 74.4206 83.3105 74.4391 83.2277 74.4377H82.7733C82.5685 74.4381 82.3694 74.3718 82.2077 74.2494C82.0437 74.132 81.9219 73.9672 81.8596 73.7785L81.4535 72.3658C81.4535 72.2999 81.3955 72.2669 81.3134 72.2669H78.4418C78.4101 72.2639 78.3783 72.2723 78.3525 72.2905C78.3266 72.3087 78.3085 72.3355 78.3016 72.3658L77.8955 73.7785C77.843 73.968 77.7252 74.1343 77.562 74.2494C77.3946 74.3716 77.191 74.4377 76.9818 74.4377H76.5951ZM91.0496 66.8094V69.7901C91.0496 69.8513 91.0834 69.8843 91.1511 69.9031C91.4716 69.945 91.7946 69.9655 92.1179 69.9643C92.6767 70.0021 93.2312 69.8471 93.6843 69.5264C93.8678 69.3716 94.0122 69.1776 94.1061 68.9595C94.2001 68.7414 94.241 68.5052 94.2257 68.2691C94.2257 67.172 93.5199 66.6257 92.1179 66.6257C91.7946 66.6246 91.4716 66.645 91.1511 66.687C91.1216 66.6916 91.095 66.7066 91.0762 66.7292C91.0575 66.7518 91.048 66.7804 91.0496 66.8094V66.8094ZM90.0102 74.4283C89.8273 74.4243 89.6534 74.3498 89.5268 74.2211C89.46 74.1564 89.4072 74.0793 89.3715 73.9944C89.3358 73.9095 89.3179 73.8184 89.3189 73.7267V66.1925C89.3176 65.997 89.3898 65.8077 89.5219 65.6604C89.5837 65.5855 89.6606 65.5238 89.748 65.4793C89.8353 65.4347 89.9312 65.4082 90.0295 65.4014C90.7499 65.3355 91.4412 65.3026 92.1131 65.3026C93.3797 65.3026 94.332 65.5474 94.9702 66.0371C95.2931 66.2928 95.5491 66.6195 95.7172 66.9903C95.8853 67.3612 95.9606 67.7655 95.937 68.1703C95.9714 68.6048 95.9064 69.0413 95.7467 69.4484C95.5871 69.8555 95.3367 70.2231 95.0137 70.5247C94.2371 71.1056 93.2687 71.3888 92.292 71.3205C92.0116 71.3205 91.6442 71.3205 91.1849 71.2687C91.1712 71.2672 91.1574 71.2687 91.1443 71.2731C91.1313 71.2776 91.1195 71.2848 91.1097 71.2943C91.1 71.3038 91.0926 71.3153 91.088 71.328C91.0834 71.3407 91.0819 71.3542 91.0834 71.3676V73.7691C91.0846 73.8613 91.0663 73.9527 91.0298 74.0378C90.9932 74.1228 90.939 74.1997 90.8707 74.2635C90.7429 74.3905 90.5698 74.4647 90.3873 74.4707L90.0102 74.4283ZM102.299 74.4283C102.116 74.4243 101.942 74.3498 101.816 74.2211C101.749 74.1564 101.696 74.0793 101.66 73.9944C101.625 73.9095 101.607 73.8184 101.608 73.7267V66.1172C101.61 65.9397 101.685 65.7704 101.816 65.6463C101.877 65.5811 101.952 65.5287 102.035 65.4923C102.118 65.4559 102.208 65.4362 102.299 65.4344H102.642C102.737 65.4341 102.831 65.4528 102.918 65.4892C103.006 65.5257 103.084 65.5791 103.15 65.6463C103.216 65.7067 103.27 65.7794 103.307 65.8603C103.345 65.9412 103.365 66.0285 103.367 66.1172V69.3192L105.92 65.9806C106.045 65.7994 106.215 65.652 106.415 65.5523C106.614 65.4527 106.837 65.404 107.061 65.4109H107.699C107.765 65.4095 107.831 65.4275 107.887 65.4628C107.943 65.498 107.987 65.5489 108.013 65.6086C108.048 65.6642 108.063 65.7293 108.056 65.7939C108.049 65.8586 108.02 65.9192 107.974 65.9665L105.074 69.6535C105.055 69.679 105.045 69.7094 105.045 69.7406C105.045 69.7719 105.055 69.8023 105.074 69.8278L108.134 73.8679C108.178 73.9188 108.206 73.9817 108.213 74.0481C108.22 74.1145 108.206 74.1814 108.173 74.24C108.144 74.3013 108.098 74.3529 108.039 74.3882C107.981 74.4234 107.913 74.4407 107.844 74.4377H107.206C106.984 74.4449 106.763 74.3962 106.566 74.2964C106.369 74.1966 106.201 74.0491 106.079 73.8679L103.387 70.1621V73.7361C103.387 73.8286 103.368 73.9202 103.33 74.0052C103.293 74.0903 103.238 74.1669 103.169 74.2305C103.103 74.2962 103.024 74.3484 102.937 74.3839C102.85 74.4195 102.756 74.4378 102.662 74.4377L102.299 74.4283Z" fill="#BC4077"/>
</svg>
