<svg width="155" height="161" viewBox="0 0 155 161" fill="none" xmlns="http://www.w3.org/2000/svg">
<path fill-rule="evenodd" clip-rule="evenodd" d="M49.5429 24.4284C32.589 33.6999 24.5433 53.4017 28.6204 71.8252C30.8665 72.0083 33.1239 72.0083 35.37 71.8252C38.1423 71.6672 40.8886 71.2042 43.5585 70.4448C40.1952 58.1681 45.1003 44.8801 56.1554 38.3413C53.2546 34.9951 50.2966 28.7631 49.5429 24.4284Z" fill="white"/>
<path fill-rule="evenodd" clip-rule="evenodd" d="M29.9961 76.7279C32.0128 82.7373 35.2734 88.2593 39.5677 92.9376C43.8619 97.6159 49.0943 101.347 54.9272 103.889C58.3735 100.022 61.2305 95.6737 63.407 90.9816C59.4093 89.735 55.721 87.6632 52.5831 84.9016C49.4452 82.14 46.9283 78.7508 45.1969 74.9555C40.9884 76.4723 34.4672 76.9268 29.9961 76.7279Z" fill="white"/>
<path fill-rule="evenodd" clip-rule="evenodd" d="M49.332 76.3702C51.3618 79.8113 54.1575 82.7437 57.5044 84.9418C60.8514 87.14 64.6603 88.5455 68.6385 89.0502C65.6587 88.0938 62.9773 86.3886 60.8536 84.0997C58.7299 81.8107 57.2358 79.0153 56.5156 75.9838C54.1327 76.2744 51.7323 76.3978 49.332 76.3531V76.3702Z" fill="white"/>
<path fill-rule="evenodd" clip-rule="evenodd" d="M53.1688 44.3746C46.0024 51.2373 43.6384 61.9233 47.0303 71.4845C50.0049 71.6701 52.9904 71.5865 55.9498 71.2346C55.8863 66.5289 57.4779 61.9491 60.4495 58.2875C57.3316 54.8788 54.4422 48.8058 53.1974 44.3746H53.1688Z" fill="white"/>
<path fill-rule="evenodd" clip-rule="evenodd" d="M87.9264 39.7275C78.3388 35.4213 66.4214 35.5633 57.3535 41.0967C58.1187 45.4483 61.088 51.6975 63.9832 55.0493C66.2826 53.5313 68.89 52.5362 71.6199 52.1346C74.3499 51.733 77.1352 51.9348 79.7778 52.7258C81.1483 48.2548 84.6487 43.068 87.9435 39.7275H87.9264Z" fill="white"/>
<path fill-rule="evenodd" clip-rule="evenodd" d="M108.833 67.6893C108.107 62.503 106.264 57.5337 103.43 53.1215C100.595 48.7093 96.8364 44.9583 92.41 42.125C89.2465 44.9258 85.255 50.6181 84.25 54.6686C86.5609 56.0369 88.578 57.8451 90.1859 59.9896C91.7938 62.1342 92.9609 64.573 93.6206 67.1667C98.2231 66.1782 104.23 66.5986 108.833 67.6723V67.6893Z" fill="white"/>
<path fill-rule="evenodd" clip-rule="evenodd" d="M95.4139 100.241C99.702 97.0441 103.18 92.8938 105.569 88.1218C107.958 83.3499 109.193 78.0883 109.176 72.757C105.076 71.5016 98.3604 70.9391 94.2432 71.9844C94.2736 74.667 93.7483 77.3271 92.7001 79.7989C91.6518 82.2707 90.1031 84.5013 88.1504 86.3515C91.2968 90.0328 94.0034 95.5887 95.4139 100.241Z" fill="white"/>
<path fill-rule="evenodd" clip-rule="evenodd" d="M66.8672 0C69.8299 4.60831 71.7673 9.79391 72.5493 15.2086C73.3313 20.6234 72.9398 26.1419 71.4011 31.3937C69.9399 31.4161 68.4812 31.5243 67.0328 31.7175C64.736 26.7475 63.533 21.3466 63.5044 15.8766C63.4759 10.4065 64.6224 4.99347 66.8672 0Z" fill="white"/>
<path fill-rule="evenodd" clip-rule="evenodd" d="M110.483 9.81696C110.128 15.2757 108.604 20.5957 106.013 25.4204C103.421 30.245 99.8234 34.4626 95.4596 37.7905C94.2669 36.9482 93.0257 36.1761 91.7422 35.4783C92.846 30.1187 95.0893 25.056 98.3217 20.6301C101.554 16.2041 105.701 12.5172 110.483 9.81696Z" fill="white"/>
<path fill-rule="evenodd" clip-rule="evenodd" d="M140.114 44.0907C136.564 48.2673 132.156 51.6398 127.187 53.9816C122.218 56.3234 116.803 57.5804 111.306 57.6681C110.847 56.2863 110.314 54.9304 109.707 53.6063C113.802 49.9569 118.633 47.2201 123.877 45.5791C129.121 43.938 134.657 43.4305 140.114 44.0907Z" fill="white"/>
<path fill-rule="evenodd" clip-rule="evenodd" d="M142.975 89.8851C137.634 91.1846 132.075 91.3323 126.672 90.3182C121.269 89.3041 116.146 87.1516 111.648 84.0053C112.098 82.6223 112.468 81.2149 112.756 79.7901C118.226 79.2294 123.752 79.8402 128.965 81.5815C134.177 83.3227 138.954 86.154 142.975 89.8851Z" fill="white"/>
<path fill-rule="evenodd" clip-rule="evenodd" d="M60.8824 77.9039C62.5955 83.3578 69.8532 86.5221 74.5414 86.5278C94.3218 86.5789 89.2625 69.0698 80.9997 73.3249C76.9283 75.4269 76.5057 79.9945 70.7212 80.8808C67.4149 81.3921 63.8688 80.1536 60.8652 77.9039H60.8824Z" fill="white"/>
<path fill-rule="evenodd" clip-rule="evenodd" d="M70.7969 77.0063C74.3144 77.3131 77.8148 73.9272 78.9055 71.2799C83.5308 60.0884 72.3386 58.884 72.8526 64.5536C73.1095 67.3487 75.6221 68.6496 74.7941 72.1207C74.3201 74.109 72.7841 75.836 70.7969 77.0063Z" fill="white"/>
<path fill-rule="evenodd" clip-rule="evenodd" d="M59.7871 105.667C69.9971 108.712 81.6061 107.86 91.1252 102.906C90.0916 98.5715 87.1908 92.453 84.2043 89.175C79.2605 91.7243 73.6536 92.7151 68.1298 92.0155C67.4275 95.2765 62.3053 102.662 59.7871 105.684V105.667Z" fill="white"/>
<path fill-rule="evenodd" clip-rule="evenodd" d="M71.8929 73.3306C73.2748 71.3025 72.384 68.0359 71.1334 66.4736C65.8457 59.8723 61.3175 66.2464 64.9606 67.8598C66.7594 68.6552 68.3868 67.5701 70.2541 69.2517C70.7857 69.7893 71.2044 70.4269 71.4858 71.1272C71.7672 71.8275 71.9056 72.5765 71.8929 73.3306Z" fill="white"/>
<path d="M1.96457 142.19C1.70546 142.196 1.44784 142.149 1.20801 142.051C0.968174 141.954 0.751354 141.807 0.571263 141.622C0.386539 141.438 0.240815 141.219 0.142728 140.978C0.0446402 140.737 -0.00381471 140.479 0.00023436 140.219V118.631C-0.00381471 118.371 0.0446402 118.113 0.142728 117.872C0.240815 117.631 0.386539 117.412 0.571263 117.228C0.751354 117.043 0.968174 116.896 1.20801 116.799C1.44784 116.701 1.70546 116.654 1.96457 116.66H2.91248C3.17405 116.654 3.43403 116.702 3.67654 116.8C3.91905 116.897 4.13899 117.043 4.32292 117.228C4.51415 117.409 4.66604 117.626 4.76918 117.868C4.87232 118.109 4.92451 118.369 4.9225 118.631V126.516C4.9225 126.727 5.01387 126.835 5.20231 126.835H14.0133C14.2017 126.835 14.2931 126.727 14.2931 126.516V118.597C14.3033 118.07 14.5184 117.567 14.8931 117.195C15.2679 116.822 15.7732 116.608 16.3031 116.598H17.251C17.5101 116.591 17.7677 116.638 18.0076 116.736C18.2474 116.834 18.4642 116.98 18.6443 117.166C18.829 117.35 18.9748 117.569 19.0729 117.81C19.1709 118.051 19.2194 118.309 19.2153 118.569V140.156C19.2194 140.416 19.1709 140.674 19.0729 140.915C18.9748 141.157 18.829 141.376 18.6443 141.559C18.4642 141.745 18.2474 141.891 18.0076 141.989C17.7677 142.087 17.5101 142.134 17.251 142.128H16.3031C15.7732 142.117 15.2679 141.903 14.8931 141.531C14.5184 141.158 14.3033 140.655 14.2931 140.128V130.902C14.2931 130.692 14.2017 130.584 14.0133 130.584H5.20231C5.01387 130.584 4.9225 130.692 4.9225 130.902V140.19C4.92451 140.453 4.87232 140.713 4.76918 140.954C4.66604 141.195 4.51415 141.413 4.32292 141.594C4.13899 141.779 3.91905 141.925 3.67654 142.022C3.43403 142.12 3.17405 142.167 2.91248 142.162L1.96457 142.19ZM33.0742 133.424C29.7166 133.424 28.0377 134.453 28.0377 136.509C28.008 137.178 28.2415 137.832 28.6887 138.333C28.9008 138.562 29.1601 138.743 29.4488 138.863C29.7375 138.984 30.0489 139.041 30.3618 139.031C30.9593 139.057 31.5557 138.959 32.1137 138.745C32.6717 138.531 33.1794 138.205 33.6053 137.787C34.0298 137.33 34.3577 136.793 34.5696 136.208C34.7815 135.622 34.873 135 34.8387 134.379V133.748C34.8443 133.705 34.8399 133.661 34.8258 133.62C34.8117 133.579 34.7883 133.542 34.7574 133.511C34.7265 133.48 34.689 133.457 34.6476 133.443C34.6063 133.429 34.5622 133.425 34.5189 133.43L33.0742 133.424ZM29.077 142.514C28.3463 142.54 27.6178 142.418 26.9364 142.154C26.2549 141.89 25.6348 141.491 25.1141 140.98C24.5538 140.367 24.1271 139.646 23.8609 138.862C23.5946 138.077 23.4945 137.246 23.5669 136.421C23.6394 135.596 23.8827 134.795 24.2816 134.068C24.6806 133.341 25.2265 132.704 25.885 132.197C27.4496 131.061 29.8403 130.493 33.0571 130.493H34.5018C34.5451 130.499 34.5891 130.494 34.6305 130.48C34.6718 130.466 34.7094 130.443 34.7403 130.412C34.7712 130.381 34.7946 130.344 34.8087 130.303C34.8228 130.262 34.8272 130.218 34.8216 130.175V129.897C34.8216 128.823 34.5589 128.067 34.045 127.624C33.531 127.181 32.6117 126.977 31.2926 126.977C29.6019 127.023 27.9228 127.269 26.2904 127.709C26.0959 127.768 25.8899 127.778 25.6907 127.738C25.4915 127.699 25.3052 127.611 25.1483 127.482C24.9793 127.36 24.8426 127.2 24.7501 127.014C24.6575 126.827 24.612 126.622 24.6173 126.414C24.6214 125.896 24.7959 125.393 25.1141 124.983C25.4206 124.566 25.8767 124.283 26.3875 124.193C28.0402 123.82 29.7292 123.629 31.4239 123.625C34.4352 123.625 36.5289 124.163 37.7053 125.238C38.8816 126.314 39.4812 128.196 39.504 130.885V140.207C39.508 140.467 39.4596 140.726 39.3615 140.967C39.2634 141.208 39.1177 141.427 38.933 141.611C38.7537 141.796 38.5379 141.942 38.299 142.039C38.0602 142.137 37.8036 142.185 37.5454 142.179H37.1628C36.896 142.185 36.6307 142.138 36.3825 142.04C36.1343 141.943 35.9084 141.797 35.7181 141.611C35.5235 141.427 35.3674 141.207 35.2586 140.963C35.1498 140.72 35.0905 140.457 35.0842 140.19V139.702C35.0842 139.702 35.0842 139.662 35.05 139.662C35.0157 139.662 34.9757 139.662 34.9757 139.702C34.3041 140.618 33.4165 141.357 32.391 141.852C31.3655 142.347 30.2334 142.584 29.0941 142.542L29.077 142.514ZM59.4101 130.806V138.191C59.4083 138.279 59.4404 138.364 59.4998 138.43C59.5592 138.495 59.6415 138.536 59.7298 138.543C60.4996 138.654 61.2761 138.713 62.0539 138.719C64.0068 138.719 65.4344 138.363 66.3366 137.651C67.2389 136.939 67.69 135.846 67.69 134.373C67.7253 133.794 67.5976 133.217 67.3212 132.706C67.0448 132.195 66.6307 131.771 66.1254 131.482C65.0804 130.862 63.3444 130.55 60.929 130.55H59.6956C59.6573 130.544 59.6182 130.548 59.5814 130.56C59.5447 130.572 59.5111 130.592 59.4835 130.619C59.4559 130.646 59.4349 130.679 59.4221 130.715C59.4094 130.751 59.4053 130.79 59.4101 130.828V130.806ZM59.4101 120.58V126.573C59.4101 126.783 59.5071 126.886 59.6956 126.886H60.7177C62.899 126.886 64.4789 126.588 65.4572 125.994C65.9203 125.727 66.3013 125.339 66.559 124.873C66.8166 124.406 66.9411 123.878 66.9191 123.346C66.9521 122.864 66.8591 122.381 66.6489 121.945C66.4388 121.509 66.1187 121.135 65.7199 120.858C64.9205 120.317 63.6166 120.048 61.8084 120.052C61.1014 120.043 60.3949 120.09 59.6956 120.194C59.6077 120.21 59.5295 120.259 59.4765 120.331C59.4236 120.403 59.3998 120.492 59.4101 120.58ZM56.5206 142.258C56.2494 142.24 55.9849 142.166 55.7433 142.042C55.5017 141.918 55.2882 141.746 55.1159 141.537C54.7434 141.117 54.5401 140.574 54.5449 140.014V118.773C54.5387 118.211 54.7421 117.667 55.1159 117.245C55.2951 117.034 55.5156 116.862 55.764 116.739C56.0125 116.616 56.2835 116.545 56.5606 116.529C58.2332 116.346 59.9145 116.253 61.5971 116.251C68.1753 116.251 71.4645 118.389 71.4645 122.665C71.4814 124.042 70.964 125.373 70.0198 126.38C69.0101 127.444 67.6786 128.15 66.2281 128.391C66.2234 128.39 66.2185 128.39 66.2138 128.391C66.2092 128.393 66.2049 128.395 66.2015 128.399C66.1981 128.402 66.1956 128.406 66.1942 128.411C66.1929 128.416 66.1928 128.421 66.1939 128.425C66.1939 128.471 66.2053 128.493 66.2281 128.493C67.9348 128.671 69.5309 129.417 70.7564 130.612C71.2956 131.168 71.7183 131.825 71.9996 132.545C72.281 133.264 72.4155 134.033 72.3952 134.805C72.3952 137.373 71.5501 139.3 69.8599 140.588C68.1696 141.876 65.5391 142.518 61.9683 142.514C60.1545 142.513 58.342 142.421 56.5378 142.236L56.5206 142.258ZM86.7852 128.465C86.4047 128.01 85.9281 127.643 85.3893 127.392C84.8504 127.14 84.2625 127.01 83.6673 127.01C83.0722 127.01 82.4843 127.14 81.9454 127.392C81.4066 127.643 80.93 128.01 80.5495 128.465C79.8529 129.436 79.5103 130.97 79.5103 133.072C79.5103 135.174 79.8529 136.714 80.5495 137.685C80.93 138.14 81.4066 138.507 81.9454 138.758C82.4843 139.01 83.0722 139.14 83.6673 139.14C84.2625 139.14 84.8504 139.01 85.3893 138.758C85.9281 138.507 86.4047 138.14 86.7852 137.685C87.4761 136.714 87.8244 135.18 87.8244 133.072C87.8244 130.965 87.4761 129.436 86.7852 128.465ZM90.2399 140.065C88.6753 141.713 86.4844 142.537 83.6673 142.537C80.8503 142.537 78.6594 141.713 77.0948 140.065C75.5606 138.418 74.7936 136.087 74.7936 133.072C74.7936 130.058 75.574 127.726 77.1348 126.079C78.6994 124.432 80.8902 123.608 83.7073 123.608C86.5244 123.608 88.7152 124.432 90.2799 126.079C91.8369 127.726 92.6173 130.058 92.6211 133.072C92.6249 136.087 91.8445 138.418 90.2799 140.065H90.2399ZM96.1729 142.4C95.9514 142.426 95.7271 142.401 95.5165 142.328C95.306 142.255 95.1146 142.136 94.9566 141.98C94.7936 141.827 94.6643 141.642 94.5768 141.436C94.4893 141.231 94.4456 141.01 94.4484 140.787C94.4505 140.318 94.6322 139.867 94.9566 139.526C95.2893 139.157 95.7279 138.899 96.2128 138.787C96.6684 138.694 97.0935 138.49 97.4495 138.192C97.8055 137.895 98.0811 137.513 98.2514 137.083C98.6055 136.219 98.7825 134.731 98.7825 132.629V125.96C98.7927 125.433 99.0078 124.93 99.3825 124.557C99.7573 124.184 100.263 123.97 100.792 123.96H111.711C112.24 123.97 112.746 124.184 113.121 124.557C113.495 124.93 113.71 125.433 113.721 125.96V140.19C113.71 140.718 113.495 141.22 113.121 141.593C112.746 141.966 112.24 142.18 111.711 142.19H111.077C110.548 142.178 110.044 141.964 109.67 141.591C109.297 141.218 109.083 140.717 109.072 140.19V127.783C109.078 127.74 109.074 127.696 109.06 127.655C109.045 127.614 109.022 127.577 108.991 127.546C108.96 127.515 108.923 127.492 108.881 127.478C108.84 127.464 108.796 127.46 108.753 127.465H103.613C103.425 127.465 103.334 127.573 103.334 127.783V133.322C103.334 136.401 102.823 138.604 101.803 139.929C100.783 141.255 98.9081 142.078 96.1786 142.4H96.1729ZM120.556 142.19C120.298 142.196 120.041 142.149 119.802 142.051C119.563 141.953 119.347 141.807 119.168 141.622C118.983 141.438 118.838 141.219 118.74 140.978C118.642 140.737 118.593 140.479 118.597 140.219V125.96C118.593 125.7 118.642 125.442 118.74 125.201C118.838 124.959 118.983 124.74 119.168 124.557C119.345 124.366 119.559 124.215 119.798 124.112C120.037 124.009 120.295 123.957 120.556 123.96H121.332C121.862 123.97 122.368 124.184 122.742 124.557C123.117 124.93 123.332 125.433 123.342 125.96V130.663C123.336 130.706 123.339 130.75 123.352 130.791C123.366 130.832 123.389 130.869 123.419 130.9C123.45 130.93 123.487 130.953 123.529 130.966C123.57 130.979 123.614 130.983 123.656 130.976H129.612C129.655 130.983 129.699 130.979 129.74 130.966C129.781 130.953 129.819 130.93 129.85 130.9C129.88 130.869 129.903 130.832 129.917 130.791C129.93 130.75 129.933 130.706 129.926 130.663V125.965C129.937 125.438 130.152 124.935 130.526 124.563C130.901 124.19 131.407 123.976 131.936 123.966H132.713C132.974 123.963 133.233 124.015 133.473 124.118C133.713 124.221 133.928 124.372 134.106 124.562C134.29 124.747 134.435 124.966 134.533 125.207C134.632 125.448 134.68 125.706 134.677 125.965V140.196C134.68 140.456 134.632 140.714 134.533 140.955C134.435 141.196 134.29 141.415 134.106 141.599C133.926 141.784 133.709 141.93 133.469 142.028C133.23 142.126 132.972 142.173 132.713 142.167H131.936C131.407 142.157 130.901 141.943 130.526 141.57C130.152 141.198 129.937 140.695 129.926 140.168V134.583C129.933 134.541 129.929 134.497 129.916 134.456C129.903 134.414 129.88 134.377 129.849 134.346C129.819 134.315 129.782 134.292 129.74 134.278C129.699 134.264 129.655 134.259 129.612 134.265H123.696C123.653 134.259 123.609 134.264 123.568 134.278C123.527 134.292 123.49 134.315 123.459 134.346C123.429 134.377 123.406 134.414 123.393 134.456C123.379 134.497 123.376 134.541 123.382 134.583V140.19C123.372 140.718 123.157 141.22 122.782 141.593C122.408 141.966 121.902 142.18 121.372 142.19H120.556ZM146.983 126.852C146.478 126.819 145.971 126.891 145.496 127.063C145.02 127.235 144.585 127.504 144.219 127.851C143.576 128.514 143.17 129.584 143.003 131.061C142.997 131.099 143 131.138 143.012 131.174C143.024 131.211 143.045 131.244 143.072 131.271C143.099 131.298 143.133 131.318 143.169 131.33C143.206 131.342 143.245 131.345 143.283 131.34H150.192C150.23 131.345 150.269 131.342 150.306 131.33C150.342 131.318 150.376 131.298 150.403 131.271C150.43 131.244 150.451 131.211 150.463 131.174C150.475 131.138 150.478 131.099 150.472 131.061C150.377 128.255 149.214 126.852 146.983 126.852ZM147.885 142.537C144.809 142.537 142.443 141.737 140.787 140.139C139.131 138.541 138.303 136.185 138.303 133.072C138.303 129.986 139.044 127.637 140.525 126.028C142.006 124.418 144.143 123.612 146.937 123.608C152.149 123.608 154.827 126.552 154.972 132.442C154.988 132.706 154.943 132.97 154.838 133.214C154.734 133.457 154.575 133.673 154.372 133.845C153.968 134.215 153.437 134.418 152.887 134.413H143.317C143.106 134.413 143.026 134.515 143.071 134.725C143.237 136.293 143.757 137.429 144.636 138.134C145.515 138.838 146.777 139.185 148.456 139.185C149.649 139.164 150.833 138.989 151.98 138.662C152.179 138.601 152.391 138.589 152.596 138.625C152.802 138.662 152.995 138.746 153.162 138.872C153.334 138.987 153.475 139.144 153.57 139.328C153.665 139.512 153.711 139.717 153.704 139.923C153.712 140.436 153.545 140.937 153.23 141.344C152.927 141.746 152.479 142.015 151.98 142.093C150.636 142.379 149.265 142.52 147.891 142.514L147.885 142.537Z" fill="white"/>
<path d="M24.508 156.529C24.5009 156.543 24.4973 156.559 24.4973 156.575C24.4973 156.59 24.5009 156.606 24.508 156.62C24.5159 156.633 24.5268 156.644 24.5397 156.652C24.5526 156.659 24.5671 156.664 24.5822 156.665H27.0719C27.088 156.665 27.1037 156.661 27.1176 156.653C27.1316 156.645 27.1433 156.634 27.1518 156.62C27.1589 156.606 27.1625 156.59 27.1625 156.575C27.1625 156.559 27.1589 156.543 27.1518 156.529L25.8328 151.848L24.5137 156.529H24.508ZM21.944 160.886C21.8467 160.89 21.7499 160.869 21.663 160.826C21.576 160.782 21.5017 160.717 21.4473 160.636C21.3854 160.557 21.3459 160.462 21.3329 160.362C21.3198 160.263 21.3337 160.161 21.373 160.068L24.4737 150.791C24.5649 150.564 24.7194 150.367 24.9191 150.223C25.1159 150.079 25.3541 150.001 25.5986 150.002H26.1411C26.3915 149.998 26.6362 150.075 26.8378 150.223C27.0357 150.365 27.1852 150.563 27.266 150.791L30.3724 160.068C30.411 160.162 30.4239 160.263 30.4098 160.363C30.3958 160.463 30.3553 160.557 30.2925 160.636C30.2385 160.716 30.1652 160.781 30.0793 160.824C29.9934 160.868 29.8978 160.889 29.8014 160.886H29.2304C28.9884 160.887 28.7533 160.807 28.5623 160.659C28.3685 160.518 28.2247 160.319 28.1511 160.091L27.6715 158.387C27.6715 158.307 27.6087 158.267 27.5059 158.267H24.1482C24.1105 158.262 24.0723 158.272 24.0415 158.294C24.0107 158.316 23.9896 158.35 23.9826 158.387L23.503 160.091C23.4365 160.319 23.296 160.519 23.1032 160.659C22.9083 160.808 22.6693 160.888 22.4237 160.886H21.944ZM37.7901 160.886C37.683 160.885 37.5773 160.862 37.4793 160.819C37.3812 160.776 37.2927 160.714 37.2191 160.636C37.1394 160.559 37.0762 160.466 37.033 160.363C36.9899 160.261 36.9677 160.151 36.9678 160.04V150.848C36.9733 150.633 37.0636 150.429 37.2191 150.28C37.2916 150.201 37.3797 150.137 37.478 150.093C37.5762 150.049 37.6824 150.026 37.7901 150.024H38.1955C38.4209 150.03 38.6354 150.122 38.7948 150.28C38.9542 150.439 39.0463 150.652 39.0521 150.877V154.74L42.0671 150.712C42.2133 150.481 42.4177 150.291 42.6601 150.163C42.9025 150.034 43.1744 149.971 43.449 149.979H44.197C44.276 149.977 44.3538 149.998 44.4201 150.041C44.4864 150.083 44.5381 150.145 44.5682 150.218C44.6082 150.285 44.6258 150.362 44.6186 150.44C44.6114 150.517 44.5798 150.591 44.5282 150.649L41.1021 155.092C41.0775 155.121 41.064 155.159 41.064 155.197C41.064 155.235 41.0775 155.272 41.1021 155.302L44.6881 160.205C44.742 160.265 44.7755 160.341 44.7836 160.422C44.7918 160.502 44.7744 160.583 44.7338 160.653C44.7013 160.728 44.6467 160.791 44.5772 160.833C44.5078 160.876 44.427 160.896 44.3455 160.892H43.5975C43.3312 160.905 43.0663 160.848 42.829 160.727C42.5916 160.607 42.39 160.427 42.2441 160.205L39.0635 155.734V160.046C39.0591 160.27 38.9672 160.483 38.8074 160.641C38.6475 160.799 38.4322 160.889 38.2069 160.892L37.7901 160.886ZM53.5676 156.052V159.188C53.5669 159.206 53.5698 159.225 53.5763 159.243C53.5827 159.26 53.5926 159.276 53.6054 159.29C53.6181 159.304 53.6334 159.315 53.6505 159.323C53.6675 159.33 53.6859 159.335 53.7047 159.335C54.0317 159.384 54.3619 159.409 54.6925 159.409C55.3336 159.463 55.9742 159.303 56.5141 158.955C56.7131 158.784 56.8686 158.569 56.9679 158.327C57.0671 158.085 57.1073 157.823 57.0852 157.563C57.1008 157.316 57.0465 157.069 56.9284 156.852C56.8103 156.634 56.6331 156.453 56.417 156.33C55.726 156.014 54.9657 155.877 54.2072 155.933H53.6647C53.6485 155.931 53.6321 155.933 53.6167 155.938C53.6014 155.943 53.5874 155.952 53.5759 155.964C53.5644 155.975 53.5556 155.989 53.5502 156.004C53.5448 156.02 53.543 156.036 53.5448 156.052H53.5676ZM53.5676 154.251C53.5676 154.336 53.6076 154.382 53.6875 154.382H54.1215C54.8153 154.432 55.5101 154.3 56.1372 154.001C56.3366 153.888 56.5004 153.721 56.6103 153.521C56.7203 153.32 56.772 153.093 56.7597 152.865C56.7745 152.659 56.7354 152.453 56.6463 152.267C56.5573 152.081 56.4212 151.921 56.2514 151.803C55.7407 151.536 55.1648 151.418 54.5898 151.462C54.2878 151.459 53.9862 151.48 53.6875 151.524C53.6512 151.531 53.6188 151.551 53.5966 151.581C53.5745 151.61 53.5641 151.647 53.5676 151.683V154.251ZM52.3399 160.915C52.2247 160.908 52.1121 160.877 52.009 160.826C51.9059 160.774 51.8145 160.702 51.7403 160.614C51.5825 160.433 51.4972 160.2 51.5005 159.96V150.922C51.4959 150.684 51.5815 150.453 51.7403 150.274C51.8163 150.186 51.9098 150.114 52.0149 150.063C52.12 150.013 52.2345 149.984 52.3513 149.979C53.0643 149.901 53.7811 149.861 54.4984 149.86C57.2964 149.86 58.6955 150.769 58.6955 152.587C58.7052 153.174 58.4863 153.742 58.0845 154.172C57.6544 154.629 57.0843 154.933 56.4627 155.035C57.1887 155.11 57.8673 155.429 58.3871 155.938C58.6179 156.174 58.7989 156.453 58.9196 156.76C59.0402 157.066 59.098 157.393 59.0895 157.722C59.1212 158.189 59.0391 158.656 58.8502 159.084C58.6613 159.513 58.3712 159.889 58.0045 160.182C57.285 160.727 56.1658 161 54.6469 161C53.884 160.999 53.1216 160.959 52.3627 160.881L52.3399 160.915ZM68.3287 156.529C68.3245 156.544 68.3235 156.56 68.326 156.575C68.3284 156.591 68.3342 156.605 68.3429 156.618C68.3516 156.631 68.363 156.642 68.3763 156.65C68.3896 156.658 68.4045 156.664 68.4201 156.665H70.9098C70.9248 156.664 70.9394 156.659 70.9523 156.652C70.9652 156.644 70.976 156.633 70.984 156.62C70.9955 156.591 70.9955 156.558 70.984 156.529L69.6535 151.848L68.3344 156.529H68.3287ZM65.7648 160.886C65.6674 160.89 65.5707 160.869 65.4837 160.826C65.3967 160.782 65.3225 160.717 65.268 160.636C65.2061 160.557 65.1667 160.462 65.1536 160.362C65.1406 160.263 65.1544 160.161 65.1938 160.068L68.3002 150.791C68.3892 150.564 68.5418 150.367 68.7398 150.223C68.9382 150.078 69.1786 150 69.4251 150.002H69.9619C70.2122 149.998 70.457 150.075 70.6585 150.223C70.8564 150.365 71.0059 150.563 71.0868 150.791L74.1932 160.068C74.2325 160.161 74.2463 160.263 74.2333 160.362C74.2203 160.462 74.1808 160.557 74.1189 160.636C74.0645 160.717 73.9902 160.782 73.9032 160.826C73.8163 160.869 73.7195 160.89 73.6221 160.886H73.0797C72.8377 160.887 72.6026 160.807 72.4116 160.659C72.2178 160.518 72.074 160.319 72.0004 160.091L71.515 158.387C71.515 158.307 71.4522 158.267 71.3552 158.267H67.9404C67.9029 158.264 67.8654 158.274 67.8349 158.296C67.8044 158.318 67.783 158.35 67.7748 158.387L67.2952 160.091C67.231 160.319 67.0924 160.519 66.9011 160.659C66.7035 160.807 66.463 160.886 66.2159 160.886H65.7648ZM81.6165 160.886C81.5094 160.885 81.4038 160.862 81.3057 160.819C81.2077 160.776 81.1192 160.714 81.0455 160.636C80.9666 160.558 80.9043 160.465 80.8621 160.363C80.82 160.26 80.7988 160.151 80.8 160.04V150.848C80.8033 150.634 80.8916 150.43 81.0455 150.28C81.1183 150.201 81.2065 150.138 81.3046 150.094C81.4028 150.05 81.5089 150.026 81.6165 150.024H88.1263C88.234 150.026 88.3402 150.049 88.4384 150.093C88.5366 150.137 88.6247 150.201 88.6973 150.28C88.8528 150.429 88.9431 150.633 88.9485 150.848V160.04C88.9486 160.151 88.9265 160.261 88.8833 160.363C88.8402 160.466 88.7769 160.559 88.6973 160.636C88.6236 160.714 88.5352 160.776 88.4371 160.819C88.3391 160.862 88.2334 160.885 88.1263 160.886H87.7208C87.4956 160.883 87.2802 160.794 87.1204 160.636C86.9606 160.478 86.8687 160.264 86.8643 160.04V151.814C86.8643 151.729 86.8243 151.683 86.7444 151.683H82.9927C82.9128 151.683 82.8728 151.729 82.8728 151.814V160.04C82.8713 160.264 82.7812 160.478 82.6219 160.637C82.4627 160.795 82.2472 160.885 82.022 160.886H81.6165ZM98.873 156.529C98.8616 156.558 98.8616 156.591 98.873 156.62C98.881 156.633 98.8918 156.644 98.9047 156.652C98.9176 156.659 98.9322 156.664 98.9473 156.665H101.437C101.452 156.664 101.467 156.658 101.481 156.65C101.494 156.642 101.505 156.631 101.514 156.618C101.523 156.605 101.529 156.591 101.531 156.575C101.533 156.56 101.533 156.544 101.528 156.529L100.209 151.848H100.175L98.8559 156.529H98.873ZM96.3091 160.886C96.2113 160.888 96.1146 160.866 96.0275 160.822C95.9403 160.778 95.8653 160.713 95.8089 160.633C95.7526 160.554 95.7167 160.462 95.7044 160.365C95.692 160.269 95.7036 160.171 95.7381 160.08L98.8388 150.803C98.93 150.575 99.0845 150.378 99.2842 150.235C99.481 150.09 99.7192 150.013 99.9637 150.013H100.489C100.739 150.009 100.984 150.087 101.186 150.235C101.384 150.376 101.533 150.574 101.614 150.803L104.715 160.08C104.749 160.171 104.761 160.269 104.748 160.365C104.736 160.462 104.7 160.554 104.644 160.633C104.587 160.713 104.512 160.778 104.425 160.822C104.338 160.866 104.241 160.888 104.144 160.886H103.607C103.365 160.887 103.13 160.807 102.939 160.659C102.745 160.518 102.601 160.319 102.528 160.091L102.048 158.387C102.048 158.307 101.979 158.267 101.882 158.267H98.4904C98.4529 158.264 98.4154 158.274 98.3849 158.296C98.3544 158.318 98.333 158.35 98.3248 158.387L97.8452 160.091C97.7831 160.32 97.644 160.52 97.4512 160.659C97.2535 160.807 97.013 160.886 96.7659 160.886H96.3091ZM113.383 151.683V155.279C113.383 155.353 113.423 155.393 113.503 155.416C113.881 155.466 114.263 155.491 114.645 155.49C115.305 155.535 115.96 155.348 116.495 154.961C116.712 154.774 116.882 154.54 116.993 154.277C117.104 154.014 117.153 153.729 117.135 153.444C117.135 152.121 116.301 151.462 114.645 151.462C114.263 151.46 113.881 151.485 113.503 151.536C113.468 151.541 113.436 151.559 113.414 151.587C113.392 151.614 113.381 151.648 113.383 151.683ZM112.155 160.875C111.939 160.87 111.734 160.78 111.584 160.625C111.505 160.547 111.443 160.454 111.401 160.352C111.359 160.249 111.337 160.139 111.339 160.029V150.939C111.337 150.703 111.422 150.475 111.578 150.297C111.651 150.207 111.742 150.132 111.845 150.079C111.949 150.025 112.062 149.993 112.178 149.985C113.029 149.905 113.845 149.865 114.639 149.865C116.135 149.865 117.26 150.161 118.014 150.752C118.395 151.06 118.698 151.454 118.896 151.902C119.095 152.349 119.184 152.837 119.156 153.325C119.197 153.849 119.12 154.376 118.931 154.867C118.743 155.358 118.447 155.802 118.065 156.166C117.148 156.866 116.004 157.208 114.85 157.126C114.519 157.126 114.085 157.126 113.543 157.063C113.527 157.061 113.51 157.063 113.495 157.069C113.479 157.074 113.465 157.083 113.454 157.094C113.442 157.106 113.434 157.119 113.428 157.135C113.423 157.15 113.421 157.166 113.423 157.182V160.08C113.424 160.191 113.403 160.301 113.359 160.404C113.316 160.506 113.252 160.599 113.172 160.676C113.021 160.829 112.816 160.919 112.601 160.926L112.155 160.875ZM126.671 160.875C126.455 160.87 126.249 160.78 126.1 160.625C126.021 160.547 125.958 160.454 125.916 160.352C125.874 160.249 125.853 160.139 125.854 160.029V150.848C125.857 150.634 125.946 150.43 126.1 150.28C126.173 150.201 126.261 150.138 126.359 150.094C126.457 150.05 126.563 150.027 126.671 150.024H127.076C127.188 150.024 127.299 150.047 127.402 150.091C127.506 150.135 127.599 150.199 127.676 150.28C127.755 150.353 127.818 150.441 127.862 150.538C127.906 150.636 127.93 150.741 127.933 150.848V154.711L130.948 150.683C131.095 150.465 131.297 150.287 131.532 150.167C131.768 150.047 132.031 149.988 132.295 149.996H133.049C133.128 149.994 133.205 150.016 133.271 150.059C133.338 150.101 133.389 150.163 133.42 150.235C133.461 150.302 133.479 150.38 133.471 150.458C133.462 150.536 133.429 150.609 133.375 150.666L129.948 155.115C129.927 155.145 129.915 155.182 129.915 155.22C129.915 155.257 129.927 155.294 129.948 155.325L133.563 160.199C133.615 160.26 133.648 160.336 133.656 160.416C133.664 160.496 133.648 160.577 133.609 160.648C133.576 160.722 133.521 160.784 133.452 160.827C133.382 160.869 133.302 160.89 133.22 160.886H132.467C132.204 160.895 131.944 160.836 131.711 160.716C131.478 160.595 131.28 160.417 131.136 160.199L127.956 155.728V160.04C127.956 160.152 127.933 160.262 127.889 160.365C127.845 160.467 127.78 160.56 127.699 160.636C127.62 160.716 127.527 160.779 127.424 160.822C127.321 160.864 127.211 160.886 127.099 160.886L126.671 160.875Z" fill="white"/>
</svg>
