<svg width="50" height="50" viewBox="0 0 50 50" fill="none" xmlns="http://www.w3.org/2000/svg">
<g clip-path="url(#clip0)">
<path d="M41.3831 0.458397C41.1135 0.140422 40.7041 -0.0294727 40.2885 0.00413285L39.9935 0.0276174C36.2172 0.326726 32.1434 0.813613 30.5603 2.15616C29.7678 2.82827 29.1755 3.69327 28.8241 4.6807H10.8303C10.1348 4.6807 9.48718 4.9578 9.00688 5.4608C8.52657 5.96381 8.27984 6.62363 8.31207 7.32002L10.2645 47.5955C10.3271 48.9438 11.4333 49.9999 12.7829 49.9999H29.4447C30.7944 49.9999 31.9005 48.9438 31.963 47.5971L33.3366 19.2642C33.4978 19.2687 33.6617 19.271 33.8277 19.271C36.0467 19.271 38.6297 18.8898 40.1076 18.6718L40.4005 18.6287C40.8132 18.5683 41.174 18.3113 41.3656 17.9412C41.5573 17.5712 41.559 17.1281 41.3701 16.7563L41.2362 16.4921C40.217 14.479 39.0959 12.3937 37.9665 10.8346C38.765 10.1412 39.516 8.74511 40.2613 6.56625C40.8513 4.84117 41.3081 2.99954 41.581 1.89921L41.6524 1.61228C41.7533 1.20764 41.6527 0.776274 41.3831 0.458397V0.458397ZM31.7078 22.4226C31.6565 22.3005 31.5736 22.193 31.4648 22.1134L28.9647 20.2818C28.9646 20.2817 28.9646 20.2817 28.9645 20.2816L25.2461 17.5574L19.0273 13.0013C18.8659 12.8831 18.6634 12.8354 18.4662 12.8696C18.2691 12.9037 18.0943 13.0164 17.9819 13.182C16.7498 14.9975 16.2758 17.1901 16.6471 19.3559C17.0195 21.5275 18.2037 23.4407 19.9815 24.7432C20.3939 25.0454 20.8285 25.3056 21.2793 25.5257C21.0489 25.8429 20.9226 26.2224 20.9226 26.6222C20.9226 27.1225 21.1174 27.5929 21.4712 27.9466L23.7134 30.1889C24.0672 30.5426 24.5375 30.7375 25.0379 30.7375C25.5383 30.7375 26.0087 30.5426 26.3625 30.1889L28.6046 27.9466C28.9584 27.5929 29.1533 27.1225 29.1533 26.6222C29.1533 26.2041 29.0155 25.808 28.7644 25.4822C29.8596 24.9342 30.8301 24.1496 31.6078 23.1647C31.6343 23.1311 31.657 23.0952 31.677 23.058L30.682 43.5829H16.3904C15.9833 43.5829 15.6534 43.9129 15.6534 44.3199C15.6534 44.7269 15.9833 45.0569 16.3904 45.0569H30.6105L30.4907 47.5276C30.4648 48.0876 30.0054 48.5263 29.4447 48.5263H12.7829C12.2223 48.5263 11.7628 48.0876 11.7368 47.5261L11.6171 45.0569H13.4425C13.8496 45.0569 14.1795 44.7269 14.1795 44.3199C14.1795 43.9129 13.8496 43.5829 13.4425 43.5829H11.5457L10.0348 12.416H22.09C22.4971 12.416 22.827 12.086 22.827 11.679C22.827 11.272 22.4971 10.942 22.09 10.942H9.96336L9.78442 7.25054C9.77096 6.96195 9.87354 6.6879 10.0731 6.47889C10.2726 6.26999 10.5416 6.15483 10.8304 6.15483H31.3975C31.6863 6.15483 31.9553 6.26989 32.1548 6.47889C32.3543 6.6879 32.4568 6.96185 32.4435 7.24897L32.2644 10.942H25.038C24.6309 10.942 24.301 11.272 24.301 11.679C24.301 12.086 24.6309 12.416 25.038 12.416H32.193L31.7078 22.4226ZM27.3841 26.1614L27.5624 26.3398C27.6378 26.4151 27.6793 26.5153 27.6793 26.622C27.6793 26.7286 27.6377 26.8288 27.5623 26.9043L25.3201 29.1465C25.2447 29.2219 25.1445 29.2633 25.0379 29.2633C24.9313 29.2633 24.831 29.2218 24.7557 29.1464L22.5134 26.9042C22.4381 26.8288 22.3966 26.7286 22.3966 26.622C22.3966 26.5153 22.4382 26.4151 22.5135 26.3397L22.7679 26.0853C23.4799 26.278 24.2166 26.3779 24.9622 26.3779C25.3477 26.3779 25.7356 26.3515 26.1234 26.2983C26.5223 26.2436 26.9134 26.1608 27.2948 26.0527C27.3206 26.0911 27.3502 26.1276 27.3841 26.1614V26.1614ZM25.923 24.8381C24.1209 25.0853 22.3205 24.6294 20.8526 23.5541C19.3848 22.4789 18.4073 20.8994 18.0998 19.1067C17.8368 17.5726 18.0873 16.0223 18.8061 14.6665L20.1346 15.6397C19.0545 17.9237 19.722 20.7135 21.812 22.2447C22.7618 22.9406 23.871 23.2782 24.9724 23.2782C26.2946 23.2782 27.6047 22.7902 28.615 21.8528L29.9438 22.8264C28.8676 23.9203 27.4651 24.6265 25.923 24.8381V24.8381ZM27.3968 20.9601C26.0559 22.0302 24.1184 22.1071 22.683 21.0555C21.2477 20.0039 20.7372 18.1336 21.3532 16.5324L27.3968 20.9601ZM39.9457 17.2059L39.8925 17.2138C38.3561 17.4405 35.5867 17.8487 33.408 17.7919L33.4662 16.592C33.5817 16.8714 33.8523 17.0479 34.1445 17.0479C34.2184 17.0479 34.2937 17.0367 34.3677 17.0131C34.7557 16.8899 34.9703 16.4756 34.847 16.0876L34.5839 15.2597L36.1857 16.0891C36.2941 16.1452 36.4098 16.1717 36.524 16.1717C36.7906 16.1717 37.0479 16.0266 37.179 15.7735C37.3661 15.4121 37.2249 14.9673 36.8635 14.7801L35.2616 13.9507L35.6276 13.8345C36.0155 13.7113 36.2301 13.2969 36.1069 12.9089C35.9836 12.521 35.5691 12.3064 35.1813 12.4297L33.6442 12.9181L33.8112 9.47382C34.2291 9.55233 34.6295 9.68852 35.0064 9.88376C36.6757 10.7482 39.0336 15.405 39.9213 17.1582L39.9457 17.2059ZM40.1504 1.54448C39.6833 3.42826 38.4519 8.39333 37.0402 9.68704C36.5833 9.18994 36.1293 8.80514 35.6843 8.57462C35.118 8.28141 34.5143 8.08567 33.8832 7.98957L33.8935 7.77624L34.7569 7.0441C34.8084 7.06041 34.8624 7.07171 34.9186 7.07633L36.5882 7.2136C36.6087 7.21527 36.629 7.21615 36.6494 7.21615C37.029 7.21615 37.3514 6.92461 37.383 6.53952C37.4164 6.1339 37.1146 5.77799 36.7089 5.74468L36.3263 5.71324L37.7021 4.54658C38.0125 4.28333 38.0508 3.81826 37.7874 3.50785C37.5243 3.19744 37.0592 3.15922 36.7488 3.42246L35.373 4.58922L35.4044 4.20649C35.4378 3.80087 35.136 3.44496 34.7303 3.41165C34.3268 3.37854 33.9688 3.68001 33.9355 4.08583L33.7983 5.75539C33.7937 5.8116 33.7962 5.86663 33.8037 5.92018L33.6439 6.05568C33.534 5.84127 33.3927 5.64102 33.2209 5.4611C32.7406 4.958 32.093 4.681 31.3975 4.681H30.4248C30.6932 4.14272 31.0643 3.66183 31.5138 3.28057C32.9477 2.06458 38.1512 1.65238 40.1101 1.49722L40.1634 1.493L40.1504 1.54448Z" fill="white"/>
<path d="M12.0826 28.3301L12.7188 32.1457C12.8011 32.6391 13.0706 33.0711 13.4778 33.3619C13.799 33.5913 14.1756 33.7112 14.5624 33.7112C14.666 33.7112 14.7702 33.7026 14.8745 33.6852L18.69 33.0491C19.7087 32.8792 20.3994 31.9122 20.2295 30.8934L19.5932 27.0778C19.4233 26.059 18.4554 25.3684 17.4376 25.5383L13.6221 26.1746C12.6034 26.3444 11.9128 27.3114 12.0826 28.3301ZM13.8645 27.6284L17.68 26.9921C17.7022 26.9884 17.7241 26.9866 17.7458 26.9866C17.9373 26.9866 18.1069 27.1253 18.1394 27.3202L18.7756 31.1357C18.8118 31.3528 18.6646 31.5589 18.4476 31.5951L14.6321 32.2312C14.5266 32.2489 14.4212 32.2244 14.3344 32.1624C14.2477 32.1005 14.1902 32.0084 14.1727 31.9032L13.5365 28.0877C13.5002 27.8707 13.6474 27.6645 13.8645 27.6284V27.6284Z" fill="white"/>
<path d="M20.4165 38.4927L22.4507 40.5268C22.8158 40.8919 23.2954 41.0745 23.7752 41.0745C24.2548 41.0745 24.7345 40.8919 25.0996 40.5268L27.1336 38.4927H27.1335C27.4874 38.1389 27.6822 37.6685 27.6822 37.1682C27.6822 36.6678 27.4874 36.1975 27.1336 35.8437L25.0995 33.8096C24.3692 33.0793 23.1811 33.0793 22.4506 33.8096L20.4165 35.8437C19.6863 36.574 19.6863 37.7623 20.4165 38.4927V38.4927ZM21.4587 36.8859L23.4927 34.8518C23.5707 34.774 23.6729 34.735 23.7751 34.735C23.8772 34.735 23.9795 34.774 24.0573 34.8518L26.0914 36.8859C26.1667 36.9613 26.2082 37.0615 26.2082 37.1681C26.2082 37.2747 26.1666 37.3749 26.0914 37.4503H26.0913L24.0574 39.4843C23.9015 39.64 23.6483 39.64 23.4928 39.4843L21.4587 37.4503C21.3031 37.2948 21.3031 37.0415 21.4587 36.8859Z" fill="white"/>
</g>
<defs>
<clipPath id="clip0">
<rect width="50" height="50" fill="white"/>
</clipPath>
</defs>
</svg>
