<svg width="25" height="25" viewBox="0 0 25 25" fill="none" xmlns="http://www.w3.org/2000/svg">
<rect width="25" height="25" fill="white"/>
<path d="M21.3389 3.66118C18.9779 1.30024 15.8389 0 12.5 0C9.16113 0 6.02207 1.30024 3.66113 3.66118C1.3002 6.02212 0 9.16113 0 12.5C0 15.8389 1.3002 18.9779 3.66113 21.3388C6.02207 23.6997 9.16113 25 12.5 25C15.8389 25 18.9779 23.6998 21.3389 21.3388C23.6998 18.9779 25 15.8389 25 12.5C25 9.16113 23.6998 6.02207 21.3389 3.66118ZM12.5 22.5465C6.9603 22.5465 2.45352 18.0396 2.45352 12.5C2.45352 12.4909 2.45381 12.4819 2.45386 12.4729C2.45386 12.4707 2.45352 12.4685 2.45352 12.4662C2.45352 12.4623 2.454 12.4586 2.4541 12.4548C2.47847 6.98149 6.90166 2.52852 12.3635 2.45527C12.3749 2.45474 12.3862 2.45356 12.3978 2.45356C12.4047 2.45356 12.4115 2.45439 12.4184 2.45459C12.4456 2.45439 12.4728 2.45356 12.5 2.45356C18.0397 2.45356 22.5465 6.9604 22.5465 12.5C22.5465 18.0397 18.0397 22.5465 12.5 22.5465Z" fill="#0089B6"/>
<path d="M20.1313 13.1034C19.7229 13.1034 19.3917 12.7723 19.3917 12.3638C19.3917 11.9553 19.7229 11.6241 20.1313 11.6241H21.0229C20.6041 7.51887 17.2748 4.26218 13.1375 3.95642V4.73254C13.1375 5.14104 12.8064 5.47219 12.3979 5.47219C11.9894 5.47219 11.6583 5.14104 11.6583 4.73254V3.9741C7.58228 4.37351 4.33555 7.64119 3.96821 11.7263H4.76665C5.17515 11.7263 5.5063 12.0575 5.5063 12.466C5.5063 12.8745 5.17515 13.2056 4.76665 13.2056H3.96216C4.30225 17.3566 7.61406 20.6785 11.7605 21.0348V20.0972C11.7605 19.6887 12.0917 19.3575 12.5001 19.3575C12.9086 19.3575 13.2398 19.6887 13.2398 20.0972V21.0348C17.4202 20.6756 20.7521 17.3019 21.0458 13.1034H20.1313V13.1034ZM15.4943 10.5518L13.0232 13.0229C12.8845 13.1616 12.6964 13.2396 12.5002 13.2396C12.3041 13.2396 12.1159 13.1616 11.9772 13.0229L7.67578 8.72151C7.38691 8.43269 7.38691 7.96438 7.67578 7.67551C7.9646 7.38665 8.43291 7.38665 8.72178 7.67551L12.5002 11.4539L14.4484 9.50579C14.7372 9.21692 15.2055 9.21692 15.4944 9.50579C15.7832 9.7946 15.7832 10.263 15.4943 10.5518Z" fill="#0089B6"/>
</svg>
