<svg width="50" height="50" viewBox="0 0 50 50" fill="none" xmlns="http://www.w3.org/2000/svg">
<g clip-path="url(#clip0)">
<path d="M46.4844 40.2344C46.4844 38.0806 44.7319 36.3281 42.5781 36.3281H40.625V31.4453C40.625 30.9059 40.1878 30.4688 39.6484 30.4688H35.4065L23.9738 19.0361C23.7907 18.853 23.542 18.75 23.2834 18.75H23.0469V10.7422H25C25.3948 10.7422 25.7511 10.5042 25.9022 10.1391C26.0532 9.7744 25.9697 9.3544 25.6905 9.07516L16.9014 0.286102C16.5203 -0.0953674 15.9019 -0.0953674 15.5205 0.286102L6.73141 9.07516C6.45218 9.3544 6.36864 9.7744 6.5197 10.1391C6.67076 10.5042 7.02667 10.7422 7.42188 10.7422H9.375V36.3281H7.42188C5.2681 36.3281 3.51562 38.0806 3.51562 40.2344C3.51562 41.4001 4.02985 42.4477 4.84238 43.1641C4.02985 43.8805 3.51562 44.928 3.51562 46.0938C3.51562 48.2475 5.2681 50 7.42188 50H19.6289C20.1683 50 20.6055 49.5628 20.6055 49.0234C20.6055 48.484 20.1683 48.0469 19.6289 48.0469H14.2578V44.1406H35.7422V48.0469H28.418C27.8786 48.0469 27.4414 48.484 27.4414 49.0234C27.4414 49.5628 27.8786 50 28.418 50H42.5781C44.7319 50 46.4844 48.2475 46.4844 46.0938C46.4844 44.928 45.9702 43.8805 45.1576 43.1641C45.9702 42.4477 46.4844 41.4001 46.4844 40.2344ZM34.3113 32.1358C34.4944 32.3189 34.7427 32.4219 35.0018 32.4219H38.6719V36.3281H32.9807L21.5481 24.8955C21.365 24.7124 21.1163 24.6094 20.8572 24.6094H11.3281V20.7031H22.8786L34.3113 32.1358ZM11.3281 26.5625H15.2344V30.4688H11.3281V26.5625ZM17.1875 26.5625H20.4529L30.2185 36.3281H17.1875V26.5625ZM16.2109 2.35748L22.6425 8.78906H9.77936L16.2109 2.35748ZM21.0938 10.7422V18.75H11.3281V10.7422H21.0938ZM11.3281 32.4219H15.2344V36.3281H11.3281V32.4219ZM5.46875 40.2344C5.46875 39.1575 6.34499 38.2812 7.42188 38.2812H12.3047V42.1875H7.42188C6.34499 42.1875 5.46875 41.3113 5.46875 40.2344ZM12.3047 48.0469H7.42188C6.34499 48.0469 5.46875 47.1706 5.46875 46.0938C5.46875 45.0169 6.34499 44.1406 7.42188 44.1406H12.3047V48.0469ZM14.2578 42.1875V38.2812H35.7422V42.1875H14.2578ZM44.5312 46.0938C44.5312 47.1706 43.655 48.0469 42.5781 48.0469H37.6953V44.1406H42.5781C43.655 44.1406 44.5312 45.0169 44.5312 46.0938ZM37.6953 42.1875V38.2812H42.5781C43.655 38.2812 44.5312 39.1575 44.5312 40.2344C44.5312 41.3113 43.655 42.1875 42.5781 42.1875H37.6953Z" fill="white"/>
<path d="M25 49.0234C25 49.5628 24.5628 50 24.0234 50C23.484 50 23.0469 49.5628 23.0469 49.0234C23.0469 48.484 23.484 48.0469 24.0234 48.0469C24.5628 48.0469 25 48.484 25 49.0234Z" fill="white"/>
</g>
<defs>
<clipPath id="clip0">
<rect width="50" height="50" fill="white"/>
</clipPath>
</defs>
</svg>
