<svg width="144" height="153" viewBox="0 0 144 153" fill="none" xmlns="http://www.w3.org/2000/svg">
<path fill-rule="evenodd" clip-rule="evenodd" d="M27.6242 37.7246C15.756 61.0687 29.2177 94.3915 44.4288 109.213C108.521 171.839 148.054 98.2854 107.611 86.1882C87.6661 80.2449 71.6932 93.9312 50.0696 78.5807C37.6951 69.8224 30.1345 54.5527 27.5686 37.6705L27.6242 37.7246Z" fill="white"/>
<path fill-rule="evenodd" clip-rule="evenodd" d="M61.7845 66.1368C72.5236 78.5396 95.0225 78.7299 107.129 73.5467C158.355 51.6823 124.916 11.4673 108.485 31.7976C100.396 41.8318 104.605 54.2526 90.7383 62.9985C82.7961 68.0095 72.1511 68.7202 61.7845 66.1368Z" fill="white"/>
<path fill-rule="evenodd" clip-rule="evenodd" d="M78.2237 57.4864C89.0545 55.1946 96.5226 41.806 97.4549 32.8372C101.383 -5.07101 66.7505 1.55559 73.3158 18.1353C76.5611 26.3171 85.1987 27.8544 85.8637 39.1298C85.8671 42.5315 85.1933 45.9065 83.8816 49.0581C82.5699 52.2098 80.6465 55.0749 78.2237 57.4864V57.4864Z" fill="white"/>
</svg>
