<svg width="147" height="143" viewBox="0 0 147 143" fill="none" xmlns="http://www.w3.org/2000/svg">
<path fill-rule="evenodd" clip-rule="evenodd" d="M6.23722 101.615C20.7536 125.786 58.8515 132.549 81.0686 127.141C174.84 104.455 130.323 26.3468 96.171 56.3333C79.3491 71.1344 82.7076 93.5303 56.343 104.487C41.2794 110.772 23.0261 108.943 6.15606 101.635L6.23722 101.615Z" fill="#578EE4"/>
<path fill-rule="evenodd" clip-rule="evenodd" d="M51.6854 86.6841C69.1396 83.9742 82.172 63.5547 84.3619 49.5467C93.69 -9.68907 37.8858 -2.16285 47.0445 24.4484C51.5772 37.5631 65.3155 40.8218 65.37 58.4727C65.4029 68.5832 59.9673 78.702 51.6854 86.6841Z" fill="#578EE4"/>
<path fill-rule="evenodd" clip-rule="evenodd" d="M53.1885 66.74C57.2876 55.548 49.3399 41.082 41.6896 35.1054C9.34669 9.85564 -4.40071 45.242 14.479 48.7277C23.7991 50.4427 30.1384 43.4403 40.8063 49.2779C43.9119 51.2189 46.6062 53.7626 48.7321 56.7607C50.858 59.7588 52.3729 63.1512 53.1885 66.74V66.74Z" fill="#578EE4"/>
</svg>
