<svg width="113" height="113" viewBox="0 0 113 113" fill="none" xmlns="http://www.w3.org/2000/svg">
<path fill-rule="evenodd" clip-rule="evenodd" d="M87.4961 56.1786C84.0361 69.8485 66.7705 78.5887 55.3515 79.2081C7.1751 81.8882 17.2104 38.0588 37.8939 47.4848C48.0862 52.1425 49.7126 63.3512 63.9189 64.7897C72.0394 65.6237 80.5154 62.1118 87.5378 56.1764L87.4961 56.1786Z" fill="white"/>
<path fill-rule="evenodd" clip-rule="evenodd" d="M63.5785 55.5933C54.8296 56.8165 45.6404 48.9213 42.5688 42.5302C29.5473 15.5139 57.3547 11.0583 56.8125 25.1231C56.5362 32.0574 50.4286 35.6018 52.9516 44.0613C54.3961 48.9073 58.4601 52.9674 63.5785 55.5933Z" fill="white"/>
<path fill-rule="evenodd" clip-rule="evenodd" d="M59.9784 46.2609C56.3993 41.4939 58.1156 33.4194 60.9157 29.4528C72.7556 12.6916 84.4488 27.65 75.9121 32.0457C71.6971 34.2129 67.6504 31.7755 63.3854 36.1113C62.1787 37.4893 61.256 39.0964 60.671 40.839C60.0861 42.5815 59.8507 44.4247 59.9784 46.2609V46.2609Z" fill="white"/>
</svg>
