<svg width="237" height="223" viewBox="0 0 237 223" fill="none" xmlns="http://www.w3.org/2000/svg">
<path fill-rule="evenodd" clip-rule="evenodd" d="M180.636 178.555C144.947 197.914 92.7457 178.428 69.1457 155.466C-30.5636 58.7227 81.7981 -5.58695 102.219 56.5924C112.254 87.2579 91.7032 112.579 116.388 145.457C130.473 164.274 154.451 175.36 180.722 178.639L180.636 178.555Z" fill="#3BC7DD"/>
<path fill-rule="evenodd" clip-rule="evenodd" d="M135.188 126.784C115.522 110.653 114.297 75.7916 121.83 56.815C153.598 -23.4812 217.307 26.6817 186.478 52.9875C171.261 65.9377 151.837 59.9283 138.855 81.7811C131.417 94.2973 130.756 110.825 135.188 126.784Z" fill="#3BC7DD"/>
<path fill-rule="evenodd" clip-rule="evenodd" d="M147.917 100.949C151.021 84.0683 171.463 71.9405 185.324 70.1247C243.913 62.4698 235.075 116.418 209.108 106.929C196.293 102.237 193.553 88.9139 176.051 88.3494C170.779 88.4848 165.576 89.6686 160.745 91.8318C155.915 93.995 151.554 97.0943 147.917 100.949V100.949Z" fill="#3BC7DD"/>
</svg>
