<svg width="113" height="113" viewBox="0 0 113 113" fill="none" xmlns="http://www.w3.org/2000/svg">
<path fill-rule="evenodd" clip-rule="evenodd" d="M24.5664 56.1786C28.0264 69.8485 45.292 78.5887 56.711 79.2081C104.887 81.8882 94.8521 38.0588 74.1686 47.4848C63.9763 52.1425 62.3499 63.3512 48.1436 64.7897C40.0231 65.6237 31.5471 62.1118 24.5247 56.1764L24.5664 56.1786Z" fill="white"/>
<path fill-rule="evenodd" clip-rule="evenodd" d="M48.484 55.5933C57.2329 56.8165 66.4221 48.9213 69.4937 42.5302C82.5152 15.5139 54.7078 11.0583 55.25 25.1231C55.5263 32.0574 61.6339 35.6018 59.1109 44.0613C57.6664 48.9073 53.6024 52.9674 48.484 55.5933Z" fill="white"/>
<path fill-rule="evenodd" clip-rule="evenodd" d="M52.0841 46.2609C55.6632 41.4939 53.9469 33.4194 51.1468 29.4528C39.3069 12.6916 27.6137 27.65 36.1504 32.0457C40.3654 34.2129 44.4121 31.7755 48.6771 36.1113C49.8838 37.4893 50.8065 39.0964 51.3915 40.839C51.9764 42.5815 52.2118 44.4247 52.0841 46.2609V46.2609Z" fill="white"/>
</svg>
