<svg width="122" height="125" viewBox="0 0 122 125" fill="none" xmlns="http://www.w3.org/2000/svg">
<path fill-rule="evenodd" clip-rule="evenodd" d="M92.7817 106.092C107.416 89.8098 103.756 59.9891 94.68 44.7294C56.4759 -19.7082 8.63891 31.1325 38.6788 49.6514C53.4982 58.7661 69.3575 51.1705 83.4971 68.2446C91.5945 77.9943 94.3958 91.9604 92.815 106.148L92.7817 106.092Z" fill="white"/>
<path fill-rule="evenodd" clip-rule="evenodd" d="M71.3433 75.7582C65.3551 63.4194 47.2285 58.3977 36.3315 59.9637C-9.76434 66.5354 8.53654 106.244 26.2033 93.3826C34.9057 87.03 34.1945 76.0896 47.2842 72.0277C54.7818 69.6997 63.5313 71.4291 71.3433 75.7582Z" fill="white"/>
<path fill-rule="evenodd" clip-rule="evenodd" d="M56.1987 79.1863C46.957 78.6935 38.0297 87.8888 35.3363 94.9294C23.9623 124.69 53.3616 126.833 51.6475 112.024C50.7972 104.715 44.155 101.605 46.0577 92.3561C46.7909 89.6085 48.0653 87.029 49.8064 84.7679C51.5475 82.5068 53.7205 80.6094 56.1987 79.1863V79.1863Z" fill="white"/>
</svg>
