<svg width="113" height="111" viewBox="0 0 113 111" fill="none" xmlns="http://www.w3.org/2000/svg">
<path fill-rule="evenodd" clip-rule="evenodd" d="M22.1704 66.1664C28.9323 81.194 50.5789 87.7408 63.8458 86.1312C119.832 79.4177 99.3697 31.0201 77.4843 46.0738C66.7022 53.5067 67.1102 66.7364 51.0542 71.2811C41.8788 73.8922 31.4104 71.5746 22.1219 66.1723L22.1704 66.1664Z" fill="#47B1E1"/>
<path fill-rule="evenodd" clip-rule="evenodd" d="M49.5781 60.6278C59.895 60.2561 68.8643 49.3016 71.0993 41.322C80.59 7.58358 47.6832 8.11136 51.1676 24.1868C52.8958 32.1105 60.6452 34.9474 59.4622 45.1956C58.7854 51.066 54.9343 56.5649 49.5781 60.6278Z" fill="#47B1E1"/>
<path fill-rule="evenodd" clip-rule="evenodd" d="M51.8203 49.1559C54.9696 42.9422 51.3524 33.9991 47.3234 30.0038C30.2893 13.123 19.875 32.7152 30.593 36.0375C35.8843 37.6744 40.0455 34.0464 45.8354 38.1687C47.5043 39.509 48.893 41.1708 49.9206 43.0572C50.9481 44.9436 51.5939 47.0168 51.8203 49.1559V49.1559Z" fill="#47B1E1"/>
</svg>
