<svg width="25" height="25" viewBox="0 0 25 25" fill="none" xmlns="http://www.w3.org/2000/svg">
<g clip-path="url(#clip0)">
<rect width="25" height="25" fill="white"/>
<path d="M16.5723 12.6281L25.0004 17.9562V7.07495L16.5723 12.6281Z" fill="#0089B6"/>
<path d="M0 7.07495V17.9562L8.42813 12.6281L0 7.07495Z" fill="#0089B6"/>
<path d="M23.4376 3.90625H1.56262C0.782935 3.90625 0.164185 4.4875 0.0469971 5.23594L12.5001 13.4406L24.9532 5.23594C24.8361 4.4875 24.2173 3.90625 23.4376 3.90625Z" fill="#0089B6"/>
<path d="M15.1402 13.5719L12.9292 15.0281C12.798 15.1141 12.6496 15.1562 12.4996 15.1562C12.3496 15.1562 12.2011 15.1141 12.0699 15.0281L9.85894 13.5703L0.0495605 19.775C0.169873 20.5172 0.785498 21.0937 1.56206 21.0937H23.4371C24.2136 21.0937 24.8292 20.5172 24.9496 19.775L15.1402 13.5719Z" fill="#0089B6"/>
</g>
<defs>
<clipPath id="clip0">
<rect width="25" height="25" fill="white"/>
</clipPath>
</defs>
</svg>
