<svg width="50" height="50" viewBox="0 0 50 50" fill="none" xmlns="http://www.w3.org/2000/svg">
<path d="M46.9297 20.1853H46.1628V18.0999C46.1628 15.6951 44.2063 13.7388 41.8016 13.7388H40.7138C40.2521 12.0251 38.6854 10.7599 36.8278 10.7599C34.6087 10.7599 32.8033 12.5652 32.8033 14.7844V21.4442H17.1966V14.7844C17.1966 12.5652 15.3912 10.7599 13.1722 10.7599C11.3147 10.7599 9.74795 12.0251 9.28633 13.7388H8.19844C5.79365 13.7388 3.83721 15.6951 3.83721 18.0999V20.1853H3.07031C1.37734 20.1853 0 21.5628 0 23.2557V26.7331C0 28.4261 1.37734 29.8033 3.07031 29.8033H3.8373V31.8999C3.8373 34.3047 5.79375 36.261 8.19854 36.261H9.28643C9.74805 37.9747 11.3148 39.2398 13.1723 39.2398C15.3914 39.2398 17.1967 37.4346 17.1967 35.2154V28.5556H30.5755C30.9801 28.5556 31.3079 28.2277 31.3079 27.8231C31.3079 27.4185 30.9801 27.0907 30.5755 27.0907H17.1966V22.909H32.8033V35.2155C32.8033 37.4347 34.6087 39.2399 36.8278 39.2399C38.6854 39.2399 40.2521 37.9748 40.7138 36.2611H41.8016C44.2063 36.2611 46.1628 34.3048 46.1628 31.9V29.8034H46.9297C48.6227 29.8034 50 28.4262 50 26.7332V23.2558C50 21.5627 48.6227 20.1853 46.9297 20.1853ZM3.8373 28.3387H3.07031V28.3386C2.18506 28.3386 1.46484 27.6183 1.46484 26.7332V23.2558C1.46484 22.3705 2.18506 21.6503 3.07031 21.6503H3.8373V28.3387V28.3387ZM15.7317 35.2155C15.7317 36.6268 14.5835 37.7751 13.1722 37.7751C11.7607 37.7751 10.6126 36.6268 10.6126 35.2155V20.4378C10.6126 20.0332 10.2847 19.7054 9.88018 19.7054C9.47568 19.7054 9.14775 20.0332 9.14775 20.4378V34.7964H8.19854C6.60147 34.7964 5.30215 33.4971 5.30215 31.9001V18.0998C5.30215 16.5027 6.60147 15.2035 8.19854 15.2035H9.14775V17.193C9.14775 17.5975 9.47568 17.9254 9.88018 17.9254C10.2847 17.9254 10.6126 17.5975 10.6126 17.193V14.7843C10.6126 13.3729 11.7608 12.2247 13.1722 12.2247C14.5836 12.2247 15.7317 13.3729 15.7317 14.7843V35.2155ZM39.3875 35.2155C39.3875 36.6268 38.2393 37.7751 36.8278 37.7751C35.4164 37.7751 34.2682 36.6268 34.2682 35.2155V14.7843C34.2682 13.3729 35.4164 12.2247 36.8278 12.2247C38.2393 12.2247 39.3875 13.3729 39.3875 14.7843V35.2155ZM44.6979 31.9C44.6979 33.497 43.3986 34.7963 41.8016 34.7963H40.8523V15.2035H41.8016C43.3986 15.2035 44.6979 16.5028 44.6979 18.0998V31.9ZM48.5352 26.7332C48.5352 27.6183 47.8149 28.3386 46.9297 28.3386H46.1628V21.6502H46.9297C47.8149 21.6502 48.5352 22.3704 48.5352 23.2557V26.7332Z" fill="white"/>
</svg>
