<svg width="21" height="21" viewBox="0 0 21 21" fill="none" xmlns="http://www.w3.org/2000/svg">
<path d="M12.5098 10.5C12.5098 11.61 11.61 12.5098 10.5 12.5098C9.39001 12.5098 8.49023 11.61 8.49023 10.5C8.49023 9.39001 9.39001 8.49023 10.5 8.49023C11.61 8.49023 12.5098 9.39001 12.5098 10.5Z" fill="white"/>
<path d="M15.2002 6.94413C15.1036 6.68233 14.9494 6.44537 14.7492 6.25087C14.5546 6.0506 14.3178 5.89647 14.0559 5.79986C13.8434 5.71735 13.5243 5.61913 12.9365 5.59238C12.3006 5.56338 12.1099 5.55713 10.5 5.55713C8.89001 5.55713 8.69935 5.56322 8.06361 5.59222C7.47577 5.61913 7.15646 5.71735 6.94417 5.79986C6.68221 5.89647 6.44525 6.0506 6.25091 6.25087C6.05064 6.44537 5.89651 6.68217 5.79974 6.94413C5.71722 7.15658 5.61901 7.47589 5.59225 8.06373C5.56326 8.69947 5.55701 8.89013 5.55701 10.5002C5.55701 12.11 5.56326 12.3007 5.59225 12.9366C5.61901 13.5244 5.71722 13.8436 5.79974 14.056C5.89651 14.318 6.05048 14.5548 6.25075 14.7493C6.44525 14.9495 6.68205 15.1037 6.94401 15.2003C7.15646 15.283 7.47577 15.3812 8.06361 15.4079C8.69935 15.4369 8.88985 15.443 10.4999 15.443C12.1101 15.443 12.3007 15.4369 12.9363 15.4079C13.5241 15.3812 13.8434 15.283 14.0559 15.2003C14.5817 14.9975 14.9973 14.5818 15.2002 14.056C15.2827 13.8436 15.3809 13.5244 15.4078 12.9366C15.4368 12.3007 15.4429 12.11 15.4429 10.5002C15.4429 8.89013 15.4368 8.69947 15.4078 8.06373C15.3811 7.47589 15.2828 7.15658 15.2002 6.94413V6.94413ZM10.5 13.596C8.79003 13.596 7.40383 12.21 7.40383 10.5C7.40383 8.78999 8.79003 7.40395 10.5 7.40395C12.2099 7.40395 13.5961 8.78999 13.5961 10.5C13.5961 12.21 12.2099 13.596 10.5 13.596ZM13.7185 8.00509C13.3189 8.00509 12.9949 7.68113 12.9949 7.28155C12.9949 6.88197 13.3189 6.55801 13.7185 6.55801C14.1181 6.55801 14.442 6.88197 14.442 7.28155C14.4419 7.68113 14.1181 8.00509 13.7185 8.00509Z" fill="white"/>
<path d="M10.5 0C4.7019 0 0 4.7019 0 10.5C0 16.2981 4.7019 21 10.5 21C16.2981 21 21 16.2981 21 10.5C21 4.7019 16.2981 0 10.5 0ZM16.4929 12.9858C16.4638 13.6276 16.3617 14.0658 16.2127 14.4494C15.8995 15.2593 15.2593 15.8995 14.4494 16.2127C14.066 16.3617 13.6276 16.4636 12.9859 16.4929C12.343 16.5222 12.1376 16.5293 10.5002 16.5293C8.86258 16.5293 8.65734 16.5222 8.01423 16.4929C7.37256 16.4636 6.9342 16.3617 6.5508 16.2127C6.14834 16.0613 5.784 15.824 5.4828 15.5172C5.17614 15.2162 4.93886 14.8517 4.78745 14.4494C4.63845 14.066 4.53639 13.6276 4.50723 12.9859C4.47759 12.3428 4.4707 12.1374 4.4707 10.5C4.4707 8.86258 4.47759 8.65718 4.50707 8.01423C4.53623 7.3724 4.63813 6.9342 4.78713 6.55064C4.93854 6.14834 5.17598 5.78384 5.4828 5.4828C5.78384 5.17598 6.14834 4.9387 6.55064 4.78729C6.9342 4.63829 7.3724 4.53639 8.01423 4.50707C8.65718 4.47775 8.86258 4.4707 10.5 4.4707C12.1374 4.4707 12.3428 4.47775 12.9858 4.50723C13.6276 4.53639 14.0658 4.63829 14.4494 4.78713C14.8517 4.93854 15.2162 5.17598 15.5174 5.4828C15.824 5.784 16.0615 6.14834 16.2127 6.55064C16.3619 6.9342 16.4638 7.3724 16.4931 8.01423C16.5224 8.65718 16.5293 8.86258 16.5293 10.5C16.5293 12.1374 16.5224 12.3428 16.4929 12.9858V12.9858Z" fill="white"/>
</svg>
