<svg width="28" height="28" viewBox="0 0 28 28" fill="none" xmlns="http://www.w3.org/2000/svg">
<path d="M16.6797 14C16.6797 15.48 15.48 16.6797 14 16.6797C12.52 16.6797 11.3203 15.48 11.3203 14C11.3203 12.52 12.52 11.3203 14 11.3203C15.48 11.3203 16.6797 12.52 16.6797 14Z" fill="white"/>
<path d="M20.2668 9.25888C20.138 8.90982 19.9325 8.59387 19.6654 8.33453C19.4061 8.0675 19.0904 7.862 18.7411 7.73318C18.4578 7.62317 18.0323 7.49222 17.2485 7.45654C16.4006 7.41788 16.1464 7.40955 13.9999 7.40955C11.8532 7.40955 11.599 7.41766 10.7514 7.45633C9.96759 7.49222 9.54184 7.62317 9.25879 7.73318C8.90952 7.862 8.59357 8.0675 8.33444 8.33453C8.06741 8.59387 7.86191 8.90961 7.73288 9.25888C7.62286 9.54214 7.49191 9.9679 7.45624 10.7517C7.41757 11.5993 7.40924 11.8535 7.40924 14.0002C7.40924 16.1467 7.41757 16.4009 7.45624 17.2488C7.49191 18.0326 7.62286 18.4581 7.73288 18.7414C7.86191 19.0907 8.0672 19.4064 8.33423 19.6657C8.59357 19.9328 8.9093 20.1383 9.25858 20.2671C9.54184 20.3773 9.96759 20.5083 10.7514 20.5439C11.599 20.5826 11.853 20.5907 13.9997 20.5907C16.1466 20.5907 16.4008 20.5826 17.2483 20.5439C18.0321 20.5083 18.4578 20.3773 18.7411 20.2671C19.4422 19.9966 19.9963 19.4425 20.2668 18.7414C20.3768 18.4581 20.5078 18.0326 20.5436 17.2488C20.5823 16.4009 20.5904 16.1467 20.5904 14.0002C20.5904 11.8535 20.5823 11.5993 20.5436 10.7517C20.508 9.9679 20.377 9.54214 20.2668 9.25888ZM13.9999 18.1281C11.7199 18.1281 9.87167 16.28 9.87167 14C9.87167 11.72 11.7199 9.87198 13.9999 9.87198C16.2797 9.87198 18.128 11.72 18.128 14C18.128 16.28 16.2797 18.1281 13.9999 18.1281ZM18.2912 10.6735C17.7584 10.6735 17.3265 10.2415 17.3265 9.70877C17.3265 9.17599 17.7584 8.74405 18.2912 8.74405C18.824 8.74405 19.2559 9.17599 19.2559 9.70877C19.2557 10.2415 18.824 10.6735 18.2912 10.6735Z" fill="white"/>
<path d="M14 0C6.2692 0 0 6.2692 0 14C0 21.7308 6.2692 28 14 28C21.7308 28 28 21.7308 28 14C28 6.2692 21.7308 0 14 0ZM21.9906 17.3144C21.9517 18.1701 21.8156 18.7544 21.6169 19.2658C21.1993 20.3457 20.3457 21.1993 19.2658 21.6169C18.7546 21.8156 18.1701 21.9515 17.3146 21.9906C16.4573 22.0297 16.1834 22.0391 14.0002 22.0391C11.8168 22.0391 11.5431 22.0297 10.6856 21.9906C9.83008 21.9515 9.24561 21.8156 8.73441 21.6169C8.19778 21.4151 7.71201 21.0987 7.31039 20.6896C6.90152 20.2882 6.58514 19.8022 6.38327 19.2658C6.1846 18.7546 6.04852 18.1701 6.00964 17.3146C5.97012 16.4571 5.96094 16.1832 5.96094 14C5.96094 11.8168 5.97012 11.5429 6.00943 10.6856C6.04831 9.82986 6.18417 9.24561 6.38284 8.73419C6.58472 8.19778 6.90131 7.71179 7.31039 7.31039C7.71179 6.90131 8.19778 6.58493 8.73419 6.38306C9.24561 6.18439 9.82986 6.04852 10.6856 6.00943C11.5429 5.97034 11.8168 5.96094 14 5.96094C16.1832 5.96094 16.4571 5.97034 17.3144 6.00964C18.1701 6.04852 18.7544 6.18439 19.2658 6.38284C19.8022 6.58472 20.2882 6.90131 20.6898 7.31039C21.0987 7.71201 21.4153 8.19778 21.6169 8.73419C21.8158 9.24561 21.9517 9.82986 21.9908 10.6856C22.0299 11.5429 22.0391 11.8168 22.0391 14C22.0391 16.1832 22.0299 16.4571 21.9906 17.3144Z" fill="white"/>
</svg>
