<svg width="50" height="50" viewBox="0 0 50 50" fill="none" xmlns="http://www.w3.org/2000/svg">
<g clip-path="url(#clip0)">
<path d="M41.3077 34.2773C41.3077 34.8167 40.8706 35.2539 40.3312 35.2539C39.7921 35.2539 39.355 34.8167 39.355 34.2773C39.355 33.7379 39.7921 33.3008 40.3312 33.3008C40.8706 33.3008 41.3077 33.7379 41.3077 34.2773V34.2773Z" fill="white"/>
<path d="M33.5749 43.3472L37.3499 49.5323C37.6311 49.9924 38.2319 50.1377 38.6923 49.857C39.1528 49.5758 39.2981 48.975 39.0173 48.5146L35.2107 42.2779C35.4067 42.062 35.1836 42.3195 38.3749 38.3373C38.7122 37.9162 38.6439 37.3016 38.2224 36.9644C37.8012 36.6276 37.1867 36.6962 36.8498 37.117L33.8484 40.8688C33.4868 41.3212 32.9321 41.6016 32.3245 41.6016H8.88734C7.8135 41.6016 6.93421 40.7311 6.93421 39.6484C6.93421 38.5716 7.81045 37.6953 8.88734 37.6953H30.9172C31.214 37.6953 31.4944 37.5607 31.6798 37.3287L42.5192 23.7793C43.1838 22.9462 44.4132 22.7951 45.2635 23.476C46.0955 24.1409 46.2508 25.367 45.5676 26.2203L42.338 30.257C42.0012 30.6782 42.0695 31.2927 42.4906 31.6296C42.9118 31.9668 43.5263 31.8981 43.8631 31.477L47.0923 27.4406C48.4438 25.7526 48.1677 23.2967 46.4835 21.9509C44.805 20.607 42.343 20.8687 40.9934 22.5601L37.4106 27.039C37.2885 26.9844 37.1539 26.9531 37.012 26.9531H33.2247L27.1155 13.8836C28.2813 14.1861 29.555 14.1037 30.7299 13.5563C32.3725 12.7895 33.4464 11.2919 33.7454 9.62982C35.2393 10.4855 37.0665 10.6007 38.695 9.84153C41.3847 8.58726 42.5482 5.39398 41.2924 2.70423L40.6733 1.37596C40.5047 1.01394 40.1316 0.791926 39.7337 0.813669L24.5783 1.6613C23.5247 0.155252 21.493 -0.453955 19.7302 0.367731C17.9903 1.17912 17.1278 3.11775 17.6062 4.91256L7.21459 15.9786C6.94108 16.2697 6.87279 16.6981 7.0414 17.0597L7.66053 18.3868C8.90946 21.064 12.1077 22.2397 14.7982 20.985C16.4416 20.2187 17.5154 18.721 17.8141 17.0593C19.3007 17.9104 21.1283 18.0336 22.7637 17.2703C23.9096 16.7362 24.811 15.8371 25.3447 14.7083L31.0687 26.9535C29.5863 26.9535 19.4632 26.9535 17.6764 26.9535C17.137 26.9535 16.6998 27.3907 16.6998 27.9301C16.6998 28.4691 17.137 28.9066 17.6764 28.9066H19.6295V35.7422H8.88734C6.73356 35.7422 4.98109 37.4947 4.98109 39.6484C4.98109 40.6349 5.35149 41.5684 6.00037 42.2794L2.19445 48.5146C1.91369 48.975 2.05903 49.5758 2.51946 49.857C2.97875 50.1373 3.57995 49.9935 3.86185 49.5319L7.63688 43.3472C8.03704 43.4822 8.4578 43.5547 8.88734 43.5547H19.6295V49.0234C19.6295 49.5625 20.0667 49.9996 20.6061 49.9996C21.1455 49.9996 21.5826 49.5625 21.5826 49.0234V43.5547H32.3245C32.754 43.5547 33.1747 43.4822 33.5749 43.3472V43.3472ZM21.9382 15.5003C20.2265 16.2991 18.1944 15.5594 17.3964 13.8477C17.1683 13.3587 16.5873 13.1474 16.0986 13.3751C15.6081 13.604 15.399 14.1857 15.626 14.6729C16.4225 16.3807 15.6805 18.4181 13.9727 19.215C12.2649 20.0111 10.2274 19.2692 9.43055 17.5613L9.09104 16.8335L19.438 5.81474C19.7112 5.52368 19.7798 5.09567 19.6112 4.73365C19.1561 3.75747 19.5799 2.59284 20.5553 2.13775C21.5323 1.68304 22.6965 2.10647 23.1512 3.08227C23.3202 3.44429 23.6926 3.66745 24.0912 3.64456L39.1825 2.80075L39.5224 3.53012C40.3212 5.24101 39.5815 7.27348 37.8699 8.07151C36.1571 8.86955 34.1258 8.13102 33.3277 6.41822C33.1 5.92918 32.5194 5.71785 32.03 5.94558C31.5394 6.17408 31.3303 6.75621 31.5573 7.24334C32.3534 8.95118 31.6115 10.9894 29.904 11.7863C28.1962 12.582 26.1595 11.8412 25.3626 10.1341L25.3615 10.1318C24.7961 8.92372 23.0654 9.82246 23.5907 10.9562C23.5911 10.957 23.5915 10.9573 23.5918 10.9581V10.9585C23.5918 10.9589 23.5918 10.9589 23.5922 10.9592C24.3891 12.6701 23.6514 14.7018 21.9382 15.5003V15.5003ZM21.5823 28.9066H35.9164L30.4476 35.7422H21.5823V28.9066Z" fill="white"/>
</g>
<defs>
<clipPath id="clip0">
<rect width="50" height="50" fill="white"/>
</clipPath>
</defs>
</svg>
