<svg width="86" height="343" viewBox="0 0 86 343" fill="none" xmlns="http://www.w3.org/2000/svg">
<g clip-path="url(#clip0)">
<path d="M58.6062 340.356C58.6062 339.498 58.4371 338.65 58.1086 337.858C57.7802 337.066 57.2987 336.346 56.6918 335.74C56.0849 335.134 55.3643 334.653 54.5713 334.325C53.7784 333.997 52.9284 333.828 52.0701 333.828C52.0701 335.559 52.7587 337.22 53.9845 338.444C55.2102 339.668 56.8727 340.356 58.6062 340.356Z" fill="white"/>
<path d="M36.1493 317.918C36.1505 316.478 35.8675 315.052 35.3164 313.721C34.7654 312.39 33.9572 311.181 32.9379 310.162C31.9187 309.143 30.7084 308.335 29.3763 307.784C28.0442 307.232 26.6163 306.948 25.1743 306.948C25.1732 308.389 25.4562 309.815 26.0073 311.146C26.5583 312.477 27.3665 313.686 28.3858 314.705C29.405 315.724 30.6153 316.532 31.9474 317.083C33.2795 317.635 34.7074 317.918 36.1493 317.918V317.918Z" fill="white"/>
<path d="M26.0307 304.732C27.2485 304.735 28.455 304.499 29.5813 304.036C30.7075 303.573 31.7313 302.893 32.594 302.035C33.4568 301.176 34.1416 300.156 34.6092 299.033C35.0768 297.91 35.3181 296.706 35.3192 295.49C32.8642 295.49 30.5096 296.463 28.7729 298.196C27.0361 299.929 26.0592 302.28 26.0569 304.732L26.0307 304.732Z" fill="white"/>
<path d="M72.3686 307.751C71.137 307.75 69.9173 307.992 68.7792 308.462C67.6412 308.932 66.6071 309.622 65.7362 310.491C64.8654 311.361 64.1748 312.394 63.704 313.531C63.2332 314.667 62.9915 315.885 62.9927 317.115C65.4793 317.115 67.8641 316.129 69.6224 314.373C71.3808 312.617 72.3686 310.235 72.3686 307.751Z" fill="white"/>
<path d="M51.7643 303.702C52.7048 303.701 53.6359 303.515 54.5043 303.154C55.3727 302.793 56.1613 302.265 56.8252 301.599C57.489 300.934 58.015 300.144 58.3731 299.276C58.7312 298.407 58.9143 297.476 58.912 296.537C57.9715 296.538 57.0404 296.724 56.172 297.085C55.3036 297.446 54.5149 297.974 53.8511 298.64C53.1872 299.305 52.6612 300.095 52.3032 300.963C51.9451 301.832 51.762 302.763 51.7643 303.702V303.702Z" fill="white"/>
<path d="M71.5035 283.961C69.4734 283.961 67.5265 284.767 66.091 286.201C64.6555 287.634 63.849 289.579 63.849 291.606C65.8791 291.606 67.8261 290.801 69.2616 289.367C70.6971 287.933 71.5035 285.989 71.5035 283.961V283.961Z" fill="white"/>
<path d="M1.24079 280.209C3.76069 280.206 6.1766 279.205 7.95762 277.425C9.73864 275.644 10.7391 273.23 10.7391 270.714C8.21917 270.716 5.80327 271.717 4.02224 273.498C2.24122 275.278 1.24079 277.692 1.24079 280.209V280.209Z" fill="white"/>
<path d="M22.6403 308.118C21.5022 308.118 20.3752 308.343 19.3244 308.779C18.2735 309.216 17.3195 309.856 16.5171 310.662C15.7147 311.468 15.0799 312.425 14.6492 313.477C14.2184 314.529 14.0002 315.656 14.0071 316.793C15.1416 316.793 16.2649 316.569 17.3129 316.135C18.3609 315.702 19.313 315.066 20.1148 314.264C20.9166 313.462 21.5523 312.511 21.9857 311.464C22.419 310.417 22.6415 309.295 22.6403 308.161L22.6403 308.118Z" fill="white"/>
<path d="M2.03595 308.493C2.03595 310.576 2.8645 312.574 4.33933 314.047C5.81417 315.52 7.81448 316.347 9.90021 316.347C9.90021 314.264 9.07165 312.267 7.59682 310.794C6.12198 309.321 4.12168 308.493 2.03595 308.493V308.493Z" fill="white"/>
<path d="M86 269.117C86 265.946 84.7388 262.905 82.4937 260.662C80.2487 258.42 77.2038 257.161 74.0289 257.161C74.0289 260.331 75.2901 263.373 77.5351 265.615C79.7801 267.857 82.8251 269.117 86 269.117V269.117Z" fill="white"/>
<path d="M46.9496 283.839C44.8639 283.839 42.8635 284.667 41.3887 286.14C39.9139 287.613 39.0853 289.61 39.0853 291.694C41.1711 291.694 43.1714 290.866 44.6462 289.393C46.121 287.92 46.9496 285.922 46.9496 283.839V283.839Z" fill="white"/>
<path d="M24.6763 281.439C26.2483 281.439 27.805 281.13 29.2574 280.529C30.7098 279.928 32.0295 279.048 33.1411 277.937C34.2528 276.827 35.1345 275.509 35.7362 274.059C36.3378 272.608 36.6474 271.053 36.6474 269.483C33.4725 269.483 30.4275 270.743 28.1825 272.985C25.9375 275.227 24.6763 278.268 24.6763 281.439V281.439Z" fill="white"/>
<path d="M75.0162 305.098C76.329 305.098 77.6289 304.84 78.8417 304.338C80.0545 303.837 81.1565 303.101 82.0847 302.174C83.013 301.247 83.7493 300.146 84.2516 298.935C84.754 297.724 85.0126 296.426 85.0126 295.115C82.3614 295.115 79.8188 296.166 77.9441 298.039C76.0694 299.911 75.0162 302.45 75.0162 305.098V305.098Z" fill="white"/>
<path d="M23.1384 329.569C23.1384 327.023 22.1257 324.581 20.3231 322.781C18.5205 320.981 16.0757 319.969 13.5265 319.969C13.5265 322.515 14.5392 324.957 16.3417 326.757C18.1443 328.558 20.5891 329.569 23.1384 329.569Z" fill="white"/>
<path d="M50.8992 255.249C53.2561 255.249 55.5164 254.314 57.183 252.65C58.8495 250.985 59.7858 248.728 59.7858 246.374C58.6192 246.374 57.464 246.604 56.3864 247.05C55.3087 247.496 54.3296 248.15 53.5051 248.974C52.6806 249.798 52.0268 250.777 51.5812 251.854C51.1356 252.93 50.9068 254.084 50.9079 255.249L50.8992 255.249Z" fill="white"/>
<path d="M58.8508 266.647C58.8566 265.726 58.68 264.814 58.3313 263.962C57.9826 263.11 57.4686 262.335 56.8189 261.682C56.1692 261.029 55.3966 260.511 54.5456 260.157C53.6946 259.804 52.7821 259.622 51.8604 259.622C51.8546 260.542 52.0312 261.455 52.3799 262.307C52.7286 263.159 53.2426 263.934 53.8923 264.587C54.542 265.239 55.3146 265.758 56.1656 266.111C57.0165 266.465 57.9291 266.647 58.8508 266.647Z" fill="white"/>
<path d="M48.1817 257.955C45.4323 257.957 42.7964 259.049 40.8531 260.992C38.9099 262.934 37.8183 265.568 37.8183 268.314C39.18 268.314 40.5283 268.046 41.7862 267.525C43.0441 267.004 44.187 266.241 45.1494 265.279C46.1118 264.317 46.875 263.175 47.3953 261.918C47.9156 260.661 48.1828 259.315 48.1817 257.955V257.955Z" fill="white"/>
<path d="M24.7374 331.166C24.7444 334.3 25.9958 337.303 28.2171 339.517C30.4385 341.731 33.4483 342.974 36.5862 342.974C36.5862 339.835 35.3379 336.825 33.1158 334.606C30.8937 332.387 27.8799 331.14 24.7374 331.14L24.7374 331.166Z" fill="white"/>
<path d="M23.6889 331.725C20.843 331.725 18.1137 332.854 16.1014 334.864C14.089 336.873 12.9585 339.599 12.9585 342.441C15.8044 342.441 18.5337 341.312 20.546 339.303C22.5584 337.293 23.6889 334.567 23.6889 331.725Z" fill="white"/>
<path d="M74.6405 330.119C76.0496 330.12 77.4452 329.844 78.7475 329.306C80.0498 328.769 81.2333 327.98 82.2306 326.986C83.2278 325.992 84.0191 324.811 84.5594 323.511C85.0997 322.211 85.3784 320.818 85.3796 319.411C82.5344 319.411 79.8055 320.538 77.7921 322.546C75.7786 324.554 74.6451 327.277 74.6405 330.119V330.119Z" fill="white"/>
<path d="M59.5324 291.973C59.5324 289.751 58.6486 287.62 57.0755 286.049C55.5023 284.478 53.3687 283.595 51.1439 283.595C51.1439 285.817 52.0277 287.948 53.6008 289.519C55.174 291.09 57.3076 291.973 59.5324 291.973V291.973Z" fill="white"/>
<path d="M21.6529 259.805C19.8862 259.807 18.1926 260.51 16.9442 261.758C15.6957 263.007 14.9945 264.699 14.9945 266.464C16.7612 266.461 18.4548 265.759 19.7032 264.51C20.9517 263.262 21.6529 261.569 21.6529 259.805V259.805Z" fill="white"/>
<path d="M9.97885 267.144C9.97885 265.019 9.13373 262.982 7.6294 261.479C6.12506 259.977 4.08475 259.133 1.95731 259.133C1.95731 260.185 2.16479 261.227 2.56791 262.199C2.97103 263.171 3.56189 264.054 4.30676 264.798C5.05163 265.542 5.93592 266.132 6.90914 266.534C7.88236 266.937 8.92545 267.144 9.97885 267.144V267.144Z" fill="white"/>
<path d="M22.151 303.929C22.1487 301.903 21.3412 299.961 19.9059 298.529C18.4707 297.097 16.525 296.293 14.4964 296.293C14.4987 298.319 15.3062 300.261 16.7415 301.693C18.1767 303.125 20.1224 303.929 22.151 303.929V303.929Z" fill="white"/>
<path d="M46.268 328.024C46.268 327.163 46.0975 326.311 45.7663 325.516C45.4351 324.721 44.9498 324 44.3382 323.393C43.7266 322.786 43.001 322.306 42.2029 321.981C41.4049 321.655 40.5502 321.491 39.6882 321.497C39.6882 323.228 40.3769 324.888 41.6026 326.112C42.8284 327.337 44.4908 328.024 46.2243 328.024L46.268 328.024Z" fill="white"/>
<path d="M83.8417 316.252C83.8394 314.225 83.0319 312.283 81.5966 310.851C80.1614 309.42 78.2157 308.615 76.1871 308.615C76.1894 310.641 76.9969 312.584 78.4322 314.015C79.8674 315.447 81.8131 316.252 83.8417 316.252V316.252Z" fill="white"/>
<path d="M72.4909 258.321C69.9417 258.321 67.4969 259.333 65.6943 261.133C63.8917 262.933 62.8791 265.375 62.8791 267.921C65.4283 267.921 67.8731 266.91 69.6757 265.109C71.4783 263.309 72.4909 260.867 72.4909 258.321V258.321Z" fill="white"/>
<path d="M75.5755 255.249C77.9309 255.247 80.189 254.311 81.8536 252.647C83.5183 250.982 84.4534 248.726 84.4534 246.374C83.2868 246.374 82.1316 246.604 81.0539 247.05C79.9763 247.496 78.9972 248.15 78.1727 248.974C77.3482 249.798 76.6944 250.777 76.2488 251.854C75.8031 252.93 75.5744 254.084 75.5755 255.249V255.249Z" fill="white"/>
<path d="M73.723 330.8C73.723 327.596 72.4489 324.524 70.1809 322.259C67.913 319.994 64.8369 318.721 61.6295 318.721C61.6295 321.925 62.9037 324.997 65.1716 327.262C67.4396 329.527 70.5156 330.8 73.723 330.8Z" fill="white"/>
<path d="M26.4676 328.949C28.6924 328.949 30.826 328.067 32.3992 326.496C33.9723 324.924 34.8561 322.793 34.8561 320.571C32.6313 320.571 30.4977 321.454 28.9245 323.025C27.3514 324.596 26.4676 326.727 26.4676 328.949V328.949Z" fill="white"/>
<path d="M73.1638 305.596C73.1649 304.156 72.8819 302.729 72.3309 301.398C71.7798 300.068 70.9716 298.858 69.9524 297.839C68.9331 296.821 67.7229 296.012 66.3908 295.461C65.0586 294.91 63.6308 294.626 62.1888 294.626C62.1876 296.066 62.4707 297.492 63.0217 298.823C63.5727 300.154 64.381 301.363 65.4002 302.382C66.4194 303.401 67.6297 304.209 68.9618 304.761C70.2939 305.312 71.7218 305.596 73.1638 305.596V305.596Z" fill="white"/>
<path d="M52.0089 278.786C52.8833 278.786 53.7492 278.614 54.557 278.28C55.3648 277.946 56.0988 277.456 56.7171 276.838C57.3354 276.221 57.8259 275.488 58.1605 274.681C58.4951 273.874 58.6673 273.009 58.6673 272.136C56.9014 272.136 55.2078 272.837 53.9591 274.084C52.7104 275.331 52.0089 277.023 52.0089 278.786Z" fill="white"/>
<path d="M23.016 280.139C23.0137 277.655 22.0239 275.273 20.2642 273.517C18.5045 271.761 16.1188 270.775 13.6313 270.775C13.6313 272.005 13.8742 273.224 14.3459 274.36C14.8176 275.497 15.509 276.53 16.3806 277.399C17.2521 278.269 18.2868 278.959 19.4253 279.429C20.5639 279.899 21.784 280.14 23.016 280.139Z" fill="white"/>
<path d="M47.5525 307.874C46.3538 307.874 45.1668 308.109 44.0595 308.568C42.9521 309.026 41.946 309.698 41.0988 310.545C40.2516 311.392 39.5798 312.398 39.1219 313.504C38.6639 314.61 38.4288 315.796 38.43 316.993C39.6287 316.993 40.8157 316.757 41.923 316.299C43.0304 315.841 44.0365 315.169 44.8837 314.322C45.7309 313.475 46.4027 312.469 46.8606 311.363C47.3186 310.256 47.5537 309.071 47.5525 307.874V307.874Z" fill="white"/>
<path d="M71.0055 254.141C71.0066 253.267 70.8352 252.401 70.5011 251.593C70.167 250.786 69.6768 250.051 69.0583 249.433C68.4399 248.815 67.7055 248.324 66.8971 247.989C66.0887 247.654 65.2222 247.482 64.3471 247.482C64.3471 249.247 65.0483 250.939 66.2967 252.188C67.5452 253.436 69.2387 254.139 71.0055 254.141V254.141Z" fill="white"/>
<path d="M85.7553 72.5307C82.7125 72.5307 79.7943 73.7379 77.6427 75.8869C75.491 78.0358 74.2823 80.9503 74.2823 83.9893C77.3251 83.9893 80.2433 82.7821 82.395 80.6332C84.5466 78.4843 85.7553 75.5697 85.7553 72.5307V72.5307Z" fill="white"/>
<path d="M76.3881 86.9478C76.3835 87.9047 76.5681 88.853 76.9313 89.7385C77.2945 90.624 77.8291 91.4291 78.5046 92.1077C79.18 92.7864 79.9829 93.3251 80.8673 93.6932C81.7517 94.0612 82.7001 94.2512 83.6582 94.2524C83.6628 93.2955 83.4782 92.3472 83.115 91.4617C82.7519 90.5762 82.2172 89.7711 81.5418 89.0925C80.8663 88.4138 80.0634 87.875 79.179 87.507C78.2947 87.139 77.3462 86.949 76.3881 86.9478Z" fill="white"/>
<path d="M76.8687 136.744C76.8687 138.411 77.5316 140.009 78.7114 141.188C79.8913 142.366 81.4915 143.028 83.1601 143.028C83.1601 141.361 82.4973 139.763 81.3174 138.585C80.1375 137.406 78.5373 136.744 76.8687 136.744V136.744Z" fill="white"/>
<path d="M50.0953 60.6968C50.0953 63.4743 51.2001 66.138 53.1665 68.1019C55.1329 70.0659 57.8 71.1693 60.581 71.1693C60.581 68.3918 59.4763 65.7281 57.5098 63.7641C55.5434 61.8001 52.8763 60.6968 50.0953 60.6968V60.6968Z" fill="white"/>
<path d="M58.912 50.041C57.9719 50.0399 57.0408 50.224 56.172 50.5828C55.3032 50.9415 54.5138 51.468 53.8491 52.1319C53.1843 52.7958 52.6572 53.5842 52.298 54.4519C51.9387 55.3196 51.7544 56.2495 51.7555 57.1885C53.6536 57.1885 55.4738 56.4355 56.8159 55.095C58.158 53.7546 58.912 51.9366 58.912 50.041V50.041Z" fill="white"/>
<path d="M34.9785 0C33.844 -6.29952e-07 32.7206 0.223312 31.6726 0.657171C30.6246 1.09103 29.6725 1.72693 28.8708 2.52851C28.069 3.33009 27.4332 4.28164 26.9999 5.32876C26.5666 6.37588 26.3441 7.49803 26.3452 8.63107C27.4797 8.63107 28.603 8.40776 29.651 7.9739C30.699 7.54004 31.6512 6.90414 32.4529 6.10256C33.2547 5.30098 33.8905 4.34943 34.3238 3.30231C34.7571 2.25519 34.9796 1.13304 34.9785 0V0Z" fill="white"/>
<path d="M85.1262 48.4963C82.4116 48.4987 79.809 49.5773 77.8904 51.4952C75.9717 53.4131 74.8939 56.0133 74.8939 58.7245C77.6085 58.7222 80.2111 57.6435 82.1298 55.7256C84.0484 53.8077 85.1262 51.2075 85.1262 48.4963V48.4963Z" fill="white"/>
<path d="M76.8687 112.09C76.8687 113.758 77.5313 115.357 78.7109 116.537C79.8905 117.716 81.4907 118.38 83.1601 118.383C83.1613 117.557 82.9994 116.739 82.6837 115.975C82.3681 115.212 81.9048 114.518 81.3205 113.934C80.7362 113.35 80.0422 112.886 79.2784 112.57C78.5145 112.253 77.6956 112.09 76.8687 112.09V112.09Z" fill="white"/>
<path d="M71.5036 37.4653C69.4735 37.4653 67.5265 38.2707 66.091 39.7044C64.6555 41.1381 63.849 43.0826 63.849 45.1102C65.8791 45.1102 67.8261 44.3047 69.2616 42.871C70.6971 41.4373 71.5036 39.4928 71.5036 37.4653V37.4653Z" fill="white"/>
<path d="M46.0845 13.5532C44.4476 13.5555 42.8785 14.2066 41.7218 15.3634C40.5651 16.5203 39.9155 18.0883 39.9155 19.7232C41.5524 19.7209 43.1215 19.0698 44.2782 17.913C45.4349 16.7561 46.0845 15.188 46.0845 13.5532V13.5532Z" fill="white"/>
<path d="M71.1977 32.4734C71.184 30.626 70.4431 28.8581 69.1351 27.5518C67.8271 26.2454 66.057 25.5055 64.2073 25.4918C64.2015 26.4123 64.3781 27.3248 64.7268 28.1769C65.0755 29.029 65.5895 29.8038 66.2392 30.4568C66.8889 31.1097 67.6615 31.6279 68.5125 31.9815C69.3634 32.335 70.276 32.5171 71.1977 32.517L71.1977 32.4734Z" fill="white"/>
<path d="M47.8758 58.4713C47.8735 55.8898 46.8451 53.4148 45.0165 51.5902C43.188 49.7656 40.7089 48.7407 38.1241 48.7407C38.1265 51.3222 39.1549 53.7972 40.9834 55.6218C42.812 57.4464 45.291 58.4713 47.8758 58.4713Z" fill="white"/>
<path d="M71.8094 111.104C69.6162 111.107 67.5137 111.978 65.9638 113.528C64.4138 115.078 63.5432 117.178 63.5432 119.369C64.6294 119.369 65.7051 119.155 66.7085 118.74C67.712 118.324 68.6237 117.715 69.3914 116.948C70.1591 116.18 70.7678 115.269 71.1827 114.266C71.5976 113.264 71.8105 112.189 71.8094 111.104V111.104Z" fill="white"/>
<path d="M60.214 122.694C57.6277 122.694 55.1473 123.72 53.3185 125.547C51.4897 127.373 50.4623 129.85 50.4623 132.433C53.0486 132.433 55.529 131.407 57.3578 129.581C59.1866 127.754 60.214 125.277 60.214 122.694Z" fill="white"/>
<path d="M72.7968 11.5197C70.0799 11.522 67.4751 12.6016 65.5548 14.5211C63.6345 16.4406 62.5558 19.0431 62.5558 21.7566C65.2727 21.7543 67.8775 20.6747 69.7978 18.7552C71.7181 16.8356 72.7968 14.2332 72.7968 11.5197V11.5197Z" fill="white"/>
<path d="M47.937 61.0109C46.6408 61.0098 45.357 61.2638 44.1591 61.7584C42.9611 62.2531 41.8726 62.9786 40.9556 63.8937C40.0386 64.8087 39.3111 65.8953 38.8148 67.0912C38.3185 68.2872 38.063 69.5692 38.063 70.8638C39.3593 70.8649 40.643 70.6109 41.841 70.1163C43.0389 69.6217 44.1274 68.8961 45.0445 67.981C45.9615 67.066 46.6889 65.9794 47.1852 64.7835C47.6816 63.5875 47.937 62.3056 47.937 61.0109V61.0109Z" fill="white"/>
<path d="M21.7752 7.76707C21.7729 5.93927 21.0449 4.187 19.7508 2.89455C18.4567 1.6021 16.7023 0.87499 14.8722 0.87268C14.8745 2.70048 15.6025 4.45275 16.8966 5.7452C18.1907 7.03764 19.9451 7.76476 21.7752 7.76707Z" fill="white"/>
<path d="M62.8004 122.694C62.8004 125.277 63.8279 127.754 65.6566 129.581C67.4854 131.407 69.9658 132.433 72.5521 132.433C72.5521 129.85 71.5247 127.373 69.6959 125.547C67.8671 123.72 65.3868 122.694 62.8004 122.694V122.694Z" fill="white"/>
<path d="M0.244659 83.9981C3.28982 83.9981 6.21027 82.7899 8.36353 80.6393C10.5168 78.4888 11.7265 75.572 11.7265 72.5307C8.68131 72.5307 5.76086 73.7389 3.6076 75.8894C1.45435 78.04 0.244659 80.9567 0.244659 83.9981V83.9981Z" fill="white"/>
<path d="M27.3938 161.268C27.3927 162.125 27.5609 162.975 27.8888 163.768C28.2168 164.561 28.6981 165.282 29.3051 165.889C29.9121 166.496 30.6331 166.978 31.4266 167.306C32.2202 167.635 33.0708 167.804 33.9299 167.804C33.931 166.946 33.7628 166.096 33.4349 165.303C33.1069 164.51 32.6257 163.79 32.0186 163.183C31.4116 162.575 30.6907 162.094 29.8971 161.765C29.1035 161.437 28.2529 161.268 27.3938 161.268V161.268Z" fill="white"/>
<path d="M9.62933 69.5722C9.62702 67.6434 8.85821 65.7943 7.49178 64.4313C6.12535 63.0682 4.27305 62.3025 2.34179 62.3026C2.34179 63.2579 2.53035 64.204 2.89669 65.0865C3.26303 65.9691 3.79997 66.7709 4.47679 67.4461C5.15362 68.1212 5.95706 68.6565 6.84117 69.0213C7.72529 69.3862 8.67273 69.5733 9.62933 69.5722Z" fill="white"/>
<path d="M64.5917 93.6676C65.4019 93.6676 66.2041 93.5082 66.9525 93.1986C67.701 92.889 68.3811 92.4351 68.9539 91.863C69.5268 91.2909 69.9812 90.6116 70.2912 89.8641C70.6012 89.1166 70.7608 88.3154 70.7608 87.5063C69.1247 87.5063 67.5555 88.1554 66.3986 89.3109C65.2417 90.4664 64.5917 92.0335 64.5917 93.6676V93.6676Z" fill="white"/>
<path d="M49.8506 183.705C49.8495 185.145 50.1325 186.571 50.6836 187.902C51.2346 189.233 52.0428 190.442 53.0621 191.461C54.0813 192.48 55.2916 193.288 56.6237 193.84C57.9558 194.391 59.3837 194.675 60.8256 194.675C60.8268 193.235 60.5438 191.808 59.9927 190.477C59.4417 189.147 58.6335 187.937 57.6142 186.918C56.595 185.9 55.3847 185.091 54.0526 184.54C52.7205 183.989 51.2926 183.705 49.8506 183.705V183.705Z" fill="white"/>
<path d="M9.10507 19.7843C9.10621 18.9584 8.94433 18.1404 8.62867 17.377C8.31301 16.6137 7.84977 15.9199 7.26545 15.3355C6.68112 14.7511 5.98718 14.2875 5.2233 13.9712C4.45942 13.6549 3.6406 13.4921 2.81367 13.4921C2.81252 14.318 2.9744 15.136 3.29005 15.8993C3.60571 16.6627 4.06895 17.3564 4.65328 17.9408C5.2376 18.5252 5.93155 18.9888 6.69543 19.3051C7.45931 19.6215 8.27813 19.7843 9.10507 19.7843V19.7843Z" fill="white"/>
<path d="M59.9693 196.891C57.5151 196.891 55.1614 197.865 53.426 199.598C51.6906 201.332 50.7157 203.682 50.7157 206.133C53.1699 206.133 55.5236 205.16 57.259 203.426C58.9944 201.693 59.9693 199.343 59.9693 196.891V196.891Z" fill="white"/>
<path d="M13.6313 193.872C16.1203 193.872 18.5073 192.884 20.2673 191.127C22.0273 189.369 23.016 186.985 23.016 184.499C20.5271 184.499 18.14 185.486 16.3801 187.244C14.6201 189.002 13.6313 191.386 13.6313 193.872V193.872Z" fill="white"/>
<path d="M34.2444 197.939C33.3043 197.938 32.3732 198.122 31.5044 198.48C30.6356 198.839 29.8463 199.366 29.1815 200.03C28.5167 200.693 27.9896 201.482 27.6304 202.35C27.2711 203.217 27.0868 204.147 27.088 205.086C28.986 205.086 30.8063 204.333 32.1484 202.993C33.4905 201.652 34.2444 199.834 34.2444 197.939V197.939Z" fill="white"/>
<path d="M14.4964 217.653C16.525 217.653 18.4707 216.849 19.9059 215.417C21.3412 213.985 22.1487 212.043 22.151 210.017C20.1224 210.017 18.1767 210.821 16.7415 212.253C15.3062 213.685 14.4987 215.627 14.4964 217.653Z" fill="white"/>
<path d="M84.7679 221.414C83.5198 221.414 82.284 221.66 81.1311 222.137C79.9781 222.615 78.9306 223.314 78.0485 224.196C77.1664 225.078 76.467 226.125 75.9901 227.277C75.5133 228.429 75.2685 229.663 75.2696 230.91C77.7895 230.907 80.2054 229.906 81.9865 228.125C83.7675 226.345 84.7679 223.931 84.7679 221.414V221.414Z" fill="white"/>
<path d="M63.3597 193.497C64.4956 193.5 65.6211 193.28 66.6715 192.848C67.722 192.416 68.6768 191.781 69.4812 190.98C70.2857 190.179 70.9239 189.228 71.3594 188.18C71.7949 187.132 72.0191 186.009 72.0191 184.874C69.7294 184.874 67.5335 185.783 65.9145 187.4C64.2955 189.017 63.3859 191.21 63.3859 193.497L63.3597 193.497Z" fill="white"/>
<path d="M83.964 193.13C83.964 191.047 83.1355 189.049 81.6606 187.576C80.1858 186.103 78.1855 185.276 76.0998 185.276C76.0998 187.359 76.9283 189.357 78.4032 190.83C79.878 192.303 81.8783 193.13 83.964 193.13V193.13Z" fill="white"/>
<path d="M64.0413 143.525C64.9979 143.525 65.9451 143.337 66.8288 142.971C67.7124 142.605 68.5152 142.069 69.1912 141.393C69.8673 140.717 70.4032 139.915 70.7685 139.032C71.1338 138.149 71.3212 137.202 71.3201 136.247C69.3888 136.249 67.5374 137.017 66.1726 138.382C64.8078 139.747 64.0413 141.597 64.0413 143.525V143.525Z" fill="white"/>
<path d="M35.9047 95.8232C35.9047 93.0458 34.8 90.3821 32.8335 88.4181C30.8671 86.4541 28.2 85.3508 25.419 85.3508C25.419 88.1282 26.5238 90.792 28.4902 92.7559C30.4566 94.7199 33.1237 95.8232 35.9047 95.8232V95.8232Z" fill="white"/>
<path d="M76.6852 130.906C77.564 130.911 78.435 130.741 79.2481 130.408C80.0611 130.075 80.8 129.584 81.4222 128.965C82.0445 128.345 82.5377 127.608 82.8735 126.797C83.2092 125.986 83.3809 125.116 83.3786 124.239C82.4998 124.234 81.6288 124.403 80.8157 124.736C80.0027 125.07 79.2638 125.56 78.6416 126.18C78.0193 126.8 77.5261 127.537 77.1903 128.348C76.8546 129.159 76.6829 130.028 76.6852 130.906V130.906Z" fill="white"/>
<path d="M58.7285 93.9731C58.7297 93.0812 58.5542 92.1979 58.2122 91.374C57.8702 90.5501 57.3685 89.8019 56.7358 89.1725C56.1031 88.5431 55.3521 88.0448 54.5258 87.7064C53.6996 87.3681 52.8145 87.1962 51.9216 87.2008C51.9216 88.9969 52.636 90.7195 53.9076 91.9895C55.1792 93.2596 56.9039 93.9731 58.7023 93.9731L58.7285 93.9731Z" fill="white"/>
<path d="M-1.4875e-05 232.507C-1.50136e-05 235.678 1.26122 238.719 3.50625 240.961C5.75128 243.203 8.79618 244.463 11.9711 244.463C11.9711 241.292 10.7099 238.251 8.46486 236.008C6.21984 233.766 3.17493 232.507 -1.4875e-05 232.507Z" fill="white"/>
<path d="M39.0504 217.775C41.1361 217.775 43.1364 216.948 44.6113 215.475C46.0861 214.002 46.9146 212.004 46.9146 209.921C44.8289 209.921 42.8286 210.748 41.3538 212.221C39.8789 213.694 39.0504 215.692 39.0504 217.775V217.775Z" fill="white"/>
<path d="M61.3237 220.184C58.1488 220.184 55.1038 221.444 52.8588 223.686C50.6138 225.928 49.3526 228.969 49.3526 232.14C52.5275 232.14 55.5724 230.88 57.8174 228.638C60.0625 226.396 61.3237 223.355 61.3237 220.184V220.184Z" fill="white"/>
<path d="M10.9837 196.516C8.33254 196.516 5.78993 197.568 3.91525 199.44C2.04057 201.313 0.987388 203.852 0.987388 206.5C3.63858 206.5 6.18119 205.448 8.05587 203.576C9.93055 201.703 10.9837 199.164 10.9837 196.516V196.516Z" fill="white"/>
<path d="M62.8616 172.054C62.8616 174.6 63.8743 177.042 65.6769 178.842C67.4794 180.643 69.9243 181.654 72.4735 181.654C72.4735 179.108 71.4608 176.666 69.6582 174.866C67.8557 173.066 65.4108 172.054 62.8616 172.054V172.054Z" fill="white"/>
<path d="M35.1008 246.374C33.9342 246.374 32.779 246.604 31.7013 247.05C30.6237 247.496 29.6446 248.15 28.8201 248.974C27.9956 249.798 27.3418 250.777 26.8962 251.854C26.4505 252.93 26.2218 254.084 26.2229 255.249C28.5783 255.247 30.8364 254.311 32.501 252.647C34.1657 250.982 35.1008 248.726 35.1008 246.374V246.374Z" fill="white"/>
<path d="M27.1492 234.976C27.1434 235.897 27.3199 236.809 27.6687 237.661C28.0174 238.514 28.5314 239.288 29.1811 239.941C29.8308 240.594 30.6034 241.112 31.4543 241.466C32.3053 241.82 33.2179 242.002 34.1396 242.002C34.1454 241.081 33.9688 240.169 33.6201 239.316C33.2714 238.464 32.7574 237.69 32.1077 237.037C31.458 236.384 30.6854 235.865 29.8344 235.512C28.9834 235.158 28.0708 234.976 27.1492 234.976V234.976Z" fill="white"/>
<path d="M37.1979 245.021C37.2072 248.089 38.4338 251.028 40.609 253.194C42.7842 255.36 45.7305 256.576 48.8021 256.576C48.7997 253.504 47.5761 250.558 45.4002 248.386C43.2243 246.215 40.274 244.995 37.1979 244.995L37.1979 245.021Z" fill="white"/>
<path d="M37.8183 243.66C40.5669 243.66 43.2028 242.569 45.1463 240.628C47.0898 238.687 48.1817 236.055 48.1817 233.309C45.4331 233.309 42.7972 234.4 40.8537 236.341C38.9102 238.282 37.8183 240.915 37.8183 243.66V243.66Z" fill="white"/>
<path d="M27.088 106.47C28.986 106.47 30.8063 105.717 32.1484 104.377C33.4905 103.036 34.2444 101.218 34.2444 99.3228C33.3043 99.3216 32.3732 99.5057 31.5044 99.8645C30.6356 100.223 29.8463 100.75 29.1815 101.414C28.5167 102.078 27.9896 102.866 27.6304 103.734C27.2711 104.601 27.0868 105.531 27.088 106.47Z" fill="white"/>
<path d="M61.2625 170.448C61.2602 167.311 60.0108 164.304 57.789 162.086C55.5672 159.869 52.5547 158.623 49.4137 158.623C49.416 161.76 50.6654 164.768 52.8873 166.985C55.1091 169.203 58.1216 170.448 61.2625 170.448V170.448Z" fill="white"/>
<path d="M51.0478 156.529C52.1822 156.529 53.3056 156.305 54.3536 155.871C55.4016 155.438 56.3537 154.802 57.1554 154C57.9572 153.199 58.593 152.247 59.0263 151.2C59.4597 150.153 59.6821 149.031 59.681 147.898C58.5465 147.898 57.4232 148.121 56.3752 148.555C55.3272 148.989 54.3751 149.625 53.5733 150.426C52.7715 151.228 52.1358 152.179 51.7024 153.226C51.2691 154.273 51.0466 155.396 51.0478 156.529V156.529Z" fill="white"/>
<path d="M62.3111 169.899C63.721 169.899 65.117 169.621 66.4194 169.082C67.7219 168.543 68.9052 167.753 69.9017 166.757C70.8982 165.76 71.6884 164.578 72.2271 163.277C72.7659 161.976 73.0426 160.581 73.0414 159.173C71.6316 159.173 70.2355 159.45 68.9331 159.99C67.6307 160.529 66.4474 161.319 65.4509 162.315C64.4543 163.311 63.6641 164.493 63.1254 165.795C62.5867 167.096 62.3099 168.49 62.3111 169.899V169.899Z" fill="white"/>
<path d="M0.865066 108.024C3.58115 108.024 6.18599 106.946 8.10656 105.028C10.0271 103.11 11.1061 100.508 11.1061 97.7955C9.76121 97.7955 8.42951 98.0601 7.18701 98.5741C5.94451 99.0881 4.81556 99.8415 3.86459 100.791C2.91362 101.741 2.15928 102.869 1.64462 104.11C1.12996 105.35 0.865066 106.68 0.865066 108.024V108.024Z" fill="white"/>
<path d="M9.10504 44.4295C9.10504 42.763 8.4422 41.1648 7.26233 39.9864C6.08246 38.808 4.48223 38.146 2.81364 38.146C2.81364 39.8125 3.47648 41.4107 4.65635 42.5891C5.83621 43.7675 7.43646 44.4295 9.10504 44.4295V44.4295Z" fill="white"/>
<path d="M14.811 69.45C16.665 69.45 18.443 68.7144 19.754 67.4051C21.065 66.0958 21.8015 64.32 21.8015 62.4683C19.9475 62.4683 18.1694 63.2039 16.8585 64.5132C15.5475 65.8225 14.811 67.5983 14.811 69.45Z" fill="white"/>
<path d="M14.4964 119.055C16.525 119.055 18.4707 118.25 19.9059 116.819C21.3412 115.387 22.1487 113.445 22.151 111.419C20.1224 111.419 18.1767 112.223 16.7415 113.655C15.3062 115.086 14.4987 117.029 14.4964 119.055V119.055Z" fill="white"/>
<path d="M25.1132 59.1608C28.0542 59.1538 30.8723 57.9821 32.9494 55.9027C35.0266 53.8233 36.1931 51.0059 36.1931 48.0687C33.2491 48.071 30.4264 49.2406 28.3455 51.3205C26.2646 53.4005 25.0957 56.2205 25.0957 59.1608L25.1132 59.1608Z" fill="white"/>
<path d="M34.3056 69.5722C34.3056 68.6168 34.1171 67.6708 33.7507 66.7882C33.3844 65.9057 32.8475 65.1039 32.1706 64.4287C31.4938 63.7535 30.6904 63.2182 29.8063 62.8534C28.9221 62.4886 27.9747 62.3014 27.0181 62.3026C27.0181 63.258 27.2066 64.204 27.573 65.0865C27.9393 65.9691 28.4763 66.7709 29.1531 67.4461C29.8299 68.1212 30.6334 68.6565 31.5175 69.0213C32.4016 69.3862 33.349 69.5734 34.3056 69.5722Z" fill="white"/>
<path d="M39.9155 142.967C41.5516 142.967 43.1207 142.318 44.2777 141.162C45.4346 140.007 46.0845 138.44 46.0845 136.806C45.2744 136.806 44.4722 136.965 43.7237 137.275C42.9753 137.584 42.2952 138.038 41.7223 138.61C41.1495 139.182 40.6951 139.861 40.3851 140.609C40.075 141.357 39.9155 142.158 39.9155 142.967V142.967Z" fill="white"/>
<path d="M11.3507 171.504C8.50488 171.504 5.77557 172.633 3.76324 174.643C1.75091 176.653 0.620399 179.379 0.620399 182.221C3.46626 182.221 6.19557 181.092 8.2079 179.082C10.2202 177.072 11.3507 174.347 11.3507 171.504Z" fill="white"/>
<path d="M26.4676 209.642C26.4664 210.743 26.6825 211.833 27.1036 212.85C27.5246 213.868 28.1424 214.792 28.9214 215.571C29.7005 216.35 30.6256 216.968 31.6439 217.39C32.6622 217.811 33.7538 218.028 34.8561 218.028C34.8573 216.927 34.6411 215.837 34.2201 214.82C33.799 213.802 33.1813 212.877 32.4022 212.099C31.6232 211.32 30.6981 210.702 29.6797 210.28C28.6614 209.859 27.5699 209.642 26.4676 209.642V209.642Z" fill="white"/>
<path d="M14.811 124.047C14.8052 124.967 14.9818 125.88 15.3305 126.732C15.6792 127.584 16.1932 128.359 16.8429 129.012C17.4926 129.665 18.2652 130.183 19.1162 130.536C19.9672 130.89 20.8798 131.072 21.8014 131.072C21.8072 130.151 21.6306 129.239 21.2819 128.387C20.9332 127.535 20.4192 126.76 19.7695 126.107C19.1198 125.454 18.3472 124.936 17.4963 124.582C16.6453 124.229 15.7327 124.047 14.811 124.047Z" fill="white"/>
<path d="M64.3471 241.81C66.113 241.81 67.8066 241.109 69.0553 239.862C70.304 238.615 71.0055 236.923 71.0055 235.16C69.2395 235.16 67.546 235.86 66.2973 237.107C65.0486 238.354 64.3471 240.046 64.3471 241.81V241.81Z" fill="white"/>
<path d="M76.0036 234.479C76.0036 236.604 76.8488 238.641 78.3531 240.144C79.8574 241.646 81.8977 242.49 84.0252 242.49C84.0252 240.366 83.1801 238.328 81.6757 236.825C80.1714 235.323 78.1311 234.479 76.0036 234.479V234.479Z" fill="white"/>
<path d="M63.849 197.694C63.8513 199.72 64.6588 201.663 66.094 203.094C67.5293 204.526 69.4749 205.331 71.5035 205.331C71.5012 203.304 70.6937 201.362 69.2585 199.93C67.8232 198.499 65.8776 197.694 63.849 197.694Z" fill="white"/>
<path d="M39.6883 173.599C39.6883 175.33 40.3769 176.991 41.6026 178.215C42.8284 179.439 44.4909 180.127 46.2243 180.127C46.2243 178.395 45.5357 176.735 44.31 175.511C43.0842 174.287 41.4217 173.599 39.6883 173.599V173.599Z" fill="white"/>
<path d="M51.3274 106.915C53.4548 106.915 55.4951 106.071 56.9995 104.569C58.5038 103.066 59.3489 101.029 59.3489 98.9039C57.2215 98.9039 55.1811 99.7479 53.6768 101.25C52.1725 102.753 51.3274 104.791 51.3274 106.915V106.915Z" fill="white"/>
<path d="M2.11459 185.363C2.11459 187.39 2.92105 189.335 4.35655 190.769C5.79206 192.202 7.73902 193.008 9.76913 193.008C9.76913 190.98 8.96267 189.036 7.52717 187.602C6.09166 186.168 4.1447 185.363 2.11459 185.363V185.363Z" fill="white"/>
<path d="M13.4741 243.293C16.0233 243.293 18.4681 242.282 20.2707 240.482C22.0733 238.681 23.0859 236.24 23.0859 233.693C20.5367 233.693 18.0919 234.705 16.2893 236.505C14.4867 238.306 13.4741 240.747 13.4741 243.293Z" fill="white"/>
<path d="M10.4245 246.374C9.25791 246.374 8.10275 246.604 7.02507 247.05C5.94739 247.496 4.96831 248.15 4.14381 248.974C3.3193 249.798 2.66555 250.777 2.21991 251.854C1.77427 252.93 1.54548 254.084 1.54663 255.249C3.90199 255.247 6.16009 254.311 7.82476 252.647C9.48943 250.982 10.4245 248.726 10.4245 246.374V246.374Z" fill="white"/>
<path d="M38.1241 98.0399C38.1241 100.623 39.1516 103.1 40.9803 104.927C42.8091 106.753 45.2895 107.779 47.8758 107.779C47.8758 106.5 47.6236 105.234 47.1335 104.052C46.6435 102.871 45.9252 101.797 45.0196 100.893C44.1141 99.9881 43.0391 99.2707 41.856 98.7813C40.6728 98.2918 39.4048 98.0399 38.1241 98.0399V98.0399Z" fill="white"/>
<path d="M1.85247 33.093C4.04409 33.0907 6.14529 32.2202 7.69501 30.6724C9.24472 29.1246 10.1164 27.0261 10.1187 24.8372C9.03283 24.8361 7.9574 25.0488 6.95398 25.4633C5.95056 25.8778 5.03884 26.4859 4.27102 27.2527C3.5032 28.0196 2.89436 28.9302 2.47936 29.9323C2.06435 30.9345 1.85132 32.0085 1.85247 33.093Z" fill="white"/>
<path d="M14.1906 45.3807C16.3829 45.3807 18.4855 44.5109 20.0357 42.9627C21.5859 41.4144 22.4568 39.3145 22.4568 37.1249C20.2652 37.1272 18.164 37.9978 16.6143 39.5456C15.0646 41.0933 14.1929 43.1919 14.1906 45.3807V45.3807Z" fill="white"/>
<path d="M12.277 170.824C12.277 172.41 12.5898 173.98 13.1975 175.446C13.8053 176.911 14.6961 178.243 15.8191 179.364C16.9421 180.486 18.2752 181.375 19.7425 181.982C21.2097 182.589 22.7823 182.902 24.3705 182.902C24.3705 179.699 23.0963 176.626 20.8284 174.361C18.5604 172.096 15.4844 170.824 12.277 170.824V170.824Z" fill="white"/>
<path d="M59.5324 172.674C57.3076 172.674 55.174 173.556 53.6008 175.128C52.0277 176.699 51.1439 178.83 51.1439 181.052C53.3686 181.052 55.5023 180.169 57.0755 178.598C58.6486 177.027 59.5324 174.896 59.5324 172.674V172.674Z" fill="white"/>
<path d="M25.786 33.8349C28.3723 33.8349 30.8527 32.8088 32.6815 30.9823C34.5103 29.1558 35.5377 26.6785 35.5377 24.0955C32.9514 24.0955 30.471 25.1216 28.6422 26.9481C27.7367 27.8525 27.0184 28.9261 26.5283 30.1078C26.0383 31.2894 25.786 32.5559 25.786 33.8349V33.8349Z" fill="white"/>
<path d="M21.9675 13.0034C21.0109 13.0022 20.0634 13.1894 19.1793 13.5542C18.2952 13.919 17.4918 14.4543 16.815 15.1295C16.1381 15.8047 15.6012 16.6065 15.2349 17.489C14.8685 18.3716 14.68 19.3176 14.68 20.273C15.6366 20.2742 16.584 20.087 17.4681 19.7221C18.3522 19.3573 19.1557 18.822 19.8325 18.1469C20.5093 17.4717 21.0463 16.6699 21.4126 15.7874C21.7789 14.9048 21.9675 13.9588 21.9675 13.0034Z" fill="white"/>
<path d="M12.8362 196.027C12.8351 197.468 13.1181 198.894 13.6691 200.225C14.2201 201.556 15.0284 202.765 16.0476 203.784C17.0669 204.803 18.2771 205.611 19.6092 206.162C20.9414 206.714 22.3692 206.997 23.8112 206.997C23.8124 205.557 23.5293 204.131 22.9783 202.8C22.4273 201.469 21.619 200.26 20.5998 199.241C19.5806 198.222 18.3703 197.414 17.0382 196.863C15.7061 196.311 14.2782 196.027 12.8362 196.027V196.027Z" fill="white"/>
<path d="M33.9911 222.828C33.1133 222.829 32.2444 223.004 31.4342 223.341C30.6241 223.678 29.8886 224.172 29.2699 224.794C28.6513 225.416 28.1617 226.154 27.8293 226.965C27.4968 227.776 27.3281 228.645 27.3327 229.522C28.2078 229.522 29.0743 229.35 29.8827 229.015C30.6911 228.68 31.4255 228.19 32.0439 227.571C32.6623 226.953 33.1526 226.219 33.4867 225.411C33.8208 224.603 33.9922 223.737 33.9911 222.863L33.9911 222.828Z" fill="white"/>
<path d="M13.2032 145C15.9193 145 18.5241 143.923 20.4447 142.004C22.3653 140.086 23.4442 137.485 23.4442 134.772C20.7281 134.772 18.1233 135.85 16.2027 137.768C14.2822 139.686 13.2032 142.288 13.2032 145Z" fill="white"/>
<path d="M62.9927 221.476C62.9915 222.706 63.2333 223.924 63.704 225.06C64.1748 226.197 64.8654 227.23 65.7363 228.1C66.6071 228.969 67.6412 229.659 68.7792 230.129C69.9173 230.599 71.137 230.841 72.3686 230.84C72.3663 228.357 71.3777 225.976 69.6199 224.221C67.8621 222.465 65.4786 221.478 62.9927 221.476Z" fill="white"/>
<path d="M38.4387 193.741C40.8559 193.736 43.1727 192.775 44.8811 191.067C46.5895 189.359 47.5502 187.044 47.5525 184.63C45.1346 184.632 42.8165 185.593 41.1076 187.301C39.3986 189.01 38.4387 191.326 38.4387 193.741V193.741Z" fill="white"/>
<path d="M38.063 95.5178C40.6818 95.5178 43.1932 94.4788 45.045 92.6294C46.8967 90.78 47.937 88.2716 47.937 85.6562C45.3183 85.6562 42.8068 86.6952 40.955 88.5446C39.1033 90.394 38.063 92.9023 38.063 95.5178V95.5178Z" fill="white"/>
<path d="M14.9945 247.482C14.9945 249.247 15.6957 250.939 16.9442 252.188C18.1926 253.436 19.8862 254.139 21.6529 254.141C21.6541 253.267 21.4827 252.401 21.1486 251.593C20.8145 250.786 20.3242 250.051 19.7058 249.433C19.0874 248.815 18.353 248.324 17.5446 247.989C16.7362 247.654 15.8696 247.482 14.9945 247.482V247.482Z" fill="white"/>
<path d="M64.2247 148.762C64.2247 149.669 64.4038 150.567 64.7517 151.405C65.0996 152.243 65.6095 153.005 66.2523 153.646C66.895 154.287 67.658 154.795 68.4976 155.142C69.3372 155.488 70.2369 155.666 71.1453 155.665C71.1453 153.834 70.4171 152.078 69.1209 150.784C67.8247 149.489 66.0666 148.762 64.2335 148.762L64.2247 148.762Z" fill="white"/>
<path d="M23.1996 33.8349C23.1996 31.2563 22.1758 28.783 20.3526 26.9573C18.5295 25.1316 16.0559 24.1024 13.4741 24.0955C13.4741 26.674 14.4979 29.1473 16.321 30.973C18.1441 32.7988 20.6178 33.8279 23.1996 33.8349V33.8349Z" fill="white"/>
</g>
<defs>
<clipPath id="clip0">
<rect width="343" height="86" fill="white" transform="translate(86) rotate(90)"/>
</clipPath>
</defs>
</svg>
