<svg width="19" height="21" viewBox="0 0 19 21" fill="none" xmlns="http://www.w3.org/2000/svg">
<path d="M18.4629 14.8349L15.8114 12.014C14.8644 11.0065 13.2546 11.4095 12.8758 12.7192C12.5917 13.626 11.6447 14.1297 10.7925 13.9282C8.89855 13.4244 6.34174 10.805 5.86826 8.68936C5.58417 7.7826 6.15235 6.77514 7.00462 6.47294C8.23567 6.06996 8.61446 4.35727 7.66749 3.34981L5.01599 0.528918C4.25842 -0.176306 3.12206 -0.176306 2.45918 0.528918L0.659947 2.4431C-1.13929 4.45802 0.84934 9.79757 5.30008 14.5326C9.75082 19.2677 14.7697 21.4842 16.6637 19.4692L18.4629 17.555C19.1258 16.7491 19.1258 15.5401 18.4629 14.8349Z" fill="#0089B6"/>
</svg>
