<svg width="50" height="50" viewBox="0 0 50 50" fill="none" xmlns="http://www.w3.org/2000/svg">
<path d="M50 25.8065V19.3548H33.871V18.5484C33.871 15.6629 31.6927 13.279 28.8952 12.9468C29.971 11.9177 30.6452 10.4734 30.6452 8.87097V2.51694C30.6452 1.12903 29.5161 0 28.1282 0C27.5621 0 27.0048 0.195968 26.5637 0.545968C26 0.190323 25.3484 0 24.6661 0H22.9145C20.9516 0 19.3548 1.59677 19.3548 3.55968V8.87097C19.3548 10.4734 20.029 11.9177 21.1048 12.9468C18.3073 13.279 16.129 15.6629 16.129 18.5484V19.3548H0V25.8065H1.6129V43.5484H0V50H50V43.5484H48.3871V25.8065H50ZM20.9677 3.55968C20.9677 2.48629 21.8411 1.6129 22.9145 1.6129H24.6661C25.1863 1.6129 25.675 1.81532 26.0427 2.18306L26.6129 2.75323L27.4887 1.87742C27.6573 1.70887 27.8903 1.6129 28.1282 1.6129C28.6266 1.6129 29.0323 2.01855 29.0323 2.51694V5.48065C28.2315 5.18226 27.471 4.55403 27.1823 4.26774L26.6129 3.70645L26.0444 4.26613C26.0242 4.28629 24.1137 6.12823 20.9677 6.41129V3.55968ZM20.9677 8.87097V8.02177C23.7258 7.81371 25.6895 6.60645 26.6032 5.90323C27.15 6.34032 28.0355 6.92742 29.0323 7.15645V8.87097C29.0323 11.0944 27.2234 12.9032 25 12.9032C22.7766 12.9032 20.9677 11.0944 20.9677 8.87097ZM17.7419 18.5484C17.7419 16.325 19.5508 14.5161 21.7742 14.5161H28.2258C30.4492 14.5161 32.2581 16.325 32.2581 18.5484V19.3548H29.8387V17.7419H28.2258V19.3548H21.7742V17.7419H20.1613V19.3548H17.7419V18.5484ZM48.3871 48.3871H1.6129V45.1613H48.3871V48.3871ZM3.22581 43.5484V25.8065H7.25806V43.5484H3.22581ZM8.87097 43.5484V25.8065H12.9032V43.5484H8.87097ZM14.5161 43.5484V25.8065H18.5484V43.5484H14.5161ZM20.1613 43.5484V25.8065H24.1935V43.5484H20.1613ZM25.8065 43.5484V25.8065H29.8387V43.5484H25.8065ZM31.4516 43.5484V25.8065H35.4839V43.5484H31.4516ZM42.7419 27.4194V25.8065H46.7742V43.5484H42.7419V29.0323H41.129V43.5484H37.0968V25.8065H41.129V27.4194H42.7419ZM1.6129 24.1935V20.9677H48.3871V24.1935H1.6129Z" fill="white"/>
<path d="M45.1611 12.9032C45.1611 15.0814 44.4458 16.5629 44.4393 16.575L45.8821 17.2968C45.9184 17.2226 46.774 15.4831 46.774 12.9032C46.774 11.5387 46.3345 10.4395 45.9103 9.37822C45.5248 8.41531 45.1611 7.50644 45.1611 6.4516C45.1611 4.41451 46.5264 3.0016 46.5401 2.98709L45.9676 2.41934L45.3974 1.84918C45.3216 1.92499 43.5482 3.72983 43.5482 6.4516C43.5482 7.81612 43.9877 8.91532 44.4119 9.97661C44.7974 10.9395 45.1611 11.8484 45.1611 12.9032Z" fill="white"/>
<path d="M4.03234 12.9032C4.03234 15.0814 3.31701 16.5629 3.31056 16.575L4.7533 17.2968C4.78959 17.2226 5.64524 15.4831 5.64524 12.9032C5.64524 11.5387 5.20572 10.4395 4.78153 9.37822C4.39605 8.41531 4.03234 7.50644 4.03234 6.4516C4.03234 4.41451 5.39766 3.0016 5.41137 2.98709L4.83879 2.41934L4.26863 1.84918C4.19282 1.92499 2.41943 3.72983 2.41943 6.4516C2.41943 7.81612 2.85895 8.91532 3.28314 9.97661C3.66863 10.9395 4.03234 11.8484 4.03234 12.9032Z" fill="white"/>
<path d="M10.4838 12.9032C10.4838 15.0814 9.76843 16.5629 9.76198 16.575L11.2047 17.2968C11.241 17.2226 12.0967 15.4831 12.0967 12.9032C12.0967 11.5387 11.6571 10.4395 11.2329 9.37822C10.8475 8.41531 10.4838 7.50644 10.4838 6.4516C10.4838 4.41451 11.8491 3.0016 11.8628 2.98709L11.2902 2.41934L10.72 1.84918C10.6442 1.92499 8.87085 3.72983 8.87085 6.4516C8.87085 7.81612 9.31037 8.91532 9.73456 9.97661C10.12 10.9395 10.4838 11.8484 10.4838 12.9032Z" fill="white"/>
<path d="M38.7098 12.9032H40.3227C40.3227 11.5387 39.8832 10.4395 39.459 9.37821C39.0735 8.41531 38.7098 7.50644 38.7098 6.4516C38.7098 4.4145 40.0751 3.0016 40.0889 2.98709L39.5163 2.41934L38.9461 1.84918C38.8703 1.92499 37.0969 3.72983 37.0969 6.4516C37.0969 7.81612 37.5364 8.91531 37.9606 9.9766C38.3461 10.9395 38.7098 11.8484 38.7098 12.9032Z" fill="white"/>
<path d="M37.9868 16.5766L39.4312 17.2952C39.4513 17.2533 39.9505 16.2395 40.1917 14.6371L38.5957 14.396C38.3957 15.7299 37.99 16.5702 37.9868 16.5766Z" fill="white"/>
</svg>
