<svg width="50" height="50" viewBox="0 0 50 50" fill="none" xmlns="http://www.w3.org/2000/svg">
<path d="M5.3037 50H40.302L44.3364 24.3439H1.26965L5.3037 50ZM39.0497 48.5352H6.55606L2.98283 25.8087H42.6229L39.0497 48.5352Z" fill="white"/>
<path d="M20.2068 6.01808C20.2068 7.44936 21.3714 8.61398 22.8027 8.61398C24.234 8.61398 25.3986 7.44936 25.3986 6.01808C25.3986 4.58643 24.234 3.42218 22.8027 3.42218C21.3714 3.42218 20.2068 4.58643 20.2068 6.01808ZM23.9337 6.01808C23.9337 6.64178 23.4264 7.14914 22.8027 7.14914C22.179 7.14914 21.6716 6.64178 21.6716 6.01808C21.6716 5.39438 22.179 4.88702 22.8027 4.88702C23.4264 4.88702 23.9337 5.39438 23.9337 6.01808Z" fill="white"/>
<path d="M5.91362 18.2232L6.94931 17.1875L5.91706 16.1549C5.36507 15.6033 5.36507 14.7099 5.91706 14.1579L10.9547 9.12018C12.0789 7.99599 12.0793 6.176 10.9547 5.0518L9.92211 4.01917L8.88642 5.05486L9.91906 6.08749C10.4707 6.6391 10.4707 7.5325 9.91906 8.08411L4.88099 13.1222C3.75679 14.2464 3.75679 16.0664 4.88099 17.1906L5.91362 18.2232Z" fill="white"/>
<path d="M13.8722 12.0372L8.8345 17.0749C7.71031 18.1991 7.70992 20.0191 8.8345 21.1437L9.86714 22.176L10.9028 21.1403L9.87057 20.108C9.31858 19.556 9.3182 18.663 9.87057 18.111L14.9083 13.0729C16.0298 11.9514 16.0298 10.1261 14.9083 9.00456L13.8756 7.97192L12.8395 9.008L13.8722 10.0403C14.4226 10.5907 14.4226 11.4868 13.8722 12.0372Z" fill="white"/>
<path d="M15.0154 22.5414L15.9061 23.7045C18.457 21.7502 19.92 18.7889 19.92 15.5796V15.1436C19.92 12.6713 19.4496 10.1234 18.5219 7.57101C18.3411 7.07434 18.2495 6.55173 18.2495 6.01767C18.2495 3.45152 20.3766 1.36145 22.9908 1.46864C25.3212 1.5621 27.2362 3.45953 27.3502 5.78802C27.3811 6.42317 27.2846 7.04191 27.0626 7.62785C26.149 10.0403 25.6855 12.5686 25.6855 15.1428V15.5796C25.6855 18.7889 27.1484 21.7502 29.6993 23.7045L30.5901 22.5414C28.4042 20.8671 27.1503 18.3296 27.1503 15.5796V15.1428C27.1503 12.7464 27.5818 10.3927 28.4325 8.14665C28.7262 7.3715 28.8544 6.55363 28.8132 5.71631C28.6625 2.63708 26.1307 0.128157 23.0495 0.00494275C19.6114 -0.130479 16.7847 2.60466 16.7847 6.01767C16.7847 6.723 16.906 7.41385 17.1452 8.0715C18.0141 10.4629 18.4551 12.8422 18.4551 15.1436V15.5796C18.4551 18.3296 17.2012 20.8668 15.0154 22.5414V22.5414Z" fill="white"/>
<path d="M47.3462 5.64348C46.0686 4.90572 44.4371 5.3425 43.6993 6.62081L34.3831 22.757L35.6518 23.4894L44.9681 7.35323C45.3007 6.77645 46.037 6.57884 46.6137 6.91225C47.1905 7.24489 47.3877 7.98113 47.0547 8.55791L38.8569 22.757L40.1257 23.4894L48.3235 9.29033C49.0612 8.01279 48.6245 6.38124 47.3462 5.64348Z" fill="white"/>
<path d="M9.15649 27.103L10.6141 26.9577L12.6363 47.2435L11.1787 47.3888L9.15649 27.103Z" fill="white"/>
<path d="M32.9697 47.24L34.9919 26.9542L36.4495 27.0996L34.4273 47.3854L32.9697 47.24Z" fill="white"/>
<path d="M17.3638 27.055L18.8275 27.0016L19.5645 47.2859L18.1004 47.3393L17.3638 27.055Z" fill="white"/>
<path d="M26.0379 47.2873L26.7749 27.0031L28.2386 27.0565L27.502 47.3407L26.0379 47.2873Z" fill="white"/>
<path d="M38.3118 46.9398L36.8648 46.7125L38.2351 37.9982L39.682 38.2259L38.3118 46.9398ZM39.8338 37.2612L38.3865 37.0334L38.6143 35.5865L40.0612 35.8139L39.8338 37.2612ZM40.213 34.8492L38.7657 34.6218L38.9934 33.1745L40.4404 33.4022L40.213 34.8492Z" fill="white"/>
<path d="M25.6996 23.0686C24.5228 21.4672 23.7312 19.5889 23.4112 17.6373L24.857 17.4C25.1396 19.125 25.8392 20.7848 26.8799 22.2008L25.6996 23.0686ZM23.2857 16.6084C23.2582 16.2686 23.2441 15.9226 23.2441 15.5796V15.0841L24.709 15.0879V15.5796C24.709 15.8833 24.7215 16.19 24.7456 16.4906L23.2857 16.6084ZM24.7315 14.1422L23.2681 14.0766C23.2906 13.5746 23.3296 13.0676 23.3841 12.5698L24.8402 12.7289C24.7891 13.1958 24.7524 13.6715 24.7315 14.1422Z" fill="white"/>
<path d="M38.3277 22.7291L37.0589 21.9967L40.2255 16.5119L41.4942 17.2443L38.3277 22.7291ZM41.9825 16.3982L40.7138 15.6658L41.4462 14.3974L42.715 15.1299L41.9825 16.3982ZM43.2032 14.2841L41.9345 13.5517L42.6669 12.2833L43.9357 13.0157L43.2032 14.2841Z" fill="white"/>
</svg>
