<svg width="31" height="37" viewBox="0 0 31 37" fill="none" xmlns="http://www.w3.org/2000/svg">
<path d="M23.4655 18.4052C23.4655 19.7128 23.5358 20.9801 23.6005 22.1467C23.6204 22.5057 23.6398 22.855 23.6564 23.1932C23.7284 24.6564 23.7483 25.8968 23.5782 26.9118C23.4104 27.9131 23.0723 28.6051 22.4979 29.0654C21.9129 29.5342 20.9625 29.8595 19.3659 29.8595C13.0399 29.8595 7.91165 24.7313 7.91165 18.4052C7.91165 12.0792 13.0399 6.95096 19.3659 6.95096C20.9625 6.95096 21.9129 7.2763 22.4979 7.74511C23.0723 8.20537 23.4104 8.89733 23.5782 9.89871C23.7483 10.9137 23.7284 12.1541 23.6564 13.6173C23.6398 13.9554 23.6204 14.3048 23.6005 14.6637C23.5358 15.8304 23.4655 17.0976 23.4655 18.4052Z" stroke="#0089B6" stroke-width="1.50275"/>
<mask id="path-2-inside-1" fill="white">
<path fill-rule="evenodd" clip-rule="evenodd" d="M23.1839 0.722656C21.3721 0.722656 19.9033 2.19143 19.9033 4.00325V22.6254C17.6296 23.8106 16.0772 26.1895 16.0772 28.931C16.0772 32.8557 19.2588 36.0372 23.1834 36.0372C27.1081 36.0372 30.2897 32.8557 30.2897 28.931C30.2897 26.1899 28.7377 23.8113 26.4645 22.626V4.00324C26.4645 2.19143 24.9957 0.722656 23.1839 0.722656Z"/>
</mask>
<path fill-rule="evenodd" clip-rule="evenodd" d="M23.1839 0.722656C21.3721 0.722656 19.9033 2.19143 19.9033 4.00325V22.6254C17.6296 23.8106 16.0772 26.1895 16.0772 28.931C16.0772 32.8557 19.2588 36.0372 23.1834 36.0372C27.1081 36.0372 30.2897 32.8557 30.2897 28.931C30.2897 26.1899 28.7377 23.8113 26.4645 22.626V4.00324C26.4645 2.19143 24.9957 0.722656 23.1839 0.722656Z" fill="white"/>
<path d="M19.9033 22.6254L20.5979 23.958L21.4061 23.5368V22.6254H19.9033ZM26.4645 22.626H24.9618V23.5371L25.7697 23.9584L26.4645 22.626ZM21.4061 4.00325C21.4061 3.02137 22.2021 2.2254 23.1839 2.2254V-0.780092C20.5422 -0.780092 18.4006 1.36148 18.4006 4.00325H21.4061ZM21.4061 22.6254V4.00325H18.4006V22.6254H21.4061ZM17.58 28.931C17.58 26.7714 18.8013 24.8945 20.5979 23.958L19.2087 21.2929C16.458 22.7267 14.5745 25.6077 14.5745 28.931H17.58ZM23.1834 34.5345C20.0887 34.5345 17.58 32.0257 17.58 28.931H14.5745C14.5745 33.6856 18.4288 37.54 23.1834 37.54V34.5345ZM28.7869 28.931C28.7869 32.0257 26.2781 34.5345 23.1834 34.5345V37.54C27.938 37.54 31.7924 33.6856 31.7924 28.931H28.7869ZM25.7697 23.9584C27.5659 24.8951 28.7869 26.7717 28.7869 28.931H31.7924C31.7924 25.6081 29.9094 22.7275 27.1593 21.2935L25.7697 23.9584ZM24.9618 4.00324V22.626H27.9673V4.00324H24.9618ZM23.1839 2.2254C24.1658 2.2254 24.9618 3.02137 24.9618 4.00324H27.9673C27.9673 1.36148 25.8257 -0.780092 23.1839 -0.780092V2.2254Z" fill="#0089B6" mask="url(#path-2-inside-1)"/>
<circle cx="23.1207" cy="28.8894" r="3.75559" fill="#0089B6"/>
<rect x="22.3376" y="10.8939" width="1.56483" height="16.1177" rx="0.782414" fill="#0089B6"/>
<line x1="14.758" y1="4.14225" x2="13.5522" y2="1.73076" stroke="#0089B6" stroke-width="1.50275" stroke-linecap="round"/>
<line x1="0.751374" y1="-0.751374" x2="3.4475" y2="-0.751374" transform="matrix(0.447214 -0.894427 -0.894427 -0.447214 10.2886 34.6796)" stroke="#0089B6" stroke-width="1.50275" stroke-linecap="round"/>
<line x1="0.751374" y1="-0.751374" x2="3.4475" y2="-0.751374" transform="matrix(0.830337 -0.557262 -0.557262 -0.830337 2.93439 28.2562)" stroke="#0089B6" stroke-width="1.50275" stroke-linecap="round"/>
<line x1="6.15997" y1="8.74461" x2="3.92128" y2="7.24216" stroke="#0089B6" stroke-width="1.50275" stroke-linecap="round"/>
<line x1="3.72092" y1="17.9794" x2="1.02479" y2="17.9794" stroke="#0089B6" stroke-width="1.50275" stroke-linecap="round"/>
</svg>
