<svg width="28" height="37" viewBox="0 0 28 37" fill="none" xmlns="http://www.w3.org/2000/svg">
<path d="M1 31.5288C2.96934 31.5288 3.45068 30.0536 5.1575 30.0278C6.93898 30.0009 7.73401 31.5481 9.51557 31.5288C11.2428 31.5101 11.906 29.9702 13.7278 30.0278C15.3935 30.0805 16.2699 31.5336 18.0311 31.5288C19.7788 31.5241 20.5504 30.0254 22.2981 30.0278C24.0389 30.0302 24.8059 31.5194 26.5467 31.5288" stroke="#0089B6" stroke-width="1.50275" stroke-linecap="round"/>
<path d="M1 36.0371C2.96934 36.0371 3.45068 34.5619 5.1575 34.5361C6.93898 34.5092 7.73401 36.0564 9.51557 36.0371C11.2428 36.0184 11.906 34.4785 13.7278 34.5361C15.3935 34.5888 16.2699 36.0419 18.0311 36.0371C19.7788 36.0324 20.5504 34.5337 22.2981 34.5361C24.0389 34.5385 24.8059 36.0277 26.5467 36.0371" stroke="#0089B6" stroke-width="1.50275" stroke-linecap="round"/>
<path d="M1 26.2692C2.96934 26.2692 3.45068 24.794 5.1575 24.7682C6.93898 24.7413 7.73401 26.2885 9.51557 26.2692C11.2428 26.2504 11.906 24.7106 13.7278 24.7682C15.3935 24.8209 16.2699 26.2739 18.0311 26.2692C19.7788 26.2644 20.5504 24.7658 22.2981 24.7682C24.0389 24.7706 24.8059 26.2597 26.5467 26.2692" stroke="#0089B6" stroke-width="1.50275" stroke-linecap="round"/>
<mask id="path-4-inside-1" fill="white">
<path fill-rule="evenodd" clip-rule="evenodd" d="M13.6433 0.722656C11.9727 0.722656 10.6183 2.07702 10.6183 3.74771V20.9193C8.52174 22.0122 7.09027 24.2058 7.09027 26.7337C7.09027 30.3526 10.024 33.2864 13.643 33.2864C17.2619 33.2864 20.1956 30.3526 20.1956 26.7337C20.1956 24.2061 18.7645 22.0128 16.6684 20.9198V3.7477C16.6684 2.07702 15.314 0.722656 13.6433 0.722656Z"/>
</mask>
<path fill-rule="evenodd" clip-rule="evenodd" d="M13.6433 0.722656C11.9727 0.722656 10.6183 2.07702 10.6183 3.74771V20.9193C8.52174 22.0122 7.09027 24.2058 7.09027 26.7337C7.09027 30.3526 10.024 33.2864 13.643 33.2864C17.2619 33.2864 20.1956 30.3526 20.1956 26.7337C20.1956 24.2061 18.7645 22.0128 16.6684 20.9198V3.7477C16.6684 2.07702 15.314 0.722656 13.6433 0.722656Z" fill="white"/>
<path d="M10.6183 20.9193L11.3129 22.2519L12.121 21.8307V20.9193H10.6183ZM16.6684 20.9198H15.1656V21.8309L15.9736 22.2522L16.6684 20.9198ZM12.121 3.74771C12.121 2.90696 12.8026 2.2254 13.6433 2.2254V-0.780092C11.1427 -0.780092 9.11555 1.24708 9.11555 3.74771H12.121ZM12.121 20.9193V3.74771H9.11555V20.9193H12.121ZM8.59302 26.7337C8.59302 24.7876 9.6934 23.0961 11.3129 22.2519L9.92368 19.5868C7.35007 20.9283 5.58752 23.6239 5.58752 26.7337H8.59302ZM13.643 31.7836C10.854 31.7836 8.59302 29.5227 8.59302 26.7337H5.58752C5.58752 31.1826 9.19406 34.7891 13.643 34.7891V31.7836ZM18.6929 26.7337C18.6929 29.5227 16.432 31.7836 13.643 31.7836V34.7891C18.0918 34.7891 21.6984 31.1826 21.6984 26.7337H18.6929ZM15.9736 22.2522C17.5928 23.0965 18.6929 24.7879 18.6929 26.7337H21.6984C21.6984 23.6243 19.9363 20.929 17.3632 19.5873L15.9736 22.2522ZM15.1656 3.7477V20.9198H18.1711V3.7477H15.1656ZM13.6433 2.2254C14.4841 2.2254 15.1656 2.90696 15.1656 3.7477H18.1711C18.1711 1.24707 16.144 -0.780092 13.6433 -0.780092V2.2254Z" fill="#0089B6" mask="url(#path-4-inside-1)"/>
<circle cx="13.5841" cy="26.6955" r="3.46304" fill="#0089B6"/>
<rect x="12.8616" y="10.1017" width="1.44293" height="14.8622" rx="0.721467" fill="#0089B6"/>
</svg>
