<svg width="50" height="50" viewBox="0 0 50 50" fill="none" xmlns="http://www.w3.org/2000/svg">
<path d="M48.0582 42.2988L45.6534 40.856C45.077 40.508 44.4095 40.3407 43.7371 40.3753C43.0646 40.41 42.4179 40.6453 41.8803 41.0507L41.7187 41.1719C41.4026 41.4071 41.019 41.5342 40.625 41.5342C40.231 41.5342 39.8474 41.4071 39.5313 41.1719C38.9441 40.735 38.2318 40.4991 37.5 40.4991C36.7682 40.4991 36.0559 40.735 35.4687 41.1719C35.1526 41.4071 34.769 41.5342 34.375 41.5342C33.981 41.5342 33.5974 41.4071 33.2813 41.1719C32.6948 40.7337 31.9821 40.4976 31.25 40.4991V40.4597C31.2554 39.1991 30.8771 37.9667 30.1654 36.9263C29.4536 35.8858 28.4421 35.0866 27.2653 34.6347L16.6894 30.5219C16.5991 30.4868 16.5031 30.4688 16.4062 30.4688H16.38L23.6341 26.5625H31.2759L27.7546 28.4587L28.4954 29.8344L31.25 28.3511V31.25H32.8125V27.4773C33.5352 26.9863 34.1266 26.3258 34.5351 25.5535C34.9437 24.7812 35.1569 23.9206 35.1562 23.0469V20.3125C35.1563 20.21 35.136 20.1084 35.0968 20.0136C35.0575 19.9188 35 19.8327 34.9274 19.7601C34.8549 19.6876 34.7688 19.63 34.674 19.5908C34.5792 19.5515 34.4776 19.5313 34.375 19.5313H32.0312V16.993L32.338 16.8278C33.1905 16.3696 33.9027 15.6888 34.399 14.858C34.8953 14.0271 35.157 13.0772 35.1562 12.1094V9.375C35.1563 9.2724 35.136 9.17081 35.0968 9.07603C35.0575 8.98124 35 8.89511 34.9274 8.82257C34.8549 8.75002 34.7688 8.69247 34.674 8.65321C34.5792 8.61395 34.4776 8.59375 34.375 8.59375H25.7812V4.6875C25.7803 3.85898 25.4508 3.06467 24.8649 2.47882C24.2791 1.89297 23.4848 1.56343 22.6562 1.5625H10.9375C10.109 1.56343 9.31467 1.89297 8.72882 2.47882C8.14297 3.06467 7.81343 3.85898 7.8125 4.6875V14.8438C7.8125 14.9463 7.8327 15.0479 7.87196 15.1427C7.91122 15.2375 7.96877 15.3236 8.04132 15.3962C8.11386 15.4687 8.19999 15.5263 8.29478 15.5655C8.38956 15.6048 8.49115 15.625 8.59375 15.625H10.9375V19.5313H8.59375C8.49115 19.5313 8.38956 19.5515 8.29478 19.5908C8.19999 19.63 8.11386 19.6876 8.04132 19.7601C7.96877 19.8327 7.91122 19.9188 7.87196 20.0136C7.8327 20.1084 7.8125 20.21 7.8125 20.3125V23.0469C7.81363 23.9113 8.13275 24.7451 8.70906 25.3893C9.28537 26.0336 10.0786 26.4433 10.9375 26.5403V30.4688H8.59375C8.49115 30.4687 8.38956 30.489 8.29478 30.5282C8.19999 30.5675 8.11386 30.625 8.04132 30.6976C7.96877 30.7701 7.91122 30.8562 7.87196 30.951C7.8327 31.0458 7.8125 31.1474 7.8125 31.25V33.9844C7.81363 34.8488 8.13275 35.6825 8.70906 36.3268C9.28537 36.971 10.0786 37.3807 10.9375 37.4778V40.8776C10.7734 40.9626 10.6166 41.061 10.4687 41.1719C10.1526 41.4071 9.76907 41.5341 9.37503 41.5341C8.981 41.5342 8.59746 41.4071 8.28133 41.1719L8.11958 41.0506C7.58198 40.6452 6.93531 40.41 6.26287 40.3753C5.59042 40.3406 4.92298 40.508 4.34651 40.856L1.94178 42.2988C1.8261 42.3683 1.73037 42.4664 1.66391 42.5838C1.59744 42.7012 1.56251 42.8338 1.5625 42.9688V47.6562C1.5625 47.7588 1.5827 47.8604 1.62196 47.9552C1.66122 48.05 1.71877 48.1361 1.79132 48.2087C1.86386 48.2812 1.94999 48.3388 2.04478 48.378C2.13956 48.4173 2.24115 48.4375 2.34375 48.4375H47.6562C47.7588 48.4375 47.8604 48.4173 47.9552 48.378C48.05 48.3388 48.1361 48.2812 48.2087 48.2087C48.2812 48.1361 48.3388 48.05 48.378 47.9552C48.4173 47.8604 48.4375 47.7588 48.4375 47.6562V42.9688C48.4375 42.8338 48.4026 42.7012 48.3361 42.5838C48.2696 42.4664 48.1739 42.3683 48.0582 42.2988ZM15.625 29.1006V26.5625H20.3384L15.625 29.1006ZM21.875 3.125H22.6562C23.0705 3.12547 23.4677 3.29025 23.7606 3.58317C24.0535 3.87609 24.2183 4.27324 24.2188 4.6875H20.3125C20.313 4.27324 20.4777 3.87609 20.7707 3.58317C21.0636 3.29025 21.4607 3.12547 21.875 3.125V3.125ZM20.3125 6.25H24.2188V8.59375H20.3125V6.25ZM20.3125 10.1562H33.5938V12.1094C33.5932 12.6272 33.3872 13.1236 33.021 13.4898C32.6549 13.8559 32.1584 14.0619 31.6406 14.0625H20.3125V10.1562ZM24.0217 19.5313H16.38L23.6343 15.625H31.2761L24.0217 19.5313ZM30.4688 17.8344V19.5313H27.3174L30.4688 17.8344ZM20.3386 15.625L15.625 18.1632V15.625H20.3386ZM16.4062 14.0625V6.25H18.75V14.0625H16.4062ZM10.9375 3.125H19.1704C18.8946 3.59952 18.7496 4.13866 18.75 4.6875H9.375C9.37547 4.27324 9.54025 3.87609 9.83317 3.58317C10.1261 3.29025 10.5232 3.12547 10.9375 3.125V3.125ZM13.2812 14.0625V6.25H14.8438V14.0625H13.2812ZM14.0625 15.625V19.0045L13.0842 19.5313H12.5V15.625H14.0625ZM9.375 14.0625V6.25H11.7188V14.0625H9.375ZM9.375 23.0469V21.0938H33.5938V23.0469C33.5932 23.5647 33.3872 24.0612 33.021 24.4273C32.6549 24.7935 32.1584 24.9995 31.6406 25H11.3281C10.8103 24.9995 10.3139 24.7935 9.94771 24.4273C9.58156 24.0612 9.37559 23.5647 9.375 23.0469V23.0469ZM14.0625 26.5625V29.942L13.0842 30.4688H12.5V26.5625H14.0625ZM9.375 33.9844V32.0312H16.2597L26.699 36.091C27.5816 36.4299 28.3402 37.0293 28.874 37.8096C29.4078 38.59 29.6916 39.5143 29.6875 40.4597V40.8776C29.5234 40.9626 29.3666 41.061 29.2187 41.1719C29.0852 41.2715 28.9385 41.352 28.7829 41.4112L15.9282 35.9987C15.8322 35.9583 15.7291 35.9375 15.625 35.9375H11.3281C10.8103 35.9369 10.3139 35.7309 9.94771 35.3648C9.58156 34.9986 9.37559 34.5022 9.375 33.9844V33.9844ZM23.4619 40.8662C23.289 40.9536 23.1239 41.0559 22.9687 41.1719C22.6526 41.4071 22.269 41.5342 21.875 41.5342C21.481 41.5342 21.0974 41.4071 20.7813 41.1719C20.1941 40.735 19.4818 40.4991 18.75 40.4991C18.0182 40.4991 17.3059 40.735 16.7187 41.1719C16.403 41.4078 16.0192 41.535 15.625 41.5342V37.5664L23.4619 40.8662ZM14.0625 37.5V40.8776C13.5794 40.6284 13.0436 40.4986 12.5 40.4991V37.5H14.0625ZM46.875 46.875H3.125V43.4111L5.15041 42.1958C5.46082 42.0085 5.82019 41.9183 6.18227 41.937C6.54434 41.9557 6.89254 42.0823 7.18203 42.3006L7.34373 42.4219C7.93086 42.8587 8.64318 43.0946 9.37501 43.0946C10.1068 43.0946 10.8191 42.8587 11.4063 42.4219C11.7224 42.1866 12.106 42.0596 12.5 42.0596C12.8941 42.0596 13.2776 42.1866 13.5937 42.4219C14.1809 42.8587 14.8932 43.0946 15.625 43.0946C16.3568 43.0946 17.0691 42.8587 17.6563 42.4219C17.9724 42.1866 18.356 42.0596 18.75 42.0596C19.1441 42.0596 19.5276 42.1866 19.8437 42.4219C20.4309 42.8587 21.1432 43.0946 21.875 43.0946C22.6068 43.0946 23.3191 42.8587 23.9063 42.4219C24.2224 42.1866 24.606 42.0596 25 42.0596C25.3941 42.0596 25.7776 42.1866 26.0937 42.4219C26.6809 42.8587 27.3932 43.0946 28.125 43.0946C28.8568 43.0946 29.5691 42.8587 30.1563 42.4219C30.4724 42.1866 30.856 42.0596 31.25 42.0596C31.6441 42.0596 32.0276 42.1866 32.3437 42.4219C32.9309 42.8587 33.6432 43.0946 34.375 43.0946C35.1068 43.0946 35.8191 42.8587 36.4063 42.4219C36.7224 42.1866 37.106 42.0596 37.5 42.0596C37.8941 42.0596 38.2776 42.1866 38.5937 42.4219C39.1809 42.8587 39.8932 43.0947 40.625 43.0946C41.3569 43.0946 42.0692 42.8587 42.6563 42.4218L42.8179 42.3006C43.1074 42.0823 43.4556 41.9557 43.8177 41.937C44.1797 41.9183 44.5391 42.0085 44.8495 42.1958L46.875 43.4111V46.875Z" fill="white"/>
<path d="M22.9396 29.3934L22.3733 30.8497L23.9358 31.4573L24.5021 30.0011L22.9396 29.3934Z" fill="white"/>
<path d="M29.5175 31.9515L25.8413 30.5219L25.275 31.9781L28.9512 33.4078C30.0917 33.8456 31.0719 34.6201 31.7616 35.6284C32.4513 36.6367 32.8179 37.8309 32.8126 39.0525H34.3751C34.3751 37.5173 33.9113 36.0179 33.0445 34.7508C32.1778 33.4836 30.9484 32.5079 29.5175 31.9515V31.9515Z" fill="white"/>
</svg>
