<svg width="20" height="23" viewBox="0 0 20 23" fill="none" xmlns="http://www.w3.org/2000/svg">
<path d="M1.29801 23C0.829739 23 0.46553 22.832 0.205381 22.4959C-0.0547683 22.1388 -0.0677757 21.7922 0.166359 21.4562L7.11234 11.563C7.24242 11.416 7.24242 11.2689 7.11234 11.1219L0.36147 1.54383C0.127336 1.20776 0.140344 0.871689 0.400493 0.535615C0.660642 0.178538 1.02485 0 1.49312 0H2.00041C2.70281 0 3.34018 0.147032 3.91251 0.441096C4.51085 0.714155 4.9531 1.09224 5.23927 1.57534L10.039 8.94795C10.039 8.96895 10.052 8.97945 10.078 8.97945C10.1041 8.97945 10.1171 8.96895 10.1171 8.94795L14.9168 1.57534C15.229 1.09224 15.6713 0.714155 16.2436 0.441096C16.8419 0.147032 17.4793 0 18.1557 0H18.5069C19.0012 0 19.3784 0.178538 19.6385 0.535615C19.8987 0.871689 19.8987 1.20776 19.6385 1.54383L12.8877 11.1219C12.7836 11.2689 12.7836 11.416 12.8877 11.563L19.8336 21.4562C20.0678 21.7922 20.0548 22.1388 19.7946 22.4959C19.5605 22.832 19.1963 23 18.702 23H18.1167C17.4403 23 16.8029 22.8635 16.2046 22.5904C15.6322 22.2963 15.19 21.9078 14.8778 21.4247L9.96098 13.737C9.96098 13.716 9.94797 13.7055 9.92196 13.7055C9.89594 13.7055 9.88293 13.716 9.88293 13.737L4.96611 21.4247C4.67995 21.9078 4.23769 22.2963 3.63935 22.5904C3.06702 22.8635 2.42966 23 1.72725 23H1.29801Z" fill="#0089B6"/>
</svg>
