<svg width="50" height="50" viewBox="0 0 50 50" fill="none" xmlns="http://www.w3.org/2000/svg">
<g clip-path="url(#clip0)">
<path d="M49.1667 42.9167C48.2271 42.9196 47.3275 42.5367 46.6783 41.8575C44.7006 39.9363 41.5536 39.9363 39.5758 41.8575C38.9251 42.5342 38.0267 42.9166 37.0879 42.9166C36.1491 42.9166 35.2508 42.5342 34.6 41.8575C32.622 39.9362 29.4747 39.9362 27.4967 41.8575C26.8452 42.5342 25.9464 42.9165 25.0071 42.9165C24.0678 42.9165 23.169 42.5342 22.5175 41.8575C20.5387 39.9364 17.3913 39.9364 15.4125 41.8575C14.761 42.5342 13.8622 42.9165 12.9229 42.9165C11.9836 42.9165 11.0848 42.5342 10.4333 41.8575C8.45298 39.9363 5.30452 39.9363 3.32417 41.8575C2.67407 42.5369 1.77366 42.9198 0.833333 42.9167C0.373096 42.9167 0 43.2897 0 43.75C0 44.2102 0.373096 44.5833 0.833333 44.5833C2.16084 44.586 3.43664 44.0688 4.3875 43.1425C5.03954 42.4656 5.93892 42.0832 6.87875 42.0832C7.81858 42.0832 8.71796 42.4656 9.37 43.1425C11.349 45.0637 14.4968 45.0637 16.4758 43.1425C17.1273 42.4658 18.0261 42.0835 18.9654 42.0835C19.9047 42.0835 20.8035 42.4658 21.455 43.1425C23.4335 45.0635 26.5807 45.0635 28.5592 43.1425C29.2102 42.4657 30.1088 42.0832 31.0479 42.0832C31.987 42.0832 32.8856 42.4657 33.5367 43.1425C35.5144 45.0637 38.6614 45.0637 40.6392 43.1425C41.2899 42.4658 42.1882 42.0834 43.1271 42.0834C44.0659 42.0834 44.9642 42.4658 45.615 43.1425C46.5648 44.0688 47.8399 44.5861 49.1667 44.5833C49.6269 44.5833 50 44.2102 50 43.75C50 43.2897 49.6269 42.9167 49.1667 42.9167Z" fill="white"/>
<path d="M49.1667 47.9167C48.2271 47.9196 47.3275 47.5367 46.6783 46.8575C44.7006 44.9363 41.5536 44.9363 39.5758 46.8575C38.9251 47.5342 38.0267 47.9166 37.0879 47.9166C36.1491 47.9166 35.2508 47.5342 34.6 46.8575C32.622 44.9362 29.4747 44.9362 27.4967 46.8575C26.8452 47.5342 25.9464 47.9165 25.0071 47.9165C24.0678 47.9165 23.169 47.5342 22.5175 46.8575C20.5387 44.9364 17.3913 44.9364 15.4125 46.8575C14.761 47.5342 13.8622 47.9165 12.9229 47.9165C11.9836 47.9165 11.0848 47.5342 10.4333 46.8575C8.45298 44.9363 5.30452 44.9363 3.32417 46.8575C2.67407 47.5369 1.77366 47.9198 0.833333 47.9167C0.373096 47.9167 0 48.2897 0 48.75C0 49.2102 0.373096 49.5833 0.833333 49.5833C2.16084 49.586 3.43664 49.0688 4.3875 48.1425C5.03954 47.4656 5.93892 47.0832 6.87875 47.0832C7.81858 47.0832 8.71796 47.4656 9.37 48.1425C11.349 50.0637 14.4968 50.0637 16.4758 48.1425C17.1273 47.4658 18.0261 47.0835 18.9654 47.0835C19.9047 47.0835 20.8035 47.4658 21.455 48.1425C23.4335 50.0635 26.5807 50.0635 28.5592 48.1425C29.2102 47.4657 30.1088 47.0832 31.0479 47.0832C31.987 47.0832 32.8856 47.4657 33.5367 48.1425C35.5144 50.0637 38.6614 50.0637 40.6392 48.1425C41.2899 47.4658 42.1882 47.0834 43.1271 47.0834C44.0659 47.0834 44.9642 47.4658 45.615 48.1425C46.5648 49.0688 47.8399 49.5861 49.1667 49.5833C49.6269 49.5833 50 49.2102 50 48.75C50 48.2897 49.6269 47.9167 49.1667 47.9167Z" fill="white"/>
<path d="M49.1667 17.9166C49.6269 17.9166 50 17.5436 50 17.0833C50 16.6231 49.6269 16.25 49.1667 16.25H31.6667V9.76665C31.6309 8.00595 32.9215 6.49846 34.6667 6.26249C36.2136 6.11105 37.6611 7.04486 38.1608 8.51665C38.5364 9.52891 39.4416 10.25 40.5122 10.3898C41.5829 10.5296 42.6429 10.0652 43.2658 9.18332C43.8187 8.39798 43.956 7.3932 43.6342 6.48832C42.2323 2.6436 38.4688 0.178684 34.3842 0.429987C29.4972 0.847114 25.764 4.97076 25.8333 9.87498V16.25H11.6667V9.76665C11.6309 8.00595 12.9215 6.49846 14.6667 6.26249C16.2135 6.11136 17.6608 7.04506 18.1608 8.51665C18.5364 9.52891 19.4416 10.25 20.5122 10.3898C21.5829 10.5296 22.6429 10.0652 23.2658 9.18332C23.8187 8.39798 23.956 7.3932 23.6342 6.48832C22.23 2.64541 18.468 0.181486 14.3842 0.429987C9.49722 0.847114 5.76396 4.97076 5.83333 9.87498V16.25H0.833333C0.373096 16.25 0 16.6231 0 17.0833C0 17.5436 0.373096 17.9166 0.833333 17.9166H5.83333V22.9166H0.833333C0.373096 22.9166 0 23.2897 0 23.75C0 24.2102 0.373096 24.5833 0.833333 24.5833H5.83333V35.5225C4.89376 35.7372 4.02795 36.1973 3.32417 36.8558C2.67435 37.5358 1.77391 37.9193 0.833333 37.9166C0.373096 37.9166 0 38.2897 0 38.75C0 39.2102 0.373096 39.5833 0.833333 39.5833C2.16084 39.586 3.43664 39.0688 4.3875 38.1425C5.03954 37.4656 5.93892 37.0832 6.87875 37.0832C7.81858 37.0832 8.71796 37.4656 9.37 38.1425C11.349 40.0636 14.4968 40.0636 16.4758 38.1425C17.1273 37.4658 18.0261 37.0835 18.9654 37.0835C19.9047 37.0835 20.8035 37.4658 21.455 38.1425C22.4056 39.0687 23.6811 39.5859 25.0083 39.5833C25.6855 39.5925 26.3568 39.4573 26.9775 39.1866L27.0042 39.1758C27.5682 38.9056 28.0916 38.5578 28.5592 38.1425C29.2102 37.4657 30.1088 37.0832 31.0479 37.0832C31.987 37.0832 32.8856 37.4657 33.5367 38.1425C35.5144 40.0637 38.6614 40.0637 40.6392 38.1425C41.2899 37.4658 42.1882 37.0834 43.1271 37.0834C44.0659 37.0834 44.9642 37.4658 45.615 38.1425C46.5648 39.0688 47.8399 39.5861 49.1667 39.5833C49.6269 39.5833 50 39.2102 50 38.75C50 38.2897 49.6269 37.9166 49.1667 37.9166C48.2271 37.9196 47.3275 37.5367 46.6783 36.8575C44.7006 34.9363 41.5536 34.9363 39.5758 36.8575C38.9251 37.5342 38.0267 37.9166 37.0879 37.9166C36.1491 37.9166 35.2508 37.5342 34.6 36.8575C33.7975 36.0875 32.7695 35.5945 31.6667 35.4508V24.5833H49.1667C49.6269 24.5833 50 24.2102 50 23.75C50 23.2897 49.6269 22.9166 49.1667 22.9166H31.6667V17.9166H49.1667ZM11.6667 21.25H25.8333V26.25H11.6667V21.25ZM11.6667 27.9166H25.8333V29.5833H11.6667V27.9166ZM25.8333 17.9166V19.5833H11.6667V17.9166H25.8333ZM7.5 35.4508V9.87498C7.43109 5.84749 10.4875 2.45199 14.5 2.09832C17.8417 1.89266 20.9209 3.90842 22.0692 7.05332C22.2114 7.44646 22.1516 7.88438 21.9092 8.22498C21.6777 8.55747 21.2968 8.75401 20.8917 8.74998C20.3839 8.76321 19.9228 8.45555 19.74 7.98165C18.9962 5.77572 16.8284 4.37498 14.5117 4.60332C11.9126 4.92478 9.97001 7.14791 10 9.76665V36.5108C9.28714 35.9224 8.41852 35.5541 7.5 35.4508V35.4508ZM22.5175 36.8575C20.5387 34.9364 17.3913 34.9364 15.4125 36.8575C14.7633 37.5367 13.8637 37.9196 12.9242 37.9166C12.4935 37.9255 12.0657 37.8464 11.6667 37.6841V31.25H25.8333V37.8266C25.5628 37.889 25.2859 37.9192 25.0083 37.9166C24.068 37.9196 23.1677 37.5367 22.5175 36.8575ZM27.5 36.8575V9.87498C27.4311 5.84749 30.4875 2.45199 34.5 2.09832C37.8414 1.89378 40.92 3.90914 42.0692 7.05332C42.2114 7.44646 42.1516 7.88438 41.9092 8.22498C41.6777 8.55747 41.2968 8.75401 40.8917 8.74998C40.3839 8.76321 39.9228 8.45555 39.74 7.98165C38.9962 5.77572 36.8284 4.37498 34.5117 4.60332C31.9126 4.92478 29.97 7.14791 30 9.76665V35.5233C29.0637 35.7386 28.2011 36.1981 27.5 36.855V36.8575Z" fill="white"/>
<path d="M46.667 33.75C47.1273 33.75 47.5004 33.3769 47.5004 32.9167V29.7558C47.5006 29.2501 47.196 28.794 46.7288 28.6005C46.2615 28.4069 45.7237 28.5139 45.3662 28.8717L44.167 30.0717L42.9678 28.8717C42.6103 28.5139 42.0725 28.4069 41.6053 28.6005C41.138 28.794 40.8335 29.2501 40.8337 29.7558V32.9167C40.8337 33.3769 41.2068 33.75 41.667 33.75C42.1273 33.75 42.5003 33.3769 42.5003 32.9167V30.7617L43.2828 31.545C43.5173 31.7796 43.8354 31.9114 44.167 31.9114C44.4987 31.9114 44.8167 31.7796 45.0512 31.545L45.8337 30.7617V32.9167C45.8337 33.3769 46.2068 33.75 46.667 33.75Z" fill="white"/>
<path d="M34.9997 32.0833C34.5395 32.0833 34.1664 32.4564 34.1664 32.9166C34.1664 33.3769 34.5395 33.75 34.9997 33.75H38.333C38.7933 33.75 39.1664 33.3769 39.1664 32.9166C39.1664 32.4564 38.7933 32.0833 38.333 32.0833H37.4997V27.0833C37.4996 26.7463 37.2966 26.4425 36.9853 26.3136C36.6739 26.1846 36.3155 26.2559 36.0772 26.4941L34.4105 28.1608C34.0947 28.4878 34.0993 29.0075 34.4207 29.329C34.7421 29.6504 35.2619 29.6549 35.5889 29.3391L35.833 29.095V32.0833H34.9997Z" fill="white"/>
</g>
<defs>
<clipPath id="clip0">
<rect width="50" height="50" fill="white"/>
</clipPath>
</defs>
</svg>
