<svg width="21" height="21" viewBox="0 0 21 21" fill="none" xmlns="http://www.w3.org/2000/svg">
<path d="M9.19214 12.4673L12.6077 10.5001L9.19214 8.53296V12.4673Z" fill="white"/>
<path d="M10.5 0C4.7019 0 0 4.7019 0 10.5C0 16.2981 4.7019 21 10.5 21C16.2981 21 21 16.2981 21 10.5C21 4.7019 16.2981 0 10.5 0ZM17.0609 10.5107C17.0609 10.5107 17.0609 12.6402 16.7908 13.667C16.6394 14.2291 16.1962 14.6722 15.6342 14.8235C14.6073 15.0938 10.5 15.0938 10.5 15.0938C10.5 15.0938 6.4034 15.0937 5.36584 14.8127C4.80379 14.6615 4.36063 14.2182 4.20923 13.6561C3.93894 12.6402 3.93894 10.5 3.93894 10.5C3.93894 10.5 3.93894 8.37071 4.20923 7.34388C4.36047 6.78184 4.81453 6.32778 5.36584 6.17654C6.39267 5.90625 10.5 5.90625 10.5 5.90625C10.5 5.90625 14.6073 5.90625 15.6342 6.18727C16.1962 6.33852 16.6394 6.78184 16.7908 7.34388C17.0718 8.37071 17.0609 10.5107 17.0609 10.5107V10.5107Z" fill="white"/>
</svg>
